<svg width="20" height="20" viewBox="0 0 20 20" fill="none" xmlns="http://www.w3.org/2000/svg">
<path d="M18.3577 15.0917L15.6551 12.3826C15.1167 11.8453 14.2253 11.8616 13.6682 12.4201L12.3067 13.7845C12.2206 13.737 12.1316 13.6873 12.038 13.6347C11.1782 13.1572 10.0013 12.5027 8.76299 11.2606C7.52097 10.016 6.86738 8.83465 6.3895 7.97233C6.33908 7.88097 6.29076 7.79289 6.24305 7.70924L7.15687 6.79471L7.60614 6.34387C8.16405 5.78453 8.17944 4.89132 7.64239 4.35239L4.93979 1.64306C4.40274 1.1049 3.51089 1.12122 2.95297 1.68055L2.19129 2.44835L2.2121 2.46906C1.9567 2.79569 1.74328 3.17241 1.58445 3.57865C1.43805 3.96535 1.3469 4.33435 1.30522 4.70412C0.94836 7.66928 2.30029 10.3792 5.96924 14.0565C11.0409 19.1393 15.1279 18.7553 15.3042 18.7366C15.6882 18.6906 16.0563 18.5986 16.4303 18.453C16.8321 18.2957 17.2077 18.0821 17.5334 17.8267L17.55 17.8415L18.3217 17.0842C18.8784 16.525 18.8945 15.6314 18.3577 15.0917Z" stroke="#464646" stroke-width="2"/>
</svg>
