<svg width="18" height="18" viewBox="0 0 18 18" fill="none" xmlns="http://www.w3.org/2000/svg">
<path d="M8.74656 7.03134L8.74157 7.03129C8.88812 7.03034 9.03308 7.00086 9.16834 6.94444C9.30518 6.88744 9.42941 6.80399 9.53402 6.69895C9.63858 6.59392 9.72145 6.46927 9.77792 6.33221C9.83433 6.19515 9.86318 6.04828 9.86286 5.90003V1.74873C9.8776 1.59259 9.85957 1.4351 9.80994 1.28633C9.76026 1.13757 9.6801 1.00082 9.57453 0.884826C9.46902 0.768837 9.34039 0.676171 9.19691 0.612763C9.05349 0.549354 8.89841 0.516602 8.74157 0.516602C8.58473 0.516602 8.42965 0.549354 8.28617 0.612763C8.14275 0.676171 8.01412 0.768837 7.90856 0.884826C7.80299 1.00082 7.72283 1.13757 7.6732 1.28633C7.62357 1.4351 7.60554 1.59259 7.62023 1.74873V5.90003C7.61991 6.04828 7.64881 6.19515 7.70522 6.33221C7.76164 6.46927 7.84451 6.59392 7.94912 6.69895C8.05368 6.80399 8.17796 6.88744 8.31475 6.94444C8.45006 7.00086 8.59502 7.03034 8.74157 7.03129L8.73659 7.03134H8.74656Z" fill="#0087E6"/>
<path d="M6.11523 8.95251C6.07021 9.09359 5.99784 9.2244 5.90214 9.33744C5.80643 9.45048 5.68931 9.54348 5.55755 9.61108C5.4258 9.67868 5.28198 9.71961 5.13436 9.73144C4.98674 9.74326 4.83823 9.72582 4.69738 9.68011L0.77031 8.39679C0.488265 8.30188 0.254998 8.09961 0.121056 7.83382C-0.0128855 7.56807 -0.0367128 7.26023 0.0547378 6.97705C0.146188 6.69386 0.345549 6.45808 0.609619 6.32086C0.873696 6.18364 1.18121 6.15597 1.46552 6.24393L5.39261 7.52719C5.67722 7.62067 5.91311 7.82321 6.04863 8.09044C6.1841 8.35761 6.20802 8.66762 6.11523 8.95251Z" fill="#0087E6"/>
<path d="M11.5912 9.33818C11.4953 9.22498 11.4228 9.09386 11.3779 8.95251C11.2857 8.66762 11.31 8.35793 11.4454 8.09086C11.5808 7.82385 11.8163 7.6212 12.1005 7.52719L16.03 6.24393C16.3143 6.15597 16.6219 6.18364 16.886 6.32086C17.15 6.45808 17.3494 6.69386 17.4408 6.97705C17.5323 7.26023 17.5085 7.56807 17.3745 7.83382C17.2406 8.09961 17.0073 8.30188 16.7253 8.39679L12.7982 9.68011C12.6572 9.72619 12.5084 9.74395 12.3605 9.73229C12.2126 9.72062 12.0685 9.67979 11.9365 9.61219C11.8044 9.54454 11.6871 9.45143 11.5912 9.33818Z" fill="#0087E6"/>
<path d="M3.36675 17.2577C3.12468 17.0803 2.96262 16.8144 2.91593 16.5179C2.86925 16.2215 2.94174 15.9186 3.11757 15.6754L5.54456 12.3289C5.63131 12.2091 5.74079 12.1076 5.86683 12.0302C5.99286 11.9528 6.13294 11.9011 6.27901 11.8779C6.42508 11.8548 6.57428 11.8607 6.71808 11.8953C6.86187 11.93 6.99739 11.9926 7.1169 12.0797C7.359 12.2571 7.52103 12.523 7.56774 12.8195C7.6144 13.1159 7.54192 13.4188 7.3661 13.662L4.94157 17.006C4.85462 17.1259 4.74488 17.2274 4.61863 17.3049C4.49239 17.3823 4.35211 17.4341 4.20584 17.4572C4.05956 17.4803 3.91015 17.4744 3.76618 17.4398C3.62219 17.4051 3.48646 17.3424 3.36675 17.2552V17.2577Z" fill="#0087E6"/>
<path d="M14.5772 16.5179C14.5305 16.8144 14.3684 17.0803 14.1263 17.2577V17.2676C14.0068 17.3547 13.8713 17.4175 13.7275 17.4521C13.5837 17.4867 13.4345 17.4926 13.2884 17.4695C13.1424 17.4463 13.0023 17.3946 12.8763 17.3171C12.7502 17.2398 12.6407 17.1383 12.554 17.0185L10.127 13.6595C10.0396 13.5398 9.97669 13.404 9.94181 13.2599C9.90692 13.1158 9.90077 12.9662 9.92367 12.8198C9.94658 12.6733 9.99812 12.5328 10.0753 12.4062C10.1525 12.2797 10.2539 12.1696 10.3737 12.0822C10.4934 11.9948 10.6293 11.9319 10.7733 11.897C10.9174 11.8621 11.067 11.856 11.2134 11.8789C11.3599 11.9018 11.5004 11.9533 11.627 12.0305C11.7535 12.1078 11.8636 12.2092 11.951 12.3289L14.3755 15.6754C14.5513 15.9186 14.6238 16.2215 14.5772 16.5179Z" fill="#0087E6"/>
</svg>
