<svg width="18" height="18" viewBox="0 0 18 18" fill="none" xmlns="http://www.w3.org/2000/svg">
<path fill-rule="evenodd" clip-rule="evenodd" d="M16.1613 4.2634C15.5095 3.23494 14.7191 2.39284 13.7959 1.73883C12.8732 1.08439 11.8162 0.617612 10.6316 0.339356C9.98417 0.187591 9.34278 0.109132 8.7079 0.102084C8.64519 0.101388 8.58255 0.101389 8.51997 0.102084C7.31243 0.115504 6.12867 0.387629 4.97199 0.905358C3.97237 1.35031 3.06734 1.98281 2.30592 2.76859C1.34691 3.75651 0.654935 4.87513 0.232591 6.12448L0.221806 6.15813C0.211034 6.19044 0.200961 6.22322 0.190902 6.25595C0.187264 6.26779 0.183627 6.27963 0.179959 6.29143C0.0575931 6.69989 0.00219421 7.05666 6.4001e-05 7.3432C-2.14816e-05 7.3547 -2.11855e-05 7.36608 6.4001e-05 7.37735C0.00536257 8.07838 0.33909 8.33718 0.788239 7.86519C0.806684 7.84384 0.825858 7.82248 0.845032 7.80112C0.851419 7.794 0.857806 7.78689 0.864166 7.77978C0.868233 7.77478 0.872301 7.77003 0.876368 7.76528C0.881792 7.75894 0.887215 7.7526 0.892638 7.7457C1.63681 6.80998 2.82101 6.03 2.82101 6.03L2.82144 6.03043C3.12343 5.82034 3.43619 5.62405 3.7619 5.44157C4.13421 5.22371 4.52333 5.02354 4.88614 4.88851C4.88614 4.88851 5.2235 4.7345 5.31323 4.26513L5.31884 4.23925C5.3191 4.23642 5.31966 4.23391 5.32025 4.23124L5.32088 4.22837L5.32143 4.22544C5.38183 3.83502 5.80029 2.76083 6.98449 2.69051C7.34805 2.64186 7.7179 2.7008 8.04833 2.86005C8.61951 3.13183 9.05782 3.6754 9.14669 4.33027C9.217 4.85098 9.09276 5.34191 8.82702 5.73061C8.81184 5.7538 8.79558 5.77626 8.77827 5.79791L8.76274 5.81861C8.53438 6.11277 8.22481 6.33354 7.87232 6.45364C7.66392 6.53155 7.44414 6.57469 7.22176 6.58134H7.2209C7.08803 6.59859 6.94049 6.58134 6.79252 6.5451C6.63454 6.51408 6.48232 6.45878 6.34127 6.38117C6.11262 6.27375 5.92712 6.15252 5.85853 6.08997C5.81095 6.04587 5.75288 6.01468 5.68985 5.99937C5.58784 5.98182 5.48294 5.99426 5.38787 6.03518L5.38571 6.03604C5.34429 6.05416 5.31237 6.07487 5.28907 6.09169C5.00758 6.32639 4.73764 6.57459 4.48019 6.83543C3.8085 7.54164 3.24465 8.34276 2.9802 8.73879C2.84043 8.96312 2.70712 9.19305 2.58158 9.42946C2.46511 9.64818 2.35725 9.8695 2.25674 10.0934C2.09129 10.4667 1.94514 10.8483 1.81886 11.2366L1.80074 11.2927L1.77658 11.3703L1.75372 11.4467C0.93923 14.2379 2.406 15.8488 3.63507 14.1658C3.70237 14.0593 3.77096 13.954 3.84085 13.8492L3.84301 13.8457C5.13118 11.6167 7.77396 10.0075 7.77396 10.0075H7.77525C7.93703 9.90444 8.1001 9.80522 8.26533 9.70988L8.26619 9.70901L8.29682 9.69176C8.74979 9.43292 9.21571 9.19996 9.695 8.9972C10.1212 8.80738 10.5742 8.6305 10.95 8.53905C10.95 8.53905 11.39 8.42429 11.5082 7.88288L11.5086 7.88245C11.5932 7.49419 11.874 6.9256 12.5108 6.62016C12.8106 6.46543 13.1457 6.3921 13.4827 6.40748L13.484 6.40705C13.5776 6.40405 13.6712 6.41525 13.7614 6.44027C14.5686 6.596 15.2303 7.25864 15.3265 8.1318C15.443 9.19047 14.707 10.1465 13.6549 10.2785C13.1298 10.3445 12.6544 10.2293 12.2493 9.92256C11.7946 9.73317 11.4448 9.85483 11.3188 9.91393C10.9235 10.1295 10.5423 10.3699 10.1773 10.6335C9.6712 11.0128 9.19365 11.4288 8.7485 11.8781C8.28782 12.3539 7.87205 12.8712 7.50649 13.4234L7.44911 13.5131L7.43401 13.5373C6.95046 14.3121 6.56103 15.1418 6.27397 16.0088C5.92755 17.1805 6.67906 17.6473 7.54747 17.8172C7.54747 17.8172 7.9296 17.8909 8.53348 17.8975C8.58954 17.8981 8.64752 17.8981 8.70728 17.8975C8.86297 17.8958 9.03076 17.8894 9.20838 17.8763C9.26575 17.8716 9.31709 17.8664 9.36109 17.8617C9.41062 17.8556 9.46018 17.8498 9.50974 17.8439C9.70798 17.8203 9.90621 17.7968 10.1022 17.7633C11.7933 17.4751 13.2886 16.7689 14.5655 15.6218C16.1725 14.1775 17.141 12.3777 17.4417 10.2401C17.7428 8.09901 17.3201 6.09169 16.1613 4.2634Z" fill="#FFC40C"/>
<path fill-rule="evenodd" clip-rule="evenodd" d="M8.7079 0.102084H8.51997C7.31243 0.115504 6.12867 0.387629 4.97199 0.905358C3.97237 1.35031 3.06734 1.98281 2.30592 2.76859C1.34691 3.75651 0.654935 4.87513 0.232591 6.12448L0.221806 6.15813C0.211034 6.19044 0.200961 6.22322 0.190902 6.25595C0.187264 6.26779 0.183627 6.27963 0.179959 6.29143C0.0575931 6.69989 0.00219421 7.05666 6.4001e-05 7.3432V7.37735C0.00536257 8.07838 0.33909 8.33718 0.788239 7.86519C0.806684 7.84384 0.825858 7.82248 0.845032 7.80112L0.864166 7.77978C0.868233 7.77478 0.872301 7.77003 0.876368 7.76528C0.881792 7.75894 0.887215 7.7526 0.892638 7.7457C1.63681 6.80998 2.82101 6.03 2.82101 6.03L2.82144 6.03043C3.12343 5.82034 3.43619 5.62405 3.7619 5.44157C4.13421 5.22371 4.52333 5.02354 4.88614 4.88851C4.88614 4.88851 5.2235 4.7345 5.31323 4.26513L5.31884 4.23925C5.3191 4.23642 5.31966 4.23391 5.32025 4.23124L5.32088 4.22837L5.32143 4.22544C5.38183 3.83502 5.80029 2.76083 6.98449 2.69051C7.34805 2.64186 7.7179 2.7008 8.04833 2.86005C8.61951 3.13183 9.05782 3.6754 9.14669 4.33027C9.217 4.85098 9.09276 5.34191 8.82702 5.73061C8.81184 5.7538 8.79558 5.77626 8.77827 5.79791L8.76274 5.81861C8.53438 6.11277 8.22481 6.33354 7.87232 6.45364C7.66392 6.53155 7.44414 6.57469 7.22176 6.58134H7.2209C7.08803 6.59859 6.94049 6.58134 6.79252 6.5451C6.63454 6.51408 6.48232 6.45878 6.34127 6.38117C6.11262 6.27375 5.92712 6.15252 5.85853 6.08997C5.81095 6.04587 5.75288 6.01468 5.68985 5.99937C5.58784 5.98182 5.48294 5.99426 5.38787 6.03518L5.38571 6.03604C5.34429 6.05416 5.31237 6.07487 5.28907 6.09169C5.00758 6.32639 4.73764 6.57459 4.48019 6.83543C3.8085 7.54164 3.24465 8.34276 2.9802 8.73879C2.84043 8.96312 2.70712 9.19305 2.58158 9.42946C2.46511 9.64818 2.35725 9.8695 2.25674 10.0934C2.09129 10.4667 1.94514 10.8483 1.81886 11.2366L1.80074 11.2927L1.77658 11.3703L1.75372 11.4467C0.93923 14.2379 2.406 15.8488 3.63507 14.1658C3.70237 14.0593 3.77096 13.954 3.84085 13.8492L3.84301 13.8457C5.13118 11.6167 7.77396 10.0075 7.77396 10.0075H7.77525C7.93703 9.90444 8.1001 9.80522 8.26533 9.70988L8.26619 9.70901L8.29682 9.69176C8.74979 9.43292 9.21571 9.19996 9.695 8.9972C10.1212 8.80738 10.5742 8.6305 10.95 8.53905C10.95 8.53905 11.39 8.42429 11.5082 7.88288L11.5086 7.88245C11.5932 7.49419 11.874 6.9256 12.5108 6.62016C12.8106 6.46543 13.1457 6.3921 13.4827 6.40748L13.484 6.40705C13.5776 6.40405 13.6712 6.41525 13.7614 6.44027C14.5686 6.596 15.2303 7.25864 15.3265 8.1318C15.443 9.19047 14.707 10.1465 13.6549 10.2785C13.1298 10.3445 12.6544 10.2293 12.2493 9.92256C11.7946 9.73317 11.4448 9.85483 11.3188 9.91393C10.9235 10.1295 10.5423 10.3699 10.1773 10.6335C9.6712 11.0128 9.19365 11.4288 8.7485 11.8781C8.28782 12.3539 7.87205 12.8712 7.50649 13.4234L7.44911 13.5131L7.43401 13.5373C6.95046 14.3121 6.56103 15.1418 6.27397 16.0088C5.92755 17.1805 6.67906 17.6473 7.54747 17.8172C7.54747 17.8172 7.9296 17.8909 8.53348 17.8975H8.70728C8.86297 17.8958 9.03076 17.8894 9.20838 17.8763C9.26575 17.8716 9.31709 17.8664 9.36109 17.8617C9.41062 17.8556 9.46018 17.8498 9.50974 17.8439C9.70798 17.8203 9.90621 17.7968 10.1022 17.7633C11.7933 17.4751 13.2886 16.7689 14.5655 15.6218C16.1725 14.1775 17.141 12.3777 17.4417 10.2401C17.7428 8.09901 17.3201 6.09169 16.1613 4.2634C15.5095 3.23494 14.7191 2.39284 13.7959 1.73883C12.8732 1.08439 11.8162 0.617612 10.6316 0.339356C9.98417 0.187591 9.34278 0.109132 8.7079 0.102084Z" fill="#FFC40C"/>
</svg>
