<svg width="179" height="88" viewBox="0 0 179 88" fill="none" xmlns="http://www.w3.org/2000/svg">
<path d="M77.8363 81.4083H77.8315C77.8315 81.4036 77.8315 81.4036 77.8363 81.4083C77.8363 81.4036 77.8363 81.4036 77.8363 81.4083Z" fill="#4C4C4C"/>
<path d="M79.185 84.6815C78.8989 83.5116 78.4374 82.4126 77.8343 81.4042C79.0774 81.4665 80.2695 81.7187 81.3824 82.1293C80.9123 82.9338 80.2129 83.8317 79.185 84.6815Z" fill="#4C4C4C"/>
<path d="M77.8363 81.4083H77.8315C77.8315 81.4036 77.8315 81.4036 77.8363 81.4083C77.8363 81.4036 77.8363 81.4036 77.8363 81.4083Z" fill="#4C4C4C"/>
<path d="M81.3655 82.1691C80.2498 81.7585 79.035 81.4837 77.7919 81.4213C77.7919 81.4213 77.8428 81.376 77.84 81.376C77.7494 81.2231 77.9278 80.9086 78.1146 80.8944C79.0038 80.8293 79.8675 80.6679 80.6944 80.4186C80.8133 80.3818 80.9294 80.3478 81.0455 80.3082C81.1503 80.2741 81.255 80.2373 81.3598 80.1977C81.5212 80.141 81.6798 80.0787 81.8384 80.0136C81.9942 79.9484 82.3085 79.821 82.3085 79.821C82.2263 80.2429 81.963 81.1551 81.3655 82.1691Z" fill="#4C4C4C"/>
<path d="M81.3514 80.2229C81.5129 80.1635 81.6714 80.104 81.83 80.0388C81.6714 80.104 81.51 80.1663 81.3514 80.2229Z" fill="#4C4C4C"/>
<path d="M78.106 80.9172C78.5676 80.0675 78.9301 79.1555 79.1737 78.1924C79.1906 78.1272 79.2048 78.0649 79.2218 77.9997C79.2388 77.9232 79.2557 77.8496 79.2727 77.7732C79.4398 77.0112 79.5305 76.2237 79.5445 75.4165C81.6117 77.2293 82.3055 79.8041 82.3084 79.8155C82.1554 79.8862 81.9941 79.9882 81.8355 80.0562C81.6797 80.1213 81.5184 80.1808 81.3569 80.2403C81.2522 80.28 81.1474 80.3168 81.0425 80.3508C80.9265 80.3904 80.8104 80.4273 80.6914 80.4612C79.8674 80.7077 78.9981 80.8577 78.1089 80.9201C78.1089 80.9257 78.1089 80.9172 78.106 80.9172Z" fill="#4C4C4C"/>
<path d="M69.3333 87.9897C69.2965 87.7036 69.2484 87.4176 69.1917 87.1372C69.0445 86.4091 68.8321 85.7067 68.5574 85.0325C68.3592 84.5397 68.127 84.061 67.8636 83.6021C68.8292 82.0187 69.4352 80.1946 69.574 78.2401C69.591 78.0135 69.5995 77.7868 69.6023 77.5575C69.6108 76.9314 69.5712 76.314 69.4863 75.7135C72.8504 76.2743 75.7415 78.223 77.5453 80.9508C77.6445 81.1009 77.7407 81.2482 77.8314 81.404L77.8343 81.4042C78.4375 82.4098 78.8962 83.5116 79.185 84.6815C77.5115 86.0638 74.9656 87.3213 71.1032 87.8424C70.5 87.9246 69.911 87.9699 69.3333 87.9897Z" fill="#4C4C4C"/>
<path d="M79.1625 84.6759C78.8906 83.5032 78.446 82.3956 77.857 81.3816C79.0972 81.461 80.2867 81.7272 81.3967 82.1521C80.9124 82.9508 80.2017 83.8403 79.1625 84.6759Z" fill="#4C4C4C"/>
<path d="M67.8636 83.6056C67.1671 82.3819 66.258 81.2943 65.1876 80.385C63.8057 79.2123 62.1548 78.3456 60.3368 77.8895C59.9914 77.8017 59.6403 77.7309 59.2835 77.6742C59.3316 77.4448 59.3712 77.2153 59.4024 76.9802C59.4846 76.4165 59.5269 75.8388 59.5269 75.2553C59.5269 74.802 59.5015 74.3517 59.4505 73.9126C60.2037 73.4963 60.9684 73.1564 61.7301 72.8787C63.0412 72.4028 64.3381 72.114 65.5274 71.9468C66.3288 71.8336 67.0792 71.7741 67.756 71.7485C67.9004 71.7429 68.0421 71.7373 68.1808 71.7373C68.362 72.0714 68.5263 72.4171 68.6735 72.7711C68.8689 73.2384 69.036 73.72 69.1719 74.2157C69.305 74.7057 69.4097 75.2042 69.4806 75.7169C69.5656 76.3203 69.6052 76.9349 69.5966 77.561C69.5938 77.7904 69.5853 78.017 69.5656 78.2435C69.4381 80.198 68.8292 82.0222 67.8636 83.6056Z" fill="#4C4C4C"/>
<path d="M77.5483 80.9507C75.7445 78.223 72.8532 76.2742 69.4891 75.7134C69.4184 75.2006 69.3136 74.7022 69.1805 74.2121C69.0446 73.7164 68.8774 73.2321 68.6821 72.7675C68.5348 72.4134 68.3706 72.0679 68.1893 71.7336C68.8237 71.7223 69.3788 71.7365 69.8262 71.7619C70.6162 71.8045 71.1287 71.8753 71.0721 71.864C72.1 72.0339 73.0317 72.2491 73.8841 72.4984C76.4609 73.2519 78.2676 74.3197 79.5276 75.4188C79.5163 76.2261 79.4257 77.0135 79.2643 77.7726C79.2474 77.8491 79.2303 77.9228 79.2133 77.9993C79.1992 78.0644 79.1822 78.1267 79.1652 78.1919C78.9245 79.1521 78.5478 80.0897 78.109 80.9139C78.109 80.9168 77.8428 81.404 77.84 81.4068C77.5964 81.0244 77.7946 81.3332 77.5483 80.9507Z" fill="#4C4C4C"/>
<path d="M69.3333 87.9897C69.2965 87.7036 69.2484 87.4176 69.1917 87.1372C69.0445 86.4091 68.8321 85.7067 68.5574 85.0325C68.3592 84.5397 68.127 84.061 67.8636 83.6021C67.167 82.3784 66.2582 81.2912 65.1878 80.3819C63.8059 79.2093 62.1551 78.3425 60.3371 77.8864C59.9916 77.7986 59.6404 77.7278 59.2836 77.6711C59.1788 78.1753 59.0457 78.671 58.8787 79.1497C58.6097 79.9343 58.2586 80.6821 57.8394 81.3846C58.2699 82.1012 58.6238 82.8632 58.8957 83.6649C58.8957 83.6649 58.8957 83.6649 58.8957 83.6676C59.0769 84.2059 59.2242 84.7582 59.3289 85.3276C60.6372 86.1037 62.2796 86.8826 64.2024 87.3982C64.933 87.5935 65.7032 87.7493 66.5103 87.8542C66.734 87.8853 66.9634 87.908 67.1926 87.9278C67.8836 87.9929 68.597 88.0152 69.3333 87.9897Z" fill="#4C4C4C"/>
<path d="M54.614 77.8466C52.7621 76.4898 50.508 75.6485 48.0641 75.5324C47.7753 74.9914 47.6281 74.6203 47.5573 74.3314C47.5375 74.2577 47.5233 74.1926 47.5148 74.1275C47.4185 73.5467 47.5913 73.3655 47.6309 73.323C47.8603 73.051 48.2058 72.9406 48.6277 72.9434C49.3328 72.952 50.2531 73.2833 51.1961 73.7507C52.9348 74.609 54.7613 75.9177 55.5032 76.4727C55.724 76.6371 55.8487 76.7334 55.8487 76.7334C56.953 75.5324 58.1848 74.6118 59.4562 73.9093C59.5072 74.3513 59.5328 74.7988 59.5328 75.252C59.5328 75.8383 59.4903 76.4161 59.4081 76.977C59.3741 77.2093 59.3344 77.4415 59.2892 77.6709C58.7256 77.5804 58.148 77.5321 57.5618 77.5236C56.9219 77.5151 56.296 77.5548 55.6844 77.6426C55.3191 77.6965 54.9623 77.7645 54.614 77.8466Z" fill="#4C4C4C"/>
<path d="M57.8394 81.3875C57.7318 81.2034 57.6157 81.0221 57.4939 80.8436C57.0748 80.2233 56.599 79.6427 56.0724 79.1101C55.6221 78.6513 55.1322 78.2292 54.6111 77.8496C54.9595 77.7676 55.3163 77.6996 55.6759 77.6513C56.2876 77.5636 56.9162 77.524 57.5533 77.5324C58.1395 77.5409 58.7172 77.5919 59.2807 77.6798C59.176 78.1839 59.0429 78.6796 58.8757 79.1583C58.6097 79.9401 58.2613 80.6878 57.8394 81.3875Z" fill="#4C4C4C"/>
<path d="M47.7103 86.3105C47.4922 86.0641 47.3846 85.5344 47.4724 85.0416C47.5148 84.8093 47.5828 84.5827 47.7131 84.2994C47.9396 83.8037 48.3559 83.1295 49.1318 81.9513C49.8907 80.906 50.2871 80.3565 50.3239 79.807C50.3664 79.198 49.9671 78.5918 49.1318 77.3144C48.6504 76.5637 48.3077 75.9887 48.0671 75.5327C50.5108 75.646 52.7678 76.4873 54.6169 77.8469C55.1379 78.2265 55.625 78.6484 56.0781 79.1073C56.6047 79.6398 57.0805 80.2206 57.4996 80.8409C57.6186 81.0194 57.7346 81.2006 57.8451 81.3847C58.2755 82.1013 58.6294 82.8633 58.9013 83.6649C58.9013 83.6649 58.9013 83.6649 58.9013 83.6677C59.0825 84.206 59.2298 84.7583 59.3345 85.3276C58.015 84.543 57.038 83.764 56.4603 83.2599C56.4009 83.2061 56.3443 83.1579 56.2933 83.1126C56.0243 82.8718 55.8741 82.7216 55.8544 82.7047C53.184 85.0926 51.1367 86.1632 49.7519 86.5202C48.6306 86.8119 47.9453 86.6363 47.7103 86.3105Z" fill="#4C4C4C"/>
<path d="M87.5048 70.3938C87.7908 71.5637 88.2524 72.6628 88.8555 73.6711C87.6124 73.6089 86.4202 73.3568 85.3073 72.946C85.7775 72.1416 86.4769 71.2437 87.5048 70.3938Z" fill="#4C4C4C"/>
<path d="M85.3243 72.9094C86.44 73.3202 87.6549 73.595 88.898 73.6572C88.898 73.6572 88.847 73.7026 88.8498 73.7026C88.9405 73.8556 88.762 74.17 88.5751 74.1841C87.686 74.2492 86.8223 74.4107 85.9955 74.66C85.8765 74.6968 85.7604 74.7308 85.6443 74.7705C85.5395 74.8044 85.4347 74.8413 85.33 74.881C85.1685 74.9376 85.01 74.9999 84.8514 75.0651C84.6957 75.1302 84.3814 75.2577 84.3814 75.2577C84.4634 74.8356 84.7269 73.9235 85.3243 72.9094Z" fill="#4C4C4C"/>
<path d="M85.3384 74.8527C85.1771 74.9122 85.0185 74.9717 84.86 75.0368C85.0185 74.9717 85.1798 74.9093 85.3384 74.8527Z" fill="#4C4C4C"/>
<path d="M88.5836 74.1591C88.122 75.0088 87.7596 75.921 87.5161 76.884C87.499 76.9492 87.4849 77.0114 87.468 77.0766C87.451 77.1531 87.4339 77.2267 87.4169 77.3032C87.2499 78.0652 87.1593 78.8526 87.1451 79.6599C85.0779 77.847 84.3841 75.2722 84.3814 75.2609C84.5342 75.1901 84.6957 75.0881 84.8542 75.0201C85.01 74.955 85.1714 74.8955 85.3328 74.836C85.4376 74.7964 85.5424 74.7596 85.6471 74.7256C85.7632 74.686 85.8794 74.6491 85.9983 74.6151C86.8223 74.3687 87.6917 74.2186 88.5808 74.1562C88.5808 74.1534 88.5808 74.1591 88.5836 74.1591Z" fill="#4C4C4C"/>
<path d="M97.3563 67.0858C97.3932 67.3719 97.4413 67.658 97.498 67.9384C97.6453 68.6664 97.8577 69.3689 98.1323 70.043C98.3305 70.5359 98.5627 71.0146 98.826 71.4735C97.8604 73.0569 97.2544 74.881 97.1157 76.8354C97.0987 77.0621 97.0902 77.2886 97.0874 77.5181C97.0788 78.144 97.1185 78.7616 97.2035 79.3621C93.8394 78.8012 90.9481 76.8524 89.1443 74.1247C89.0453 73.9745 88.9489 73.8272 88.8583 73.6714L88.8555 73.6711C88.2524 72.6656 87.7936 71.5636 87.5048 70.3938C89.1783 69.0115 91.7241 67.7543 95.5866 67.2331C96.1897 67.1538 96.7787 67.1057 97.3563 67.0858Z" fill="#4C4C4C"/>
<path d="M87.5048 70.3938C87.7908 71.5637 88.2524 72.6628 88.8555 73.6711C87.6124 73.6089 86.4202 73.3568 85.3073 72.946C85.7775 72.1416 86.4769 71.2437 87.5048 70.3938Z" fill="#4C4C4C"/>
<path d="M98.826 71.4735C99.5226 72.6971 100.432 73.7844 101.502 74.6937C102.884 75.8663 104.535 76.7331 106.353 77.1891C106.698 77.2769 107.049 77.3478 107.406 77.4044C107.358 77.6338 107.319 77.8633 107.287 78.0984C107.205 78.6621 107.163 79.2399 107.163 79.8234C107.163 80.2767 107.188 80.727 107.239 81.166C106.486 81.5824 105.721 81.9223 104.96 82.1999C103.649 82.6758 102.352 82.9647 101.162 83.1318C100.361 83.2451 99.6105 83.3046 98.9337 83.3301C98.7893 83.3358 98.6477 83.3414 98.509 83.3414C98.3277 83.0072 98.1635 82.6616 98.0162 82.3076C97.8209 81.8402 97.6537 81.3586 97.5178 80.8629C97.3848 80.373 97.2799 79.8744 97.2092 79.3617C97.1242 78.7584 97.0846 78.1437 97.0931 77.5177C97.0959 77.2883 97.1044 77.0616 97.1242 76.8351C97.2517 74.8807 97.8604 73.0541 98.826 71.4735Z" fill="#4C4C4C"/>
<path d="M89.1416 74.1246C90.9453 76.8524 93.8365 78.8011 97.2006 79.362C97.2715 79.8747 97.3762 80.3732 97.5093 80.8632C97.6453 81.3589 97.8123 81.8433 98.0077 82.3078C98.1549 82.6619 98.3192 83.0076 98.5004 83.3417C97.8661 83.3531 97.3111 83.3389 96.8637 83.3134C96.0736 83.2709 95.5866 83.2058 95.6177 83.2115C94.5898 83.0415 93.6582 82.8262 92.8058 82.577C90.2288 81.8235 88.4223 80.7556 87.1621 79.6566C87.1734 78.8493 87.264 78.0619 87.4255 77.3027C87.4425 77.2263 87.4594 77.1527 87.4764 77.0761C87.4906 77.011 87.5076 76.9487 87.5246 76.8835C87.7652 75.9233 88.1419 74.9857 88.5808 74.1614C88.5808 74.1587 88.847 73.6714 88.8499 73.6686C89.0933 74.051 88.8951 73.7422 89.1416 74.1246Z" fill="#4C4C4C"/>
<path d="M97.3563 67.0858C97.3932 67.3719 97.4413 67.658 97.498 67.9384C97.6453 68.6664 97.8577 69.3689 98.1323 70.043C98.3305 70.5359 98.5627 71.0146 98.826 71.4735C99.5226 72.6971 100.432 73.7844 101.502 74.6937C102.884 75.8663 104.535 76.7331 106.353 77.1891C106.698 77.2769 107.049 77.3478 107.406 77.4044C107.511 76.9001 107.644 76.4049 107.811 75.9263C108.08 75.1416 108.431 74.3938 108.85 73.6914C108.42 72.9747 108.066 72.2128 107.794 71.4111C107.794 71.4111 107.794 71.4111 107.794 71.4083C107.613 70.8701 107.466 70.3177 107.361 69.7484C106.053 68.9723 104.41 68.1934 102.487 67.6778C101.757 67.4824 100.987 67.3266 100.179 67.2218C99.9558 67.1906 99.7265 67.1679 99.4971 67.1482C98.8061 67.083 98.0925 67.0604 97.3563 67.0858Z" fill="#4C4C4C"/>
<path d="M112.076 77.2322C113.927 78.5889 116.182 79.4303 118.625 79.5464C118.914 80.0874 119.061 80.4585 119.133 80.7473C119.153 80.8211 119.167 80.8862 119.174 80.9513C119.271 81.532 119.099 81.7133 119.059 81.7558C118.83 82.0277 118.484 82.1381 118.062 82.1354C117.357 82.1268 116.437 81.7954 115.493 81.3281C113.755 80.4698 111.929 79.1611 111.186 78.6059C110.966 78.4416 110.841 78.3453 110.841 78.3453C109.737 79.5464 108.505 80.4669 107.233 81.1694C107.182 80.7275 107.157 80.28 107.157 79.8268C107.157 79.2404 107.199 78.6627 107.282 78.1017C107.315 77.8695 107.355 77.6372 107.4 77.4078C107.964 77.4984 108.542 77.5465 109.128 77.555C109.768 77.5636 110.394 77.524 111.005 77.4361C111.371 77.3795 111.728 77.3143 112.076 77.2322Z" fill="#4C4C4C"/>
<path d="M108.85 73.688C108.958 73.8721 109.074 74.0533 109.196 74.2318C109.615 74.8521 110.091 75.4328 110.618 75.9654C111.068 76.4242 111.558 76.8462 112.078 77.2258C111.73 77.308 111.373 77.376 111.014 77.4241C110.402 77.5119 109.773 77.5515 109.136 77.543C108.55 77.5345 107.972 77.4835 107.409 77.3957C107.514 76.8915 107.647 76.3958 107.814 75.9171C108.08 75.1383 108.428 74.3904 108.85 73.688Z" fill="#4C4C4C"/>
<path d="M118.98 68.7653C119.198 69.0118 119.305 69.5414 119.217 70.0343C119.174 70.2666 119.107 70.4931 118.977 70.7764C118.751 71.2721 118.334 71.9463 117.558 73.1246C116.799 74.1698 116.403 74.7194 116.365 75.2688C116.324 75.8779 116.722 76.484 117.558 77.7615C118.039 78.5121 118.382 79.0871 118.623 79.5431C116.179 79.4298 113.922 78.5886 112.073 77.229C111.552 76.8494 111.065 76.4273 110.612 75.9685C110.085 75.436 109.609 74.8553 109.19 74.235C109.071 74.0565 108.955 73.8753 108.845 73.6911C108.414 72.9745 108.06 72.2126 107.789 71.4109C107.789 71.4109 107.789 71.4109 107.789 71.408C107.607 70.8699 107.46 70.3175 107.355 69.7482C108.675 70.5328 109.652 71.3117 110.23 71.8159C110.289 71.8698 110.345 71.918 110.397 71.9632C110.666 72.204 110.815 72.3542 110.835 72.3711C113.506 69.9833 115.553 68.9126 116.938 68.5557C118.059 68.264 118.745 68.4424 118.98 68.7653Z" fill="#4C4C4C"/>
<path d="M10.5191 36.7654H7.65176V40.5314C7.65176 41.6487 7.8264 42.3758 8.17569 42.709C8.52497 43.0421 9.30477 43.1031 10.5232 42.8837V47.121C9.48753 47.4338 8.21224 47.5922 6.69732 47.5922C4.96309 47.5922 3.7406 47.1738 3.02172 46.3409C2.30284 45.5081 1.93731 44.2284 1.917 42.5018V36.7654H0V32.0568H1.91294V27.3483H7.6477V32.0568H10.5151V36.7654H10.5191Z" fill="#4C4C4C"/>
<path d="M31.3259 39.5888C31.3259 39.9016 31.2853 40.3729 31.208 41.0026H21.4688C21.5865 41.5917 21.9684 42.0507 22.6059 42.3839C23.2436 42.717 24.0194 42.8835 24.9372 42.8835C25.6561 42.8835 26.3424 42.8064 27.0004 42.6479C27.6584 42.4894 28.1376 42.3351 28.4341 42.1766L28.8809 41.9411L30.343 46.1783C30.1846 46.2758 29.949 46.4058 29.6404 46.5602C29.3317 46.7186 28.6575 46.9299 27.6218 47.194C26.5862 47.4581 25.5099 47.5921 24.393 47.5921C21.4647 47.5921 19.2593 46.8405 17.7728 45.3414C16.2904 43.8423 15.5472 41.9248 15.5472 39.5888C15.5472 37.2527 16.2457 35.3393 17.6389 33.8361C19.0319 32.337 21.0463 31.5855 23.6741 31.5855C26.1231 31.5855 28.0117 32.2883 29.3358 33.6899C30.6639 35.0915 31.3259 37.0577 31.3259 39.5888ZM21.4688 38.1751H25.4733C25.4733 37.5087 25.2987 36.9481 24.9494 36.4971C24.6001 36.0462 24.0965 35.8187 23.4386 35.8187C22.8618 35.8187 22.3866 36.0543 22.0211 36.5256C21.6515 37.0009 21.4688 37.5494 21.4688 38.1751Z" fill="#4C4C4C"/>
<path d="M50.7396 32.0567V47.1209H45.0049V37.2366H40.7038V47.1209H34.965V32.0567H50.7396Z" fill="#4C4C4C"/>
<path d="M71.7372 32.0567V47.1209H65.9983V37.2366H63.3706V41.5633C63.3706 43.367 62.9319 44.8254 62.0547 45.9305C61.1774 47.0396 59.963 47.5921 58.4075 47.5921C57.3109 47.5921 56.1778 47.4337 54.9999 47.1209V42.8835C55.9178 43.0989 56.6245 43.0501 57.12 42.7373C57.6196 42.4245 57.8673 41.8436 57.8673 41.0026V32.0567H71.7372Z" fill="#4C4C4C"/>
<path d="M76.7856 47.1209V32.0567H82.5245V47.1209H76.7856Z" fill="#4C4C4C"/>
<path d="M113.777 47.1209L112.672 40.2957L110.341 47.1209H105.979L103.648 40.2957L102.543 47.1209H96.9263L99.6434 32.0567H105.5L108.16 39.9706L110.821 32.0567H116.677L119.394 47.1209H113.777Z" fill="#4C4C4C"/>
<path d="M130.417 31.5855C132.927 31.5855 134.99 32.3615 136.602 33.9093C138.214 35.4572 139.023 37.3503 139.023 39.5888C139.023 41.8436 138.214 43.7407 136.602 45.2805C134.99 46.8202 132.927 47.5881 130.417 47.5881C127.805 47.5881 125.722 46.8243 124.158 45.2927C122.594 43.7611 121.811 41.8598 121.811 39.5847C121.811 37.3097 122.586 35.4084 124.141 33.8768C125.698 32.3533 127.79 31.5855 130.417 31.5855ZM128.386 41.9126C128.943 42.5585 129.621 42.8835 130.417 42.8835C131.212 42.8835 131.891 42.5585 132.448 41.9126C133.004 41.2667 133.285 40.4907 133.285 39.5888C133.285 38.6869 133.004 37.911 132.448 37.265C131.891 36.619 131.212 36.294 130.417 36.294C129.621 36.294 128.943 36.619 128.386 37.265C127.83 37.911 127.549 38.6869 127.549 39.5888C127.549 40.4907 127.83 41.2667 128.386 41.9126Z" fill="#4C4C4C"/>
<path d="M152.918 31.5855C154.907 31.5855 156.601 32.3654 157.999 33.9256C159.391 35.4856 160.09 37.3747 160.09 39.5888C160.09 41.807 159.391 43.692 157.999 45.2521C156.605 46.8121 154.912 47.5921 152.918 47.5921C151.184 47.5921 149.749 46.9259 148.616 45.5933V54.6529H142.877V32.0567H148.616V33.5883C149.749 32.2517 151.184 31.5855 152.918 31.5855ZM149.453 41.9126C150.01 42.5585 150.687 42.8835 151.483 42.8835C152.28 42.8835 152.958 42.5585 153.515 41.9126C154.071 41.2667 154.351 40.4907 154.351 39.5888C154.351 38.6869 154.071 37.911 153.515 37.265C152.958 36.619 152.28 36.294 151.483 36.294C150.687 36.294 150.01 36.619 149.453 37.265C148.896 37.911 148.616 38.6869 148.616 39.5888C148.616 40.4907 148.893 41.2667 149.453 41.9126Z" fill="#4C4C4C"/>
<path d="M171.352 32.0567H179V47.1209H173.261V42.648L169.918 47.1209H163.225L167.588 41.7948C166.572 41.5185 165.752 40.9823 165.123 40.1779C164.492 39.3735 164.18 38.431 164.18 37.3543C164.18 35.6277 164.81 34.3155 166.065 33.4137C167.319 32.5077 169.083 32.0567 171.352 32.0567ZM171.56 36.2941C171.121 36.2941 170.74 36.4159 170.41 36.6597C170.081 36.9034 169.918 37.2529 169.918 37.7037C169.918 38.1547 170.081 38.504 170.41 38.7479C170.74 38.9916 171.121 39.1175 171.56 39.1175H173.261V36.2941H171.56Z" fill="#4C4C4C"/>
<path d="M13.9145 29.4893C13.4433 29.4893 12.9722 29.3879 12.5295 29.1888C11.7253 28.8231 11.1161 28.1731 10.8115 27.3565C10.5069 26.54 10.5434 25.6543 10.913 24.8661C11.2826 24.0739 11.9447 23.4768 12.7731 23.1761C13.6017 22.8754 14.5034 22.912 15.3034 23.2736C16.1076 23.6393 16.7168 24.2892 17.0215 25.1059C17.326 25.9224 17.2895 26.808 16.9199 27.5962C16.5504 28.3884 15.8883 28.9856 15.0597 29.2863C14.6861 29.4204 14.3002 29.4893 13.9145 29.4893ZM13.9185 24.8499C13.3905 24.8499 12.8828 25.1464 12.6473 25.6503C12.4888 25.9833 12.4766 26.3572 12.6067 26.7025C12.7366 27.0478 12.9924 27.324 13.3336 27.4784C13.6708 27.6328 14.0525 27.649 14.4018 27.519C14.7511 27.3931 15.0313 27.1371 15.1897 26.8041C15.3481 26.4709 15.3603 26.0972 15.2304 25.7517C15.1004 25.4064 14.8445 25.1302 14.5034 24.9759C14.3124 24.8905 14.1134 24.8499 13.9185 24.8499Z" fill="#4C4C4C"/>
<path d="M90.1722 43.2698C89.7011 43.2698 89.23 43.1682 88.7872 42.9691C87.983 42.6036 87.3738 41.9535 87.0692 41.1369C86.7646 40.3203 86.8012 39.4347 87.1708 38.6465C87.5403 37.8584 88.2024 37.2572 89.0309 36.9565C89.8594 36.6559 90.7611 36.6925 91.5611 37.054C92.3653 37.4197 92.9746 38.0696 93.2792 38.8863C93.5837 39.7028 93.5473 40.5885 93.1776 41.3766C92.8081 42.1647 92.146 42.766 91.3174 43.0667C90.9439 43.2007 90.558 43.2698 90.1722 43.2698ZM90.1762 38.6303C89.6483 38.6303 89.1406 38.9269 88.905 39.4306C88.7465 39.7637 88.7345 40.1376 88.8644 40.4829C88.9944 40.8282 89.2502 41.1044 89.5914 41.2588C89.9285 41.4132 90.3102 41.4294 90.6595 41.2994C91.0089 41.1735 91.2891 40.9175 91.4475 40.5844C91.6058 40.2513 91.618 39.8775 91.4881 39.5322C91.3581 39.1868 91.1022 38.9106 90.7611 38.7562C90.5702 38.675 90.3712 38.6303 90.1762 38.6303Z" fill="#4C4C4C"/>
<path d="M11.2299 6.5154C10.7588 6.5154 10.2876 6.41383 9.84494 6.21477C9.04077 5.84913 8.43156 5.19911 8.12695 4.38253C7.82234 3.56596 7.8589 2.68031 8.22849 1.89217C8.59808 1.10401 9.2601 0.502751 10.0886 0.202118C10.9172 -0.0985143 11.8188 -0.0619508 12.619 0.299621C13.423 0.665255 14.0323 1.31527 14.3369 2.13186C14.6415 2.94844 14.605 3.83409 14.2353 4.62223C13.8658 5.41037 13.2037 6.01164 12.3753 6.31227C12.0016 6.4504 11.6158 6.5154 11.2299 6.5154ZM11.234 1.87997C10.706 1.87997 10.1983 2.17655 9.96272 2.68031C9.80432 3.01344 9.79215 3.3872 9.92211 3.73251C10.0521 4.07784 10.308 4.3541 10.6491 4.50848C10.9862 4.66285 11.368 4.6791 11.7173 4.5491C12.0666 4.42316 12.3468 4.16721 12.5052 3.83409C12.6635 3.50095 12.6757 3.12719 12.5458 2.78187C12.4117 2.43248 12.1559 2.1603 11.8148 2.00591C11.628 1.9206 11.4289 1.87997 11.234 1.87997Z" fill="#4C4C4C"/>
<path d="M87.6297 61.1776C87.1586 61.1776 86.6875 61.076 86.2448 60.8769C85.4407 60.5114 84.8314 59.8613 84.5268 59.0448C84.2221 58.2281 84.2587 57.3425 84.6283 56.5544C84.9979 55.7662 85.66 55.1649 86.4885 54.8643C87.317 54.5637 88.2187 54.6003 89.0188 54.9618C89.823 55.3275 90.4321 55.9775 90.7368 56.794C91.0414 57.6107 91.0048 58.4963 90.6352 59.2844C90.2656 60.0725 89.6036 60.6739 88.7751 60.9745C88.4014 61.1126 88.0156 61.1776 87.6297 61.1776ZM87.6338 56.5422C87.1058 56.5422 86.5981 56.8388 86.3626 57.3425C86.2042 57.6757 86.192 58.0494 86.3219 58.3947C86.452 58.74 86.7078 59.0164 87.0489 59.1707C87.386 59.3251 87.7679 59.3413 88.1171 59.2113C88.4664 59.0853 88.7467 58.8294 88.905 58.4963C89.0635 58.1631 89.0757 57.7894 88.9457 57.4441C88.8157 57.0988 88.5599 56.8225 88.2187 56.6681C88.0278 56.5828 87.8287 56.5422 87.6338 56.5422Z" fill="#4C4C4C"/>
<path d="M81.0705 67.869C79.8156 67.869 78.7961 66.8493 78.7961 65.5939C78.7961 64.3385 79.8156 63.3188 81.0705 63.3188C82.3256 63.3188 83.345 64.3385 83.345 65.5939C83.345 66.8493 82.3256 67.869 81.0705 67.869ZM81.0705 64.5336C80.4858 64.5336 80.0106 65.009 80.0106 65.5939C80.0106 66.179 80.4858 66.6543 81.0705 66.6543C81.6554 66.6543 82.1306 66.179 82.1306 65.5939C82.1306 65.009 81.6554 64.5336 81.0705 64.5336Z" fill="#4C4C4C"/>
<path d="M81.5009 53.9341C80.2459 53.9341 79.2265 52.9144 79.2265 51.6592C79.2265 50.4038 80.2459 49.3841 81.5009 49.3841C82.7559 49.3841 83.7753 50.4038 83.7753 51.6592C83.7753 52.9144 82.7559 53.9341 81.5009 53.9341ZM81.5009 50.5988C80.916 50.5988 80.4409 51.0741 80.4409 51.6592C80.4409 52.2441 80.916 52.7194 81.5009 52.7194C82.0858 52.7194 82.561 52.2441 82.561 51.6592C82.561 51.0741 82.0858 50.5988 81.5009 50.5988Z" fill="#4C4C4C"/>
<path d="M13.9267 13.109C12.6758 13.109 11.6564 14.1327 11.6564 15.384C11.6564 16.6394 12.6758 17.6591 13.9267 17.6591C15.1817 17.6591 16.2011 16.6394 16.2011 15.384C16.2011 14.1327 15.1817 13.109 13.9267 13.109ZM13.9267 16.4444C13.3459 16.4444 12.8708 15.9691 12.8708 15.384C12.8708 14.8031 13.3459 14.3278 13.9267 14.3278C14.5116 14.3278 14.9868 14.8031 14.9868 15.384C14.9868 15.9691 14.5116 16.4444 13.9267 16.4444Z" fill="#4C4C4C"/>
<path d="M20.6729 12.7313C19.4179 12.7313 18.3985 11.7114 18.3985 10.4561C18.3985 9.20081 19.4179 8.18109 20.6729 8.18109C21.9278 8.18109 22.9473 9.20081 22.9473 10.4561C22.9473 11.7114 21.9278 12.7313 20.6729 12.7313ZM20.6729 9.39988C20.088 9.39988 19.6128 9.8752 19.6128 10.4602C19.6128 11.0452 20.088 11.5205 20.6729 11.5205C21.2577 11.5205 21.7329 11.0452 21.7329 10.4602C21.7329 9.8752 21.2577 9.39988 20.6729 9.39988Z" fill="#4C4C4C"/>
</svg>
