<svg width="230" height="39" viewBox="0 0 230 39" fill="none" xmlns="http://www.w3.org/2000/svg">
<path fill-rule="evenodd" clip-rule="evenodd" d="M23.5841 35.746C22.4969 36.7403 21.1194 37.2428 19.7412 37.2451C19.6638 37.2452 19.5864 37.2438 19.509 37.2407C18.2675 37.1921 17.0387 36.7365 16.0349 35.8679L16.0342 35.8673L15.9831 35.8229L15.848 35.7053C15.7313 35.6035 15.5627 35.4559 15.3492 35.2679C14.9223 34.892 14.3154 34.3538 13.5862 33.6969C13.0703 33.2321 12.4909 32.7058 11.8691 32.1339C11.6961 31.9747 11.5197 31.812 11.3406 31.6461C10.3488 30.7278 9.27037 29.7116 8.18212 28.6554C8.04056 28.518 7.89277 28.3753 7.73986 28.2277C7.31673 27.8191 6.85437 27.3727 6.37606 26.8957C5.75706 26.2783 5.11136 25.6097 4.48938 24.9055C4.05198 24.4103 3.62632 23.8975 3.22993 23.3726C2.31264 22.1579 1.388 20.6737 0.76451 18.9318C0.659992 18.6397 0.563936 18.3405 0.477797 18.034C0.179403 16.9725 0 15.8246 0 14.5928C0 13.7216 0.0672872 12.8829 0.195632 12.0795C0.403174 10.7803 0.770376 9.5732 1.27089 8.46939C2.87493 4.93193 5.8482 2.4552 9.32362 1.40742L9.37194 1.39296C9.55779 1.33771 9.74507 1.28654 9.93363 1.23951C13.102 0.449236 16.5893 0.854227 19.5819 2.52375C19.6107 2.53986 19.6396 2.55608 19.6683 2.57241C19.7399 2.61306 19.8112 2.65444 19.8822 2.69654C22.7852 1.17636 26.1471 0.826607 29.0963 1.47431C29.3094 1.5211 29.5213 1.57319 29.7318 1.63052L29.7876 1.64584C33.2273 2.59879 36.2929 4.95408 37.9484 8.48717C38.4588 9.57631 38.8351 10.7774 39.0471 12.0838C39.1765 12.8814 39.2446 13.7182 39.2446 14.5928C39.2446 15.8354 39.0253 16.9854 38.6814 18.0307C38.5795 18.3403 38.4667 18.6408 38.3454 18.9318C37.656 20.5856 36.6932 21.9321 35.9097 22.9138C35.4648 23.4712 34.9149 24.0936 34.3576 24.7011C33.7925 25.317 33.2196 25.9178 32.7408 26.4198L32.5064 26.6658C32.2162 26.9705 31.9733 27.2273 31.8066 27.4125C30.4347 28.936 29.0776 30.3568 27.8761 31.5756C27.6999 31.7544 27.527 31.9289 27.3578 32.0987C26.9281 32.5302 26.5229 32.9316 26.1495 33.2978C25.3858 34.0468 24.7488 34.6548 24.299 35.0791C24.0739 35.2913 23.8953 35.458 23.7706 35.5737C23.7083 35.6315 23.6186 35.7142 23.5841 35.746ZM19.7412 31.4676C19.7412 31.4676 15.9778 28.2111 12.1302 24.4767C11.9872 24.3379 11.8433 24.1987 11.6997 24.0597L11.696 24.0562C8.74152 21.1975 5.70831 18.2626 5.70831 14.5928C5.70831 8.44935 10.8623 5.68287 15.2142 6.92326C16.9927 7.43017 18.6372 8.60628 19.7412 10.4946C20.7801 8.68961 22.5134 7.56743 24.4067 7.14046C28.5823 6.19882 33.5363 8.63854 33.5363 14.5928C33.5363 17.2785 31.1791 19.738 28.9952 22.0168C28.509 22.524 28.0312 23.0225 27.5902 23.5124C23.6282 27.9125 19.7412 31.4676 19.7412 31.4676Z" fill="#4C4C4C"/>
<path fill-rule="evenodd" clip-rule="evenodd" d="M89.6649 18.146C89.299 18.6285 88.8656 19.0113 88.3648 19.2943C87.7966 19.6154 87.1337 19.776 86.3761 19.776C85.5791 19.776 84.8688 19.6114 84.2454 19.2823C83.6299 18.9531 83.109 18.4916 82.6829 17.8975C82.2646 17.3035 81.945 16.6051 81.724 15.8024C81.5031 14.9996 81.3926 14.1246 81.3926 13.1774V12.9245C81.3926 11.9291 81.5031 11.026 81.724 10.2152C81.945 9.39643 82.2685 8.69402 82.6947 8.10802C83.1208 7.52201 83.6456 7.06846 84.2691 6.74736C84.8925 6.42626 85.6028 6.26571 86.3998 6.26571C87.1495 6.26571 87.8045 6.42626 88.3648 6.74736C88.7878 6.98638 89.1626 7.30101 89.4894 7.69126V1.03982H92.9223V19.5351H89.8327L89.6649 18.146ZM89.4894 10.3933C89.4052 10.2138 89.3066 10.0501 89.1935 9.90216C88.9804 9.61317 88.7121 9.3884 88.3885 9.22785C88.0728 9.0673 87.698 8.98703 87.2639 8.98703C86.822 8.98703 86.4432 9.09138 86.1275 9.3001C85.8119 9.50078 85.5554 9.77773 85.3581 10.1309C85.1687 10.4842 85.0267 10.9016 84.932 11.3832C84.8452 11.8568 84.8018 12.3706 84.8018 12.9245V13.1774C84.8018 13.7152 84.8412 14.2169 84.9201 14.6825C85.0069 15.1481 85.145 15.5615 85.3344 15.9228C85.5317 16.276 85.7843 16.5529 86.092 16.7536C86.4077 16.9463 86.7905 17.0426 87.2403 17.0426C87.8242 17.0426 88.3056 16.9101 88.6844 16.6452C89.027 16.3984 89.2953 16.0696 89.4894 15.6587V10.3933Z" fill="#4C4C4C"/>
<path d="M52.4382 2.00312L56.8654 14.8752L61.2926 2.00312H65.9329V19.5351H62.3816V14.5501L62.735 6.40774L58.0728 19.5351H55.6579L50.9957 6.40773L51.3491 14.5501V19.5351H47.8097V2.00312H52.4382Z" fill="#4C4C4C"/>
<path fill-rule="evenodd" clip-rule="evenodd" d="M74.7281 19.776C73.7337 19.776 72.842 19.6154 72.0528 19.2943C71.2637 18.9652 70.5929 18.5116 70.0405 17.9337C69.4959 17.3557 69.0777 16.6854 68.7857 15.9228C68.4937 15.1521 68.3477 14.3333 68.3477 13.4664V12.9847C68.3477 11.9973 68.4858 11.0942 68.762 10.2754C69.0382 9.45663 69.4328 8.7462 69.9458 8.14414C70.4666 7.54208 71.0979 7.0805 71.8397 6.7594C72.5816 6.43028 73.4181 6.26571 74.3493 6.26571C75.2568 6.26571 76.0618 6.41823 76.7641 6.72328C77.4665 7.02832 78.0544 7.46181 78.5279 8.02373C79.0093 8.58565 79.3723 9.25996 79.617 10.0467C79.8616 10.8253 79.9839 11.6923 79.9839 12.6476V14.0925H71.8051C71.8395 14.3793 71.8984 14.6522 71.9818 14.9113C72.1317 15.3528 72.3409 15.7341 72.6092 16.0552C72.8854 16.3763 73.2168 16.6252 73.6035 16.8018C73.9981 16.9784 74.444 17.0667 74.9412 17.0667C75.5567 17.0667 76.1289 16.9463 76.6576 16.7054C77.1942 16.4566 77.6559 16.0833 78.0426 15.5856L79.6998 17.4159C79.4315 17.8092 79.0645 18.1865 78.5989 18.5478C78.1412 18.909 77.5888 19.206 76.9417 19.4388C76.2946 19.6636 75.5567 19.776 74.7281 19.776ZM71.9108 11.3953C71.8862 11.5205 71.8647 11.6489 71.8465 11.7806H76.6339V11.5157C76.6339 11.034 76.5471 10.6046 76.3735 10.2273C76.2078 9.84195 75.9552 9.53691 75.6159 9.31214C75.2766 9.08737 74.8425 8.97499 74.3138 8.97499C73.864 8.97499 73.4773 9.07533 73.1537 9.27602C72.8301 9.4767 72.5658 9.75766 72.3606 10.1189C72.1633 10.4801 72.0134 10.9056 71.9108 11.3953Z" fill="#4C4C4C"/>
<path d="M102.309 10.6487V13.37H95.6212V10.6487H102.309Z" fill="#4C4C4C"/>
<path d="M109.992 2.00312H105.363V19.5351H108.903V14.5501L108.549 6.40772L113.212 19.5351H115.626L120.289 6.40774L119.935 14.5501V19.5351H123.487V2.00312H118.846L114.419 14.8752L109.992 2.00312Z" fill="#4C4C4C"/>
<path fill-rule="evenodd" clip-rule="evenodd" d="M133.039 18.7284C133.182 18.5933 133.314 18.4544 133.435 18.3118C133.521 18.7969 133.642 19.2047 133.797 19.5351H137.242V19.3304C137.076 18.9933 136.95 18.5999 136.863 18.1504C136.776 17.6928 136.733 17.1068 136.733 16.3924V10.8173C136.733 9.80583 136.508 8.96294 136.058 8.28864C135.616 7.61433 135.008 7.1086 134.235 6.77144C133.462 6.43429 132.578 6.26571 131.583 6.26571C130.755 6.26571 130.005 6.37408 129.334 6.59083C128.671 6.80757 128.099 7.1086 127.618 7.49392C127.136 7.87121 126.769 8.3087 126.517 8.80641C126.264 9.30411 126.138 9.82991 126.138 10.3838H129.547C129.547 10.0547 129.622 9.76971 129.772 9.52888C129.922 9.28003 130.135 9.09138 130.411 8.96294C130.688 8.82648 131.015 8.75824 131.394 8.75824C131.836 8.75824 132.195 8.84253 132.471 9.01111C132.755 9.17969 132.964 9.4165 133.099 9.72154C133.233 10.0186 133.3 10.3758 133.3 10.7932V11.6H131.773C130.794 11.6 129.934 11.6963 129.192 11.889C128.45 12.0736 127.831 12.3505 127.334 12.7198C126.844 13.081 126.474 13.5266 126.221 14.0564C125.968 14.5862 125.842 15.1923 125.842 15.8746C125.842 16.6292 126.032 17.3035 126.41 17.8975C126.797 18.4835 127.318 18.9451 127.973 19.2823C128.636 19.6114 129.374 19.776 130.187 19.776C130.826 19.776 131.378 19.6796 131.844 19.487C132.309 19.2863 132.708 19.0334 133.039 18.7284ZM133.146 16.1034C133.205 16.0186 133.256 15.9351 133.3 15.8528V13.5627H131.867C131.418 13.5627 131.027 13.6149 130.696 13.7192C130.364 13.8236 130.092 13.9721 129.879 14.1647C129.666 14.3494 129.508 14.5661 129.405 14.815C129.311 15.0638 129.263 15.3368 129.263 15.6338C129.263 15.9308 129.33 16.1997 129.464 16.4405C129.599 16.6733 129.792 16.858 130.045 16.9944C130.297 17.1229 130.593 17.1871 130.932 17.1871C131.445 17.1871 131.891 17.0827 132.27 16.874C132.649 16.6653 132.941 16.4084 133.146 16.1034Z" fill="#4C4C4C"/>
<path fill-rule="evenodd" clip-rule="evenodd" d="M150.559 6.50654H147.469L147.333 7.73974C147.01 7.32699 146.625 6.9962 146.179 6.74736C145.603 6.42626 144.889 6.26571 144.036 6.26571C143.231 6.26571 142.509 6.42626 141.87 6.74736C141.231 7.06846 140.686 7.52201 140.237 8.10802C139.795 8.69402 139.451 9.39643 139.207 10.2152C138.97 11.026 138.852 11.9291 138.852 12.9245V13.1774C138.852 14.1246 138.97 14.9996 139.207 15.8024C139.451 16.6051 139.799 17.3035 140.248 17.8975C140.698 18.4916 141.239 18.9531 141.87 19.2823C142.509 19.6114 143.224 19.776 144.013 19.776C144.802 19.776 145.481 19.6154 146.049 19.2943C146.46 19.0651 146.823 18.7704 147.138 18.4102V19.1257C147.138 19.7438 147.023 20.2696 146.795 20.7031C146.566 21.1446 146.238 21.4778 145.812 21.7026C145.386 21.9353 144.865 22.0517 144.249 22.0517C143.618 22.0517 143.042 21.9193 142.521 21.6544C142 21.3975 141.543 21.0363 141.148 20.5707L139.645 22.6177C140.008 23.0833 140.458 23.4686 140.994 23.7736C141.539 24.0787 142.107 24.3035 142.699 24.4479C143.299 24.5924 143.867 24.6647 144.403 24.6647C145.627 24.6647 146.7 24.4479 147.623 24.0145C148.546 23.589 149.265 22.9589 149.778 22.124C150.298 21.2972 150.559 20.2897 150.559 19.1017V6.50654ZM147.138 10.2184V15.84C146.951 16.1674 146.707 16.4359 146.404 16.6452C146.009 16.9101 145.5 17.0426 144.877 17.0426C144.427 17.0426 144.036 16.9463 143.705 16.7536C143.381 16.5529 143.109 16.276 142.888 15.9228C142.675 15.5615 142.517 15.1481 142.415 14.6825C142.312 14.2169 142.261 13.7152 142.261 13.1774V12.9245C142.261 12.3706 142.316 11.8568 142.426 11.3832C142.537 10.9016 142.699 10.4842 142.912 10.1309C143.133 9.77773 143.405 9.50078 143.729 9.3001C144.06 9.09138 144.451 8.98703 144.901 8.98703C145.366 8.98703 145.769 9.0673 146.108 9.22785C146.447 9.3884 146.723 9.61317 146.937 9.90216C147.009 10.0006 147.076 10.106 147.138 10.2184Z" fill="#4C4C4C"/>
<path fill-rule="evenodd" clip-rule="evenodd" d="M159.863 18.7284C160.006 18.5933 160.138 18.4544 160.259 18.3118C160.345 18.7969 160.466 19.2047 160.621 19.5351H164.065V19.3304C163.9 18.9933 163.773 18.5999 163.687 18.1504C163.6 17.6928 163.556 17.1068 163.556 16.3924V10.8173C163.556 9.80583 163.331 8.96294 162.882 8.28864C162.44 7.61433 161.832 7.1086 161.059 6.77144C160.285 6.43429 159.401 6.26571 158.407 6.26571C157.578 6.26571 156.829 6.37408 156.158 6.59083C155.495 6.80757 154.923 7.1086 154.442 7.49392C153.96 7.87121 153.593 8.3087 153.341 8.80641C153.088 9.30411 152.962 9.82991 152.962 10.3838H156.371C156.371 10.0547 156.446 9.76971 156.596 9.52888C156.746 9.28003 156.959 9.09138 157.235 8.96294C157.511 8.82648 157.839 8.75824 158.218 8.75824C158.66 8.75824 159.019 8.84253 159.295 9.01111C159.579 9.17969 159.788 9.4165 159.922 9.72154C160.056 10.0186 160.123 10.3758 160.123 10.7932V11.6H158.596C157.618 11.6 156.758 11.6963 156.016 11.889C155.274 12.0736 154.655 12.3505 154.157 12.7198C153.668 13.081 153.297 13.5266 153.045 14.0564C152.792 14.5862 152.666 15.1923 152.666 15.8746C152.666 16.6292 152.855 17.3035 153.234 17.8975C153.621 18.4835 154.142 18.9451 154.797 19.2823C155.46 19.6114 156.197 19.776 157.01 19.776C157.649 19.776 158.202 19.6796 158.667 19.487C159.133 19.2863 159.532 19.0334 159.863 18.7284ZM159.97 16.1034C160.029 16.0186 160.08 15.9351 160.123 15.8528V13.5627H158.691C158.241 13.5627 157.851 13.6149 157.519 13.7192C157.188 13.8236 156.916 13.9721 156.702 14.1647C156.489 14.3494 156.332 14.5661 156.229 14.815C156.134 15.0638 156.087 15.3368 156.087 15.6338C156.087 15.9308 156.154 16.1997 156.288 16.4405C156.422 16.6733 156.616 16.858 156.868 16.9944C157.121 17.1229 157.417 17.1871 157.756 17.1871C158.269 17.1871 158.715 17.0827 159.094 16.874C159.472 16.6653 159.764 16.4084 159.97 16.1034Z" fill="#4C4C4C"/>
<path d="M176.376 19.5351V16.8259H170.025L176.187 8.50538V6.50654H165.924V9.22785H171.849L165.734 17.4761V19.5351H176.376Z" fill="#4C4C4C"/>
<path d="M182.117 6.50654V19.5351H178.696V6.50654H182.117Z" fill="#4C4C4C"/>
<path d="M178.483 3.11091C178.483 2.60518 178.657 2.18775 179.004 1.85863C179.351 1.5295 179.817 1.36494 180.401 1.36494C180.977 1.36494 181.439 1.5295 181.786 1.85863C182.141 2.18775 182.319 2.60518 182.319 3.11091C182.319 3.61664 182.141 4.03407 181.786 4.3632C181.439 4.69233 180.977 4.85689 180.401 4.85689C179.817 4.85689 179.351 4.69233 179.004 4.3632C178.657 4.03407 178.483 3.61664 178.483 3.11091Z" fill="#4C4C4C"/>
<path d="M188.273 10.2929V19.5351H184.864V6.50654H188.06L188.179 8.06418C188.202 8.03431 188.226 8.00477 188.249 7.97556C188.691 7.42167 189.216 7.00023 189.824 6.71124C190.439 6.41422 191.126 6.26571 191.883 6.26571C192.483 6.26571 193.032 6.35401 193.529 6.53062C194.026 6.70722 194.452 6.98818 194.807 7.3735C195.17 7.75882 195.446 8.26857 195.636 8.90274C195.833 9.53691 195.932 10.3116 195.932 11.2267V19.5351H192.499V11.2147C192.499 10.6367 192.42 10.1871 192.262 9.86603C192.104 9.54494 191.872 9.32017 191.564 9.19173C191.264 9.05526 190.893 8.98703 190.451 8.98703C189.993 8.98703 189.595 9.07934 189.255 9.26397C188.924 9.44861 188.648 9.70549 188.427 10.0346C188.372 10.117 188.321 10.2031 188.273 10.2929Z" fill="#4C4C4C"/>
<path d="M198.69 17.8614C198.69 17.3476 198.864 16.9182 199.211 16.573C199.566 16.2278 200.035 16.0552 200.619 16.0552C201.203 16.0552 201.669 16.2278 202.016 16.573C202.371 16.9182 202.549 17.3476 202.549 17.8614C202.549 18.3752 202.371 18.8046 202.016 19.1498C201.669 19.495 201.203 19.6676 200.619 19.6676C200.035 19.6676 199.566 19.495 199.211 19.1498C198.864 18.8046 198.69 18.3752 198.69 17.8614Z" fill="#4C4C4C"/>
<path d="M213.245 18.1812C212.866 18.6644 212.398 19.0475 211.841 19.3304C211.242 19.6274 210.535 19.776 209.722 19.776C209.099 19.776 208.523 19.6877 207.994 19.511C207.473 19.3264 207.023 19.0414 206.645 18.6561C206.274 18.2628 205.982 17.7611 205.769 17.151C205.564 16.5329 205.461 15.7903 205.461 14.9233V6.50654H208.87V14.9474C208.87 15.3327 208.914 15.6579 209 15.9228C209.095 16.1877 209.225 16.4044 209.391 16.573C209.557 16.7416 209.75 16.862 209.971 16.9342C210.2 17.0065 210.452 17.0426 210.729 17.0426C211.431 17.0426 211.983 16.8981 212.386 16.6091C212.711 16.3798 212.96 16.0848 213.132 15.7241V6.50654H216.541V19.5351H213.333L213.245 18.1812Z" fill="#4C4C4C"/>
<path fill-rule="evenodd" clip-rule="evenodd" d="M225.798 18.7284C225.941 18.5933 226.073 18.4544 226.194 18.3118C226.28 18.7969 226.4 19.2047 226.555 19.5351H230V19.3304C229.834 18.9933 229.708 18.5999 229.621 18.1504C229.534 17.6928 229.491 17.1068 229.491 16.3924V10.8173C229.491 9.80583 229.266 8.96294 228.816 8.28864C228.374 7.61433 227.767 7.1086 226.993 6.77144C226.22 6.43429 225.336 6.26571 224.342 6.26571C223.513 6.26571 222.763 6.37408 222.093 6.59083C221.43 6.80757 220.858 7.1086 220.376 7.49392C219.895 7.87121 219.528 8.3087 219.275 8.80641C219.023 9.30411 218.896 9.82991 218.896 10.3838H222.306C222.306 10.0547 222.381 9.76971 222.531 9.52888C222.68 9.28003 222.894 9.09138 223.17 8.96294C223.446 8.82648 223.773 8.75824 224.152 8.75824C224.594 8.75824 224.953 8.84253 225.229 9.01111C225.514 9.17969 225.723 9.4165 225.857 9.72154C225.991 10.0186 226.058 10.3758 226.058 10.7932V11.6H224.531C223.553 11.6 222.692 11.6963 221.951 11.889C221.209 12.0736 220.589 12.3505 220.092 12.7198C219.603 13.081 219.232 13.5266 218.979 14.0564C218.727 14.5862 218.601 15.1923 218.601 15.8746C218.601 16.6292 218.79 17.3035 219.169 17.8975C219.555 18.4835 220.076 18.9451 220.731 19.2823C221.394 19.6114 222.132 19.776 222.945 19.776C223.584 19.776 224.136 19.6796 224.602 19.487C225.068 19.2863 225.466 19.0334 225.798 18.7284ZM225.904 16.1034C225.963 16.0186 226.015 15.9351 226.058 15.8528V13.5627H224.626C224.176 13.5627 223.785 13.6149 223.454 13.7192C223.122 13.8236 222.85 13.9721 222.637 14.1647C222.424 14.3494 222.266 14.5661 222.164 14.815C222.069 15.0638 222.022 15.3368 222.022 15.6338C222.022 15.9308 222.089 16.1997 222.223 16.4405C222.357 16.6733 222.55 16.858 222.803 16.9944C223.055 17.1229 223.351 17.1871 223.691 17.1871C224.204 17.1871 224.649 17.0827 225.028 16.874C225.407 16.6653 225.699 16.4084 225.904 16.1034Z" fill="#4C4C4C"/>
<path fill-rule="evenodd" clip-rule="evenodd" d="M52.9533 30.4943C53.0495 30.4518 53.142 30.405 53.2309 30.3538C53.6119 30.1372 53.9092 29.8594 54.1229 29.5204C54.3366 29.1767 54.4434 28.793 54.4434 28.3692C54.4434 27.8889 54.3691 27.477 54.2204 27.1332C54.0718 26.7895 53.8534 26.507 53.5654 26.2857C53.282 26.0597 52.936 25.8949 52.5272 25.7914C52.1184 25.6831 51.6538 25.6289 51.1335 25.6289H47.8097V35.9121H51.3635C52.0417 35.9121 52.6317 35.7991 53.1334 35.573C53.6351 35.3423 54.023 35.008 54.2971 34.5702C54.5758 34.1276 54.7152 33.5861 54.7152 32.9458C54.7152 32.5032 54.6246 32.0983 54.4434 31.731C54.2669 31.3637 54.009 31.0624 53.6699 30.827C53.4596 30.6781 53.2207 30.5672 52.9533 30.4943ZM49.1546 31.1024H51.4262C51.8814 31.1024 52.2531 31.1778 52.5411 31.3284C52.8291 31.4791 53.0405 31.6933 53.1752 31.9711C53.3099 32.2489 53.3773 32.5785 53.3773 32.9599C53.3773 33.3366 53.2983 33.6638 53.1404 33.9416C52.9824 34.2147 52.7525 34.4266 52.4505 34.5772C52.1532 34.7279 51.7909 34.8032 51.3635 34.8032H49.1546V31.1024ZM49.1546 30.0077V26.7448H51.1335C51.5795 26.7448 51.9465 26.8013 52.2345 26.9143C52.5272 27.0226 52.7432 27.1968 52.8825 27.4369C53.0265 27.6724 53.0985 27.9784 53.0985 28.3551C53.0985 28.6988 53.0172 28.9954 52.8547 29.245C52.6967 29.4898 52.4737 29.6781 52.1857 29.81C51.8977 29.9418 51.5609 30.0077 51.1753 30.0077H49.1546Z" fill="#4C4C4C"/>
<path fill-rule="evenodd" clip-rule="evenodd" d="M60.9807 35.1043C60.9193 35.1695 60.8539 35.234 60.7844 35.2976C60.5475 35.5142 60.2641 35.6955 59.9343 35.8414C59.6091 35.9827 59.2421 36.0533 58.8333 36.0533C58.3223 36.0533 57.874 35.9521 57.4885 35.7496C57.1076 35.5472 56.8102 35.2764 56.5966 34.9374C56.3875 34.5937 56.283 34.21 56.283 33.7862C56.283 33.3766 56.362 33.0164 56.5199 32.7056C56.6779 32.3902 56.9055 32.1289 57.2028 31.9217C57.5001 31.7098 57.8578 31.5497 58.2759 31.4414C58.694 31.3331 59.1608 31.279 59.6765 31.279H60.9516V30.6716C60.9516 30.3703 60.8913 30.109 60.7705 29.8877C60.6543 29.6617 60.4778 29.4874 60.2409 29.365C60.004 29.2426 59.7113 29.1814 59.3629 29.1814C59.0377 29.1814 58.752 29.2379 58.5058 29.3509C58.2643 29.4639 58.0738 29.6122 57.9344 29.7958C57.7997 29.9795 57.7324 30.1772 57.7324 30.3891H56.4433C56.4433 30.116 56.5129 29.8453 56.6523 29.5769C56.7917 29.3085 56.9914 29.066 57.2516 28.8495C57.5164 28.6282 57.8322 28.454 58.1992 28.3268C58.5709 28.195 58.9843 28.1291 59.4396 28.1291C59.9877 28.1291 60.4708 28.2232 60.8889 28.4116C61.3117 28.5999 61.6415 28.8848 61.8784 29.2662C62.12 29.6428 62.2408 30.116 62.2408 30.6857V34.2453C62.2408 34.4995 62.2617 34.7703 62.3035 35.0575C62.3499 35.3447 62.4173 35.5919 62.5055 35.7991V35.9121H61.1607C61.0957 35.7614 61.0446 35.5613 61.0074 35.3117C60.9971 35.2411 60.9882 35.172 60.9807 35.1043ZM60.9516 33.7636C60.9074 33.8525 60.8517 33.9425 60.7844 34.0334C60.6079 34.2782 60.3686 34.4854 60.0667 34.6549C59.7647 34.8244 59.4163 34.9092 59.0215 34.9092C58.7056 34.9092 58.4385 34.8527 58.2201 34.7397C58.0064 34.622 57.8462 34.4642 57.7393 34.2665C57.6325 34.0687 57.5791 33.8498 57.5791 33.6096C57.5791 33.3742 57.6302 33.1694 57.7324 32.9952C57.8346 32.8163 57.9832 32.668 58.1783 32.5503C58.3734 32.4325 58.615 32.3454 58.903 32.2889C59.191 32.2277 59.5185 32.1971 59.8855 32.1971H60.9516V33.7636Z" fill="#4C4C4C"/>
<path d="M64.38 28.2703H65.6691V34.8385H68.4285V28.2703H69.7246V34.8385H72.477V28.2703H73.7661V35.9121H64.38V28.2703Z" fill="#4C4C4C"/>
<path fill-rule="evenodd" clip-rule="evenodd" d="M77.5219 35.7849C77.9493 35.9638 78.4255 36.0533 78.9504 36.0533C79.4474 36.0533 79.8772 35.9827 80.2395 35.8414C80.6065 35.7002 80.9154 35.5165 81.1663 35.2905C81.4171 35.0645 81.6238 34.8268 81.7864 34.5772L81.006 33.9487C80.7691 34.2641 80.4927 34.516 80.1768 34.7044C79.8609 34.8927 79.4753 34.9869 79.0201 34.9869C78.667 34.9869 78.3511 34.9186 78.0724 34.782C77.7983 34.6455 77.5637 34.4572 77.3686 34.217C77.1782 33.9769 77.0318 33.6991 76.9296 33.3836C76.841 33.0927 76.7926 32.7843 76.7845 32.4584H81.884V31.8722C81.884 31.3355 81.8236 30.8411 81.7028 30.3891C81.582 29.9324 81.3962 29.5369 81.1454 29.2026C80.8945 28.8636 80.5716 28.5999 80.1768 28.4116C79.7866 28.2232 79.322 28.1291 78.7832 28.1291C78.3604 28.1291 77.9516 28.2162 77.5568 28.3904C77.1619 28.5646 76.8088 28.8212 76.4976 29.1602C76.1864 29.4992 75.9401 29.9136 75.759 30.4032C75.5778 30.8882 75.4872 31.4414 75.4872 32.0629V32.3596C75.4872 32.8963 75.5685 33.3907 75.7311 33.8427C75.8937 34.2947 76.126 34.6855 76.4279 35.0151C76.7345 35.3447 77.0992 35.6013 77.5219 35.7849ZM76.8223 31.392C76.8466 31.1957 76.8824 31.0121 76.9296 30.8411C77.0272 30.488 77.1642 30.189 77.3407 29.9442C77.5173 29.6993 77.7286 29.5157 77.9748 29.3933C78.2211 29.2662 78.4905 29.2026 78.7832 29.2026C79.2245 29.2026 79.5729 29.3062 79.8284 29.5133C80.0839 29.7205 80.2697 29.9842 80.3858 30.3044C80.5066 30.6245 80.5763 30.9541 80.5949 31.2931V31.392H76.8223Z" fill="#4C4C4C"/>
<path d="M88.3574 31.4556V32.5644H89.6395C89.9972 32.5644 90.2899 32.6068 90.5175 32.6915C90.7498 32.7716 90.9217 32.8987 91.0332 33.0729C91.1447 33.2471 91.2004 33.4778 91.2004 33.765C91.2004 33.9863 91.1377 34.1911 91.0123 34.3795C90.8915 34.5678 90.7103 34.7185 90.4688 34.8315C90.2272 34.9445 89.9252 35.001 89.5629 35.001C89.2238 35.001 88.9241 34.9374 88.664 34.8103C88.4085 34.6832 88.2087 34.516 88.0647 34.3088C87.9207 34.1017 87.8487 33.8827 87.8487 33.652H86.5596C86.5596 34.2029 86.7083 34.6573 87.0056 35.0151C87.3029 35.3682 87.6815 35.6296 88.1414 35.7991C88.6013 35.9686 89.0751 36.0533 89.5629 36.0533C89.9996 36.0533 90.3968 36.0015 90.7544 35.8979C91.1168 35.7943 91.428 35.6437 91.6882 35.4459C91.9483 35.2482 92.1481 35.008 92.2874 34.7255C92.4314 34.4383 92.5035 34.1158 92.5035 33.758C92.5035 33.4378 92.4431 33.1553 92.3223 32.9104C92.2061 32.6609 92.0319 32.4514 91.7997 32.2819C91.6287 32.1571 91.4275 32.0553 91.1961 31.9764C91.3685 31.8989 91.5233 31.8076 91.6603 31.7027C91.8879 31.5238 92.0621 31.319 92.1829 31.0883C92.3037 30.8576 92.3641 30.6127 92.3641 30.3538C92.3641 29.9912 92.2991 29.6734 92.169 29.4003C92.0436 29.1225 91.8601 28.8918 91.6185 28.7082C91.3769 28.5199 91.082 28.3786 90.7335 28.2844C90.3898 28.1856 89.9996 28.1361 89.5629 28.1361C89.0426 28.1361 88.5618 28.2279 88.1205 28.4116C87.6838 28.5952 87.3331 28.8565 87.0683 29.1955C86.8081 29.5298 86.6781 29.93 86.6781 30.3962H87.9672C87.9672 30.1702 88.0369 29.9677 88.1762 29.7888C88.3202 29.6052 88.513 29.4615 88.7546 29.358C88.9961 29.2497 89.2656 29.1955 89.5629 29.1955C89.9299 29.1955 90.2225 29.252 90.4409 29.365C90.6592 29.4733 90.8172 29.6169 90.9147 29.7958C91.0169 29.9701 91.068 30.156 91.068 30.3538C91.068 30.5751 91.0239 30.7681 90.9356 30.9329C90.8474 31.0977 90.6987 31.2272 90.4897 31.3214C90.2806 31.4108 89.9972 31.4556 89.6395 31.4556H88.3574Z" fill="#4C4C4C"/>
<path fill-rule="evenodd" clip-rule="evenodd" d="M95.5346 28.2703L95.4161 31.1307C95.3929 31.7004 95.3395 32.183 95.2559 32.5785C95.1769 32.9693 95.077 33.3012 94.9562 33.5743C94.8355 33.8427 94.7031 34.0758 94.5591 34.2735C94.415 34.4666 94.2664 34.6549 94.1131 34.8385H93.5208L93.5138 38.165H94.8099V35.9121H100.071V38.165H101.36V34.8385H100.391V28.2703H95.5346ZM96.7122 31.1307C96.6843 31.8558 96.6031 32.482 96.4683 33.0093C96.3336 33.5367 96.1617 33.9863 95.9527 34.3583C95.8541 34.5315 95.7499 34.6915 95.6399 34.8385H99.1023V29.478H96.7766L96.7122 31.1307Z" fill="#4C4C4C"/>
<path fill-rule="evenodd" clip-rule="evenodd" d="M102.447 32.1759V32.0135C102.447 31.4626 102.526 30.9518 102.684 30.4809C102.842 30.0054 103.069 29.5934 103.367 29.245C103.664 28.8918 104.024 28.6187 104.447 28.4257C104.87 28.2279 105.343 28.1291 105.868 28.1291C106.398 28.1291 106.874 28.2279 107.297 28.4257C107.724 28.6187 108.087 28.8918 108.384 29.245C108.686 29.5934 108.916 30.0054 109.074 30.4809C109.232 30.9518 109.311 31.4626 109.311 32.0135V32.1759C109.311 32.7268 109.232 33.2377 109.074 33.7085C108.916 34.1794 108.686 34.5914 108.384 34.9445C108.087 35.2929 107.727 35.566 107.304 35.7637C106.886 35.9568 106.412 36.0533 105.882 36.0533C105.353 36.0533 104.877 35.9568 104.454 35.7637C104.031 35.566 103.669 35.2929 103.367 34.9445C103.069 34.5914 102.842 34.1794 102.684 33.7085C102.526 33.2377 102.447 32.7268 102.447 32.1759ZM103.736 32.0135V32.1759C103.736 32.5573 103.78 32.9175 103.869 33.2565C103.957 33.5908 104.089 33.8874 104.266 34.1464C104.447 34.4054 104.672 34.6102 104.942 34.7609C105.211 34.9068 105.525 34.9798 105.882 34.9798C106.235 34.9798 106.544 34.9068 106.809 34.7609C107.079 34.6102 107.301 34.4054 107.478 34.1464C107.655 33.8874 107.787 33.5908 107.875 33.2565C107.968 32.9175 108.015 32.5573 108.015 32.1759V32.0135C108.015 31.6368 107.968 31.2813 107.875 30.947C107.787 30.608 107.652 30.3091 107.471 30.0501C107.295 29.7864 107.072 29.5793 106.802 29.4286C106.537 29.2779 106.226 29.2026 105.868 29.2026C105.515 29.2026 105.204 29.2779 104.935 29.4286C104.67 29.5793 104.447 29.7864 104.266 30.0501C104.089 30.3091 103.957 30.608 103.869 30.947C103.78 31.2813 103.736 31.6368 103.736 32.0135Z" fill="#4C4C4C"/>
<path fill-rule="evenodd" clip-rule="evenodd" d="M112.216 35.1708V38.8501H110.92V28.2703H112.105L112.169 29.1095C112.424 28.79 112.732 28.5479 113.094 28.3833C113.457 28.2138 113.875 28.1291 114.349 28.1291C114.822 28.1291 115.243 28.2232 115.61 28.4116C115.977 28.5952 116.286 28.8589 116.537 29.2026C116.787 29.5463 116.976 29.9583 117.101 30.4385C117.231 30.9141 117.296 31.4438 117.296 32.0276V32.1759C117.296 32.7315 117.231 33.2471 117.101 33.7227C116.971 34.1935 116.781 34.6031 116.53 34.9515C116.283 35.3 115.979 35.5707 115.617 35.7637C115.254 35.9568 114.839 36.0533 114.37 36.0533C113.891 36.0533 113.468 35.9733 113.101 35.8132C112.757 35.6631 112.462 35.449 112.216 35.1708ZM112.216 33.9317C112.224 33.9459 112.232 33.96 112.24 33.9742C112.248 33.9893 112.257 34.0043 112.265 34.0193C112.432 34.3065 112.655 34.5396 112.934 34.7185C113.213 34.8927 113.564 34.9798 113.986 34.9798C114.335 34.9798 114.634 34.9068 114.885 34.7609C115.141 34.6102 115.35 34.4054 115.512 34.1464C115.68 33.8874 115.803 33.5908 115.882 33.2565C115.961 32.9175 116 32.5573 116 32.1759V32.0276C116 31.6462 115.961 31.2884 115.882 30.9541C115.803 30.6151 115.68 30.3185 115.512 30.0642C115.35 29.8053 115.141 29.6028 114.885 29.4568C114.63 29.3062 114.325 29.2308 113.972 29.2308C113.647 29.2308 113.364 29.2873 113.122 29.4003C112.885 29.5133 112.683 29.6664 112.516 29.8594C112.402 29.9877 112.302 30.129 112.216 30.2834V33.9317Z" fill="#4C4C4C"/>
<path fill-rule="evenodd" clip-rule="evenodd" d="M118.599 32.1759V32.0135C118.599 31.4626 118.678 30.9518 118.836 30.4809C118.994 30.0054 119.222 29.5934 119.519 29.245C119.816 28.8918 120.176 28.6187 120.599 28.4257C121.022 28.2279 121.496 28.1291 122.021 28.1291C122.55 28.1291 123.026 28.2279 123.449 28.4257C123.876 28.6187 124.239 28.8918 124.536 29.245C124.838 29.5934 125.068 30.0054 125.226 30.4809C125.384 30.9518 125.463 31.4626 125.463 32.0135V32.1759C125.463 32.7268 125.384 33.2377 125.226 33.7085C125.068 34.1794 124.838 34.5914 124.536 34.9445C124.239 35.2929 123.879 35.566 123.456 35.7637C123.038 35.9568 122.564 36.0533 122.034 36.0533C121.505 36.0533 121.029 35.9568 120.606 35.7637C120.183 35.566 119.821 35.2929 119.519 34.9445C119.222 34.5914 118.994 34.1794 118.836 33.7085C118.678 33.2377 118.599 32.7268 118.599 32.1759ZM119.888 32.0135V32.1759C119.888 32.5573 119.932 32.9175 120.021 33.2565C120.109 33.5908 120.241 33.8874 120.418 34.1464C120.599 34.4054 120.824 34.6102 121.094 34.7609C121.363 34.9068 121.677 34.9798 122.034 34.9798C122.388 34.9798 122.696 34.9068 122.961 34.7609C123.231 34.6102 123.454 34.4054 123.63 34.1464C123.807 33.8874 123.939 33.5908 124.027 33.2565C124.12 32.9175 124.167 32.5573 124.167 32.1759V32.0135C124.167 31.6368 124.12 31.2813 124.027 30.947C123.939 30.608 123.804 30.3091 123.623 30.0501C123.447 29.7864 123.224 29.5793 122.954 29.4286C122.689 29.2779 122.378 29.2026 122.021 29.2026C121.668 29.2026 121.356 29.2779 121.087 29.4286C120.822 29.5793 120.599 29.7864 120.418 30.0501C120.241 30.3091 120.109 30.608 120.021 30.947C119.932 31.2813 119.888 31.6368 119.888 32.0135Z" fill="#4C4C4C"/>
<path fill-rule="evenodd" clip-rule="evenodd" d="M132.037 31.9699C132.3 31.8665 132.522 31.7351 132.703 31.5756C132.884 31.4155 133.021 31.2319 133.114 31.0247C133.207 30.8176 133.253 30.5986 133.253 30.3679C133.253 30.0101 133.181 29.6993 133.037 29.4357C132.893 29.172 132.684 28.9554 132.41 28.7859C132.141 28.6117 131.813 28.4822 131.428 28.3975C131.047 28.3127 130.617 28.2703 130.138 28.2703H127.198V35.9121H130.619C131.07 35.9121 131.474 35.8673 131.832 35.7779C132.189 35.6837 132.494 35.5472 132.745 35.3682C132.995 35.1846 133.186 34.9562 133.316 34.6832C133.451 34.4101 133.518 34.0946 133.518 33.7368C133.518 33.426 133.444 33.1388 133.295 32.8751C133.146 32.6068 132.928 32.3855 132.64 32.2113C132.463 32.104 132.262 32.0236 132.037 31.9699ZM128.487 32.5503H130.619C130.977 32.5503 131.274 32.5973 131.511 32.6915C131.748 32.781 131.925 32.9128 132.041 33.087C132.162 33.2565 132.222 33.4613 132.222 33.7015C132.222 33.9416 132.162 34.1488 132.041 34.323C131.925 34.4925 131.748 34.6243 131.511 34.7185C131.274 34.8079 130.977 34.8527 130.619 34.8527H128.487V32.5503ZM128.487 31.505V29.3297H130.138C130.44 29.3297 130.703 29.3533 130.926 29.4003C131.153 29.4427 131.344 29.511 131.497 29.6052C131.651 29.6946 131.764 29.81 131.839 29.9512C131.918 30.0878 131.957 30.2479 131.957 30.4315C131.957 30.6669 131.89 30.8647 131.755 31.0247C131.62 31.1848 131.418 31.3049 131.149 31.3849C130.884 31.465 130.552 31.505 130.152 31.505H128.487Z" fill="#4C4C4C"/>
<path fill-rule="evenodd" clip-rule="evenodd" d="M136.654 30.8976H138.57C139.178 30.8976 139.692 31.0059 140.11 31.2225C140.528 31.4344 140.844 31.7286 141.058 32.1053C141.276 32.4773 141.385 32.901 141.385 33.3766C141.385 33.7297 141.325 34.0617 141.204 34.3724C141.083 34.6785 140.902 34.9468 140.66 35.1775C140.423 35.4083 140.128 35.5895 139.775 35.7214C139.427 35.8485 139.025 35.9121 138.57 35.9121H135.365V28.2703H136.654V30.8976ZM136.654 34.8385V31.9711H138.57C138.942 31.9711 139.239 32.0465 139.462 32.1971C139.685 32.3431 139.845 32.5267 139.943 32.748C140.04 32.9693 140.089 33.1953 140.089 33.426C140.089 33.6614 140.04 33.8874 139.943 34.104C139.845 34.3206 139.685 34.4972 139.462 34.6337C139.239 34.7703 138.942 34.8385 138.57 34.8385H136.654Z" fill="#4C4C4C"/>
<path fill-rule="evenodd" clip-rule="evenodd" d="M144.695 35.7849C145.122 35.9638 145.598 36.0533 146.123 36.0533C146.62 36.0533 147.05 35.9827 147.413 35.8414C147.779 35.7002 148.088 35.5165 148.339 35.2905C148.59 35.0645 148.797 34.8268 148.959 34.5772L148.179 33.9487C147.942 34.2641 147.666 34.516 147.35 34.7044C147.034 34.8927 146.648 34.9869 146.193 34.9869C145.84 34.9869 145.524 34.9186 145.245 34.782C144.971 34.6455 144.737 34.4572 144.542 34.217C144.351 33.9769 144.205 33.6991 144.103 33.3836C144.014 33.0927 143.966 32.7843 143.958 32.4584H149.057V31.8722C149.057 31.3355 148.997 30.8411 148.876 30.3891C148.755 29.9324 148.569 29.5369 148.318 29.2026C148.068 28.8636 147.745 28.5999 147.35 28.4116C146.96 28.2232 146.495 28.1291 145.956 28.1291C145.533 28.1291 145.125 28.2162 144.73 28.3904C144.335 28.5646 143.982 28.8212 143.671 29.1602C143.359 29.4992 143.113 29.9136 142.932 30.4032C142.751 30.8882 142.66 31.4414 142.66 32.0629V32.3596C142.66 32.8963 142.742 33.3907 142.904 33.8427C143.067 34.2947 143.299 34.6855 143.601 35.0151C143.908 35.3447 144.272 35.6013 144.695 35.7849ZM143.995 31.392C144.02 31.1957 144.055 31.0121 144.103 30.8411C144.2 30.488 144.337 30.189 144.514 29.9442C144.69 29.6993 144.902 29.5157 145.148 29.3933C145.394 29.2662 145.664 29.2026 145.956 29.2026C146.397 29.2026 146.746 29.3062 147.001 29.5133C147.257 29.7205 147.443 29.9842 147.559 30.3044C147.68 30.6245 147.749 30.9541 147.768 31.2931V31.392H143.995Z" fill="#4C4C4C"/>
<path d="M155.496 33.8427L158.973 28.2703H160.269V35.9121H158.973V30.3397L155.496 35.9121H154.213V28.2703H155.496V33.8427Z" fill="#4C4C4C"/>
<path d="M167.279 32.6491V35.9121H165.99V28.2703H167.279V31.505H168.129L170.658 28.2703H172.226L169.24 31.9286L172.477 35.9121H170.839L168.225 32.6491H167.279Z" fill="#4C4C4C"/>
<path fill-rule="evenodd" clip-rule="evenodd" d="M174.888 38.8501V35.1708C175.134 35.449 175.429 35.6631 175.773 35.8132C176.14 35.9733 176.563 36.0533 177.041 36.0533C177.51 36.0533 177.926 35.9568 178.288 35.7637C178.651 35.5707 178.955 35.3 179.201 34.9515C179.452 34.6031 179.643 34.1935 179.773 33.7227C179.903 33.2471 179.968 32.7315 179.968 32.1759V32.0276C179.968 31.4438 179.903 30.9141 179.773 30.4385C179.647 29.9583 179.459 29.5463 179.208 29.2026C178.957 28.8589 178.648 28.5952 178.281 28.4116C177.914 28.2232 177.494 28.1291 177.02 28.1291C176.546 28.1291 176.128 28.2138 175.766 28.3833C175.404 28.5479 175.095 28.79 174.84 29.1095L174.776 28.2703H173.592V38.8501H174.888ZM174.937 34.0193C174.92 33.9903 174.904 33.9611 174.888 33.9317V30.2834C174.974 30.129 175.074 29.9877 175.188 29.8594C175.355 29.6664 175.557 29.5133 175.794 29.4003C176.035 29.2873 176.319 29.2308 176.644 29.2308C176.997 29.2308 177.301 29.3062 177.557 29.4568C177.812 29.6028 178.021 29.8053 178.184 30.0642C178.351 30.3185 178.474 30.6151 178.553 30.9541C178.632 31.2884 178.672 31.6462 178.672 32.0276V32.1759C178.672 32.5573 178.632 32.9175 178.553 33.2565C178.474 33.5908 178.351 33.8874 178.184 34.1464C178.021 34.4054 177.812 34.6102 177.557 34.7609C177.306 34.9068 177.006 34.9798 176.658 34.9798C176.235 34.9798 175.884 34.8927 175.606 34.7185C175.327 34.5396 175.104 34.3065 174.937 34.0193Z" fill="#4C4C4C"/>
<path fill-rule="evenodd" clip-rule="evenodd" d="M186.087 35.1043C186.026 35.1695 185.96 35.234 185.891 35.2976C185.654 35.5142 185.37 35.6955 185.041 35.8414C184.715 35.9827 184.348 36.0533 183.94 36.0533C183.429 36.0533 182.98 35.9521 182.595 35.7496C182.214 35.5472 181.916 35.2764 181.703 34.9374C181.494 34.5937 181.389 34.21 181.389 33.7862C181.389 33.3766 181.468 33.0164 181.626 32.7056C181.784 32.3902 182.012 32.1289 182.309 31.9217C182.606 31.7098 182.964 31.5497 183.382 31.4414C183.8 31.3331 184.267 31.279 184.783 31.279H186.058V30.6716C186.058 30.3703 185.997 30.109 185.877 29.8877C185.761 29.6617 185.584 29.4874 185.347 29.365C185.11 29.2426 184.818 29.1814 184.469 29.1814C184.144 29.1814 183.858 29.2379 183.612 29.3509C183.37 29.4639 183.18 29.6122 183.041 29.7958C182.906 29.9795 182.839 30.1772 182.839 30.3891H181.549C181.549 30.116 181.619 29.8453 181.759 29.5769C181.898 29.3085 182.098 29.066 182.358 28.8495C182.623 28.6282 182.938 28.454 183.305 28.3268C183.677 28.195 184.091 28.1291 184.546 28.1291C185.094 28.1291 185.577 28.2232 185.995 28.4116C186.418 28.5999 186.748 28.8848 186.985 29.2662C187.226 29.6428 187.347 30.116 187.347 30.6857V34.2453C187.347 34.4995 187.368 34.7703 187.41 35.0575C187.456 35.3447 187.524 35.5919 187.612 35.7991V35.9121H186.267C186.202 35.7614 186.151 35.5613 186.114 35.3117C186.103 35.2411 186.094 35.172 186.087 35.1043ZM186.058 33.7636C186.014 33.8526 185.958 33.9425 185.891 34.0334C185.714 34.2782 185.475 34.4854 185.173 34.6549C184.871 34.8244 184.523 34.9092 184.128 34.9092C183.812 34.9092 183.545 34.8527 183.326 34.7397C183.113 34.622 182.952 34.4642 182.846 34.2665C182.739 34.0687 182.685 33.8498 182.685 33.6096C182.685 33.3742 182.736 33.1694 182.839 32.9952C182.941 32.8163 183.089 32.668 183.285 32.5503C183.48 32.4325 183.721 32.3454 184.009 32.2889C184.297 32.2277 184.625 32.1971 184.992 32.1971H186.058V33.7636Z" fill="#4C4C4C"/>
<path d="M192.392 34.9798C192.699 34.9798 192.982 34.9162 193.242 34.7891C193.502 34.662 193.716 34.4878 193.883 34.2665C194.05 34.0405 194.146 33.7839 194.169 33.4966H195.395C195.372 33.9487 195.221 34.3701 194.942 34.7609C194.668 35.1469 194.308 35.46 193.862 35.7002C193.416 35.9356 192.926 36.0533 192.392 36.0533C191.825 36.0533 191.33 35.9521 190.908 35.7496C190.49 35.5472 190.141 35.2694 189.863 34.9162C189.588 34.5631 189.382 34.1582 189.242 33.7015C189.108 33.24 189.04 32.7527 189.04 32.2395V31.9429C189.04 31.4297 189.108 30.9447 189.242 30.488C189.382 30.0266 189.588 29.6193 189.863 29.2662C190.141 28.913 190.49 28.6352 190.908 28.4328C191.33 28.2303 191.825 28.1291 192.392 28.1291C192.982 28.1291 193.498 28.2515 193.939 28.4963C194.38 28.7365 194.726 29.066 194.977 29.4851C195.233 29.8994 195.372 30.3703 195.395 30.8976H194.169C194.146 30.5821 194.057 30.2973 193.904 30.043C193.755 29.7888 193.551 29.5863 193.291 29.4357C193.035 29.2803 192.736 29.2026 192.392 29.2026C191.997 29.2026 191.665 29.2826 191.395 29.4427C191.131 29.5981 190.919 29.81 190.761 30.0784C190.608 30.342 190.497 30.6363 190.427 30.9612C190.362 31.2813 190.329 31.6086 190.329 31.9429V32.2395C190.329 32.5738 190.362 32.9034 190.427 33.2283C190.492 33.5532 190.601 33.8474 190.754 34.1111C190.912 34.3748 191.124 34.5866 191.389 34.7467C191.658 34.9021 191.992 34.9798 192.392 34.9798Z" fill="#4C4C4C"/>
<path fill-rule="evenodd" clip-rule="evenodd" d="M196.503 32.0135V32.1759C196.503 32.7268 196.582 33.2377 196.74 33.7085C196.898 34.1794 197.126 34.5914 197.423 34.9445C197.725 35.2929 198.087 35.566 198.51 35.7637C198.933 35.9568 199.409 36.0533 199.938 36.0533C200.468 36.0533 200.942 35.9568 201.36 35.7637C201.783 35.566 202.143 35.2929 202.44 34.9445C202.742 34.5914 202.972 34.1794 203.13 33.7085C203.288 33.2377 203.367 32.7268 203.367 32.1759V32.0135C203.367 31.4626 203.288 30.9518 203.13 30.4809C202.972 30.0054 202.742 29.5934 202.44 29.245C202.143 28.8918 201.78 28.6187 201.353 28.4257C200.93 28.2279 200.454 28.1291 199.925 28.1291C199.4 28.1291 198.926 28.2279 198.503 28.4257C198.08 28.6187 197.72 28.8918 197.423 29.245C197.126 29.5934 196.898 30.0054 196.74 30.4809C196.582 30.9518 196.503 31.4626 196.503 32.0135ZM197.792 32.1759V32.0135C197.792 31.6368 197.836 31.2813 197.925 30.947C198.013 30.608 198.145 30.3091 198.322 30.0501C198.503 29.7864 198.726 29.5793 198.991 29.4286C199.26 29.2779 199.571 29.2026 199.925 29.2026C200.282 29.2026 200.593 29.2779 200.858 29.4286C201.128 29.5793 201.351 29.7864 201.527 30.0501C201.708 30.3091 201.843 30.608 201.931 30.947C202.024 31.2813 202.071 31.6368 202.071 32.0135V32.1759C202.071 32.5573 202.024 32.9175 201.931 33.2565C201.843 33.5908 201.711 33.8874 201.534 34.1464C201.358 34.4054 201.135 34.6102 200.865 34.7609C200.6 34.9068 200.292 34.9798 199.938 34.9798C199.581 34.9798 199.267 34.9068 198.998 34.7609C198.728 34.6102 198.503 34.4054 198.322 34.1464C198.145 33.8874 198.013 33.5908 197.925 33.2565C197.836 32.9175 197.792 32.5573 197.792 32.1759Z" fill="#4C4C4C"/>
<path d="M207.903 29.3297V35.9121H206.607V29.3297H204.126V28.2703H210.432V29.3297H207.903Z" fill="#4C4C4C"/>
<path fill-rule="evenodd" clip-rule="evenodd" d="M216.064 35.1043C216.003 35.1695 215.937 35.234 215.868 35.2976C215.631 35.5142 215.347 35.6955 215.018 35.8414C214.692 35.9827 214.325 36.0533 213.917 36.0533C213.406 36.0533 212.957 35.9521 212.572 35.7496C212.191 35.5472 211.893 35.2764 211.68 34.9374C211.471 34.5937 211.366 34.21 211.366 33.7862C211.366 33.3766 211.445 33.0164 211.603 32.7056C211.761 32.3902 211.989 32.1289 212.286 31.9217C212.583 31.7098 212.941 31.5497 213.359 31.4414C213.777 31.3331 214.244 31.279 214.76 31.279H216.035V30.6716C216.035 30.3703 215.975 30.109 215.854 29.8877C215.738 29.6617 215.561 29.4874 215.324 29.365C215.087 29.2426 214.795 29.1814 214.446 29.1814C214.121 29.1814 213.835 29.2379 213.589 29.3509C213.348 29.4639 213.157 29.6122 213.018 29.7958C212.883 29.9795 212.816 30.1772 212.816 30.3891H211.527C211.527 30.116 211.596 29.8453 211.736 29.5769C211.875 29.3085 212.075 29.066 212.335 28.8495C212.6 28.6282 212.915 28.454 213.282 28.3268C213.654 28.195 214.068 28.1291 214.523 28.1291C215.071 28.1291 215.554 28.2232 215.972 28.4116C216.395 28.5999 216.725 28.8848 216.962 29.2662C217.203 29.6428 217.324 30.116 217.324 30.6857V34.2453C217.324 34.4995 217.345 34.7703 217.387 35.0575C217.433 35.3447 217.501 35.5919 217.589 35.7991V35.9121H216.244C216.179 35.7614 216.128 35.5613 216.091 35.3117C216.08 35.2411 216.071 35.172 216.064 35.1043ZM216.035 33.7636C215.991 33.8525 215.935 33.9425 215.868 34.0334C215.691 34.2782 215.452 34.4854 215.15 34.6549C214.848 34.8244 214.5 34.9092 214.105 34.9092C213.789 34.9092 213.522 34.8527 213.303 34.7397C213.09 34.622 212.929 34.4642 212.823 34.2665C212.716 34.0687 212.662 33.8498 212.662 33.6096C212.662 33.3742 212.713 33.1694 212.816 32.9952C212.918 32.8163 213.066 32.668 213.262 32.5503C213.457 32.4325 213.698 32.3454 213.986 32.2889C214.274 32.2277 214.602 32.1971 214.969 32.1971H216.035V33.7636Z" fill="#4C4C4C"/>
</svg>
