<svg width="163" height="35" viewBox="0 0 163 35" fill="none" xmlns="http://www.w3.org/2000/svg">
<path d="M34.9375 3.996V31.5832C34.9375 33.6401 33.6941 34.8501 31.4561 34.8501H3.60564C1.11899 34.8501 0 33.7611 0 31.3412V4.117C0 2.06006 1.24333 0.850098 3.35698 0.850098H31.7048C33.8185 0.850098 34.9375 1.93906 34.9375 3.996ZM5.7193 12.3448L2.98398 17.0636C2.48665 17.7896 2.48665 17.7896 2.98398 18.5156L10.0709 30.3732H16.6606C17.0336 30.3732 17.4066 30.3732 17.4066 30.3732C17.4066 30.3732 17.2822 30.0102 17.0336 29.6473L6.71396 12.3448C6.46529 11.9818 6.21663 11.7398 6.21663 11.7398C6.0923 11.7398 5.96796 11.9818 5.7193 12.3448ZM7.21129 11.3768H27.9748C28.3478 11.3768 28.7208 11.3768 28.7208 11.2558C28.7208 11.1348 28.5965 10.8928 28.3478 10.5298L25.1152 5.08497H9.94661L6.83829 10.5298C6.58963 10.8928 6.46529 11.1348 6.46529 11.2558C6.46529 11.3768 6.71396 11.3768 7.21129 11.3768ZM28.3478 12.3448L18.0282 29.5263C17.9039 29.8892 17.6552 30.2522 17.6552 30.2522C17.6552 30.3732 18.0282 30.3732 18.4012 30.3732H24.9908L32.0778 18.3946C32.4508 17.6686 32.4508 17.6686 32.0778 17.0636L29.2182 12.3448C29.0938 11.9818 28.9695 11.7398 28.8452 11.7398C28.8452 11.7398 28.5965 11.9818 28.3478 12.3448ZM35.6834 33.6401L49.8574 19.3626C50.2304 18.9996 50.6034 18.6366 50.6034 18.5156C50.6034 18.5156 50.3547 18.0316 50.106 17.5476L43.3921 5.93195C43.1434 5.44796 42.8947 5.08497 42.8947 4.96398C42.8947 4.96398 43.3921 4.96398 44.0137 4.96398H45.1327C46.003 4.96398 46.2517 5.08497 46.749 5.81095L53.5873 17.9106C54.209 18.9996 54.209 18.9996 53.463 19.7255L39.4134 33.7611C38.9161 34.2451 38.4188 34.4871 37.6728 34.4871H36.0564C35.4348 34.4871 34.9375 34.4871 34.9375 34.4871C34.9375 34.4871 35.3104 34.1241 35.6834 33.6401ZM51.225 34.4871H41.2784C40.9054 34.4871 40.5324 34.4871 40.5324 34.3661C40.5324 34.2451 40.7811 34.0031 41.0297 33.6401L53.9603 20.5725C54.209 20.3305 54.582 20.0885 54.7063 20.0885C54.8307 20.0885 55.0793 20.4515 55.2037 20.8145L62.5393 33.6401C62.6636 34.0031 62.9123 34.3661 62.9123 34.3661C62.9123 34.3661 62.5393 34.4871 62.1663 34.4871H60.4256C59.804 34.4871 59.5553 34.4871 59.3066 33.8821L57.0686 29.8892C56.6957 29.1633 56.6956 29.1633 55.9497 29.7682L51.225 34.4871ZM48.241 5.08497H57.193L59.3066 8.83586C59.6796 9.56184 59.6796 9.56184 60.3013 8.95686L63.5339 5.68996C63.9069 5.32697 64.2799 5.20597 64.7773 5.20597H67.0153C67.3883 5.20597 67.7612 5.20597 67.7612 5.32697V5.44796C67.7612 5.44796 67.5126 5.81095 67.2639 6.05295L55.5767 17.7896C55.328 18.1526 54.955 18.2736 54.8307 18.2736C54.7063 18.2736 54.4577 18.0316 54.3333 17.6686L47.7437 6.05295C47.495 5.68996 47.3707 5.32697 47.3707 5.32697C47.495 5.08497 47.7437 5.08497 48.241 5.08497ZM56.3227 18.3946L69.6262 5.08497H76.4645C77.0862 5.08497 77.5835 5.08497 77.5835 5.20597C77.5835 5.20597 77.2105 5.56896 76.7132 5.81095L71.9886 8.95686C71.4912 9.31985 70.7452 9.92483 70.3722 10.2878L69.2532 11.6188C68.8802 12.1028 68.3829 12.8287 68.1342 13.3127L66.7666 16.3376C66.5179 16.8216 66.2693 17.7896 66.0206 18.3946L65.8963 19.3626C65.7719 19.9675 65.7719 20.9355 65.7719 21.4195V22.6295C65.7719 23.1134 65.8963 24.0814 66.0206 24.5654L66.3936 26.0174C66.5179 26.5013 66.8909 27.3483 67.1396 27.8323L68.3829 29.7682C69.0046 30.8572 70.1236 31.9462 71.2426 32.7932L71.7399 33.1561C72.2372 33.5191 72.8589 34.0031 73.1076 34.1241C73.3562 34.2451 73.4805 34.3661 73.4805 34.3661C73.4805 34.3661 72.9832 34.3661 72.3616 34.3661H64.5286L56.074 20.2095C55.4523 19.2416 55.4523 19.2416 56.3227 18.3946ZM90.2654 25.7754L87.5301 33.3981C87.1571 34.2451 87.1571 34.3661 86.1625 34.4871L82.9298 34.7291C82.4325 34.7291 81.4378 34.7291 80.9405 34.7291L78.0808 34.2451C77.5835 34.1241 76.7132 33.8821 76.0915 33.5191L73.2319 31.9462C72.7346 31.7042 71.9885 31.0992 71.6155 30.7362L70.2479 29.1633C69.8749 28.8003 69.3776 27.9533 69.1289 27.4693L68.3829 25.7754C67.8856 24.6864 67.6369 23.4764 67.6369 22.0245V21.4195C67.6369 20.8145 67.7612 19.9675 67.7612 19.3626L68.2586 17.4266C68.3829 16.9426 68.6316 16.0956 68.8802 15.4907L69.5019 14.1597C69.7506 13.6757 70.2479 12.8287 70.6209 12.4658L70.9939 11.9818C71.3669 11.4978 71.9886 10.8928 72.3616 10.4088L74.8482 8.10988C75.3455 7.74689 76.0915 7.26291 76.5889 7.02092L81.1892 4.84298C81.8108 4.84298 82.6812 4.47999 83.3028 4.35899L84.9191 3.996C85.5408 3.87501 86.5355 3.75401 87.0328 3.75401H91.7574C92.3791 3.75401 93.2494 3.87501 93.8711 3.996L96.3577 4.60099C97.4767 4.84298 97.4767 4.84298 96.9794 5.93195L94.3684 13.5547C93.9954 14.5227 93.9954 14.5227 93.0008 14.2807L91.0114 13.7967C90.3898 13.6757 89.5194 13.5547 88.8978 13.5547H87.7788C87.1571 13.5547 86.2868 13.6757 85.7895 13.9177L84.6705 14.2807C84.1731 14.5227 83.4271 15.0067 83.0541 15.3697L82.1838 16.5796C80.9405 17.9106 80.5675 19.7255 81.0648 21.4195L81.1892 21.9035C81.3135 22.3875 81.9351 23.1134 82.3081 23.4764L82.6812 23.8394C83.5515 24.5654 84.7948 24.9284 86.1625 24.8074L89.3951 24.4444C89.8924 24.4444 90.3898 24.4444 90.3898 24.5654C90.6384 24.6864 90.3898 25.1704 90.2654 25.7754ZM67.8856 4.60099C68.0099 4.60099 68.0099 4.60099 68.0099 4.72198V4.84298H67.8856C67.8856 4.84298 67.7612 4.84298 67.7612 4.72198C67.7612 4.60099 67.7612 4.60099 67.8856 4.60099ZM90.6384 31.5832L99.466 6.65793C100.212 4.47999 100.336 4.47999 102.574 4.47999H108.418C110.656 4.47999 110.78 4.60099 111.029 6.77892L112.148 16.4586C112.272 17.6686 112.397 18.7576 112.521 18.7576C112.645 18.7576 113.143 17.9106 113.764 16.7006L119.484 6.53693C120.478 4.84298 120.976 4.47999 122.965 4.47999H128.436C130.674 4.47999 130.798 4.60099 130.674 6.77892L130.301 13.0707C130.176 14.2807 130.176 15.3697 130.176 15.3697C130.176 15.3697 130.674 14.4017 131.295 13.3127L131.917 12.1028C132.539 10.8928 133.906 9.31985 134.901 8.59387L137.387 6.65793C138.382 5.93195 140.247 4.96398 141.49 4.60099L141.988 4.47999C145.22 3.51202 149.821 3.63302 152.805 4.60099L154.421 5.08497C155.664 5.56896 157.405 6.65793 158.275 7.6259L160.016 9.56184C160.886 10.5298 161.508 11.3768 161.508 11.4978C161.508 11.6188 160.513 11.9818 159.27 12.5868L154.297 14.6437C151.81 15.6117 151.81 15.6117 150.815 14.6437C145.966 10.2878 138.631 16.7006 141.615 22.5085C143.231 25.5334 145.593 26.2593 148.826 24.8074C149.945 24.3234 149.696 23.9604 148.453 23.9604H147.21C145.966 23.9604 144.847 23.8394 144.847 23.5974C144.847 23.4764 145.096 22.2665 145.345 21.0565L145.842 18.8786C146.215 17.0636 146.837 16.5796 148.702 16.5796H160.265C162.751 16.5796 163 16.8216 163 19.6045C163 20.5725 162.627 22.3875 162.13 23.5974L161.632 25.0494C160.638 27.7113 158.4 30.3732 155.789 32.0672L155.54 32.1882C154.421 32.9142 152.556 33.6401 151.188 33.8821L148.329 34.3661C145.345 34.9711 145.096 34.9711 142.236 34.2451L140.123 33.7611C138.879 33.5191 136.89 32.5512 135.895 31.8252L134.652 30.9782C132.663 29.5263 130.549 26.7433 129.928 24.8074C129.803 24.0814 129.555 23.5974 129.555 23.5974C129.555 23.5974 129.43 24.6864 129.43 25.8964L129.057 31.8252C128.933 33.8821 128.684 34.1241 126.571 34.1241H121.1C118.862 34.1241 118.738 34.0031 118.862 31.8252L119.235 24.8074C119.359 23.5974 119.359 22.5085 119.235 22.5085C119.235 22.5085 118.613 23.3554 117.992 24.5654L113.764 32.0672C113.018 33.3981 111.775 34.1241 110.283 34.1241H108.294C106.553 34.1241 105.807 33.6401 105.683 31.8252L104.812 24.8074C104.688 23.5974 104.439 22.5085 104.439 22.5085C104.439 22.5085 103.942 23.4764 103.569 24.6864L101.082 31.9462C100.336 33.8821 99.9634 34.1241 97.8497 34.1241H92.1304C90.8871 34.1241 89.7681 34.1241 89.7681 34.0031C89.7681 33.8821 90.2654 32.7932 90.6384 31.5832ZM89.8924 26.1384V24.4444C89.8924 24.3234 89.8924 24.3234 90.0168 24.3234C90.1411 24.3234 90.1411 24.3234 90.1411 24.2024C90.1411 24.0814 90.1411 24.2024 90.2654 24.2024H90.3898C90.5141 24.2024 90.5141 24.2024 90.5141 24.3234V24.4444C90.5141 24.5654 90.5141 24.5654 90.5141 24.5654L90.3898 24.6864V24.8074C90.3898 24.9284 90.3898 24.9284 90.3898 24.9284C90.3898 24.9284 90.2654 24.9284 90.2654 25.0494V25.1704C90.2654 25.2914 90.2654 25.2914 90.1411 25.2914C90.0168 25.2914 90.1411 25.2914 90.1411 25.4124V25.5334C90.1411 25.6544 90.1411 25.6544 90.0168 25.6544C89.8924 25.6544 89.8924 25.7754 89.8924 25.7754C89.8924 25.8964 89.8924 25.8964 89.8924 25.8964C89.8924 25.8964 89.8924 26.2594 89.8924 26.1384Z" fill="#4C4C4C"/>
</svg>
