<svg width="83" height="137" viewBox="0 0 83 137" fill="none" xmlns="http://www.w3.org/2000/svg">
<path d="M1 76.9702V78.8187C1.00175 78.202 1.00175 77.587 1 76.9702ZM3.83849 78.8099V78.8187H3.86293L3.83849 78.8099ZM79.0079 78.8187H79.0533V78.7976L79.0079 78.8187Z" fill="#4C4C4C"/>
<path d="M1 1V76.9702C1 77.587 1 78.2002 1 78.8187C1.01862 90.9685 1.01862 103.119 1 115.27C1 116.242 1.34914 116.818 2.22198 117.255C14.8841 123.604 27.5374 129.975 40.182 136.366C41.088 136.824 41.8177 136.803 42.7063 136.353C55.2659 130.006 67.8326 123.669 80.4062 117.343C80.9299 117.08 81.3646 116.64 81.8394 116.289V1H1ZM40.0319 132.69C40.0319 132.776 40.0127 132.866 39.9917 133.041C39.7386 132.939 39.5047 132.866 39.2934 132.757C27.6788 126.914 16.0659 121.073 4.45472 115.235C3.98164 114.998 3.78787 114.736 3.78787 114.18C3.80532 102.613 3.81056 91.0447 3.80358 79.4759C3.80358 79.2843 3.82278 79.0928 3.83849 78.817V78.8082L3.85769 78.817C4.20683 78.9786 4.48265 79.0981 4.75498 79.2351C7.84136 80.7849 10.9138 82.3628 14.0211 83.8669C14.7665 84.2183 14.976 84.6664 14.969 85.4641C14.9289 89.7866 14.9481 94.1108 14.9498 98.4333C14.9498 99.8741 15.3967 100.327 16.809 100.331C18.1147 100.331 19.4275 100.301 20.7263 100.352C21.1145 100.377 21.4831 100.533 21.7737 100.793C23.2785 102.251 24.7414 103.75 26.2165 105.244C26.714 105.748 27.2395 106.135 27.9831 105.838C28.7582 105.528 28.8996 104.882 28.8961 104.123C28.8839 100.238 28.8961 96.3529 28.8961 92.4679V91.4365C29.1911 91.5595 29.4024 91.635 29.5944 91.7334C32.8623 93.3734 36.1303 95.0134 39.3982 96.6533C39.8276 96.8677 40.0528 97.0891 40.0511 97.632C40.0301 109.318 40.0237 121.004 40.0319 132.69ZM19.4327 83.4821C19.7819 83.2818 20.0001 83.1306 20.2358 83.0094L28.0739 78.8187C28.8967 78.3806 29.7178 77.9419 30.5371 77.5026L33.002 76.1848C39.83 72.5359 46.6556 68.8834 53.4789 65.2275C53.9887 64.9534 54.3779 64.9042 54.9139 65.1836C57.302 66.4276 59.718 67.6207 62.2458 68.8911C61.8966 69.0914 61.6679 69.2425 61.4218 69.3743L46.2361 77.5026C45.4156 77.9407 44.5963 78.3794 43.7781 78.8187C38.5818 81.6008 33.386 84.3858 28.1909 87.1738C27.9773 87.3101 27.7302 87.3838 27.4774 87.3866C27.2245 87.3894 26.9759 87.3212 26.7594 87.1896C24.3695 85.9491 21.957 84.7525 19.4362 83.4821H19.4327ZM26.0925 101.215C25.0765 100.161 24.2089 99.3312 23.4129 98.4315C23.144 98.1075 22.8005 97.8545 22.4123 97.6946C22.024 97.5348 21.6028 97.4729 21.1854 97.5143C20.0664 97.5758 18.9405 97.5284 17.7761 97.5284V85.7997C18.6838 86.2513 19.5218 86.6782 20.3772 87.0964C22.0879 87.9557 23.8039 88.8043 25.5025 89.6899C25.7451 89.8147 26.0664 90.1116 26.0681 90.333C26.1065 93.8578 26.096 97.3843 26.096 101.215H26.0925ZM50.3175 63.7515C42.5724 67.896 34.8268 72.0404 27.0806 76.1848L17.09 81.5405C16.5489 81.8304 16.1316 81.8532 15.5783 81.5686C13.7889 80.6479 11.9944 79.7394 10.1666 78.8187L5.53879 76.4905L6.13407 76.1848L7.40842 75.5382C18.4959 69.9576 29.5804 64.3741 40.6621 58.7877C41.2032 58.5136 41.6222 58.4872 42.1791 58.7754C45.0891 60.2795 48.0254 61.7361 51.1013 63.2824C50.7783 63.4774 50.5531 63.6233 50.3175 63.7515ZM42.2279 94.1811C41.9865 94.3261 41.7105 94.4027 41.4293 94.4027C41.1481 94.4027 40.8721 94.3261 40.6306 94.1811C37.5879 92.6155 34.5207 91.0903 31.4675 89.5476C31.2126 89.4193 30.963 89.2788 30.6086 89.0872C30.9229 88.9115 31.1498 88.7569 31.3855 88.6304C37.4965 85.3645 43.6065 82.0969 49.7152 78.8275L54.6398 76.1936C57.9694 74.4142 61.2979 72.6319 64.6251 70.8467C65.1349 70.5726 65.5242 70.5269 66.0618 70.8028C69.5201 72.581 73.001 74.317 76.4749 76.0741C76.5534 76.1145 76.6302 76.1549 76.7123 76.2006C76.8694 76.2867 77.0475 76.3904 77.2936 76.5274L65.4666 82.4788C57.7192 86.3713 49.973 90.2721 42.2279 94.1811ZM78.4318 115.235C66.7555 121.092 55.085 126.958 43.4203 132.832C43.2684 132.908 43.1113 132.971 42.8669 133.08C42.8494 132.728 42.8232 132.461 42.8232 132.186C42.8232 120.733 42.8197 109.279 42.8128 97.8253C42.8128 97.2877 42.8931 96.9362 43.443 96.6604C55.0914 90.8256 66.7293 84.9756 78.3567 79.1104C78.5313 79.026 78.7059 78.9522 78.9991 78.8187L79.0445 78.7976V79.7043C79.0445 91.1595 79.0445 102.613 79.0445 114.065C79.062 114.604 78.9817 114.959 78.4318 115.235ZM79.2226 74.317C67.054 68.1765 54.8825 62.0401 42.708 55.9078C41.8177 55.458 41.0915 55.4351 40.1872 55.892C28.0093 62.0524 15.8197 68.19 3.61853 74.3047V3.6339H79.2226V74.317Z" fill="#4C4C4C"/>
<path d="M18.6035 15.7527C18.5044 15.6062 18.3665 15.4906 18.2055 15.4188C18.0565 15.3481 17.8929 15.3138 17.7282 15.3187C17.5635 15.3236 17.4023 15.3675 17.2576 15.4469C17.1008 15.5365 16.9748 15.6719 16.8963 15.8352L14.2114 21.7268L11.4916 15.83C11.4151 15.671 11.2936 15.5384 11.1425 15.4487C11.0079 15.3687 10.8555 15.324 10.6994 15.3188C10.5432 15.3136 10.3882 15.348 10.2487 15.4188C10.0832 15.4868 9.94155 15.6028 9.84176 15.752C9.74197 15.9013 9.68855 16.077 9.6883 16.2569C9.68709 16.3871 9.71577 16.5158 9.77209 16.633L13.2774 24.0708C13.3624 24.2651 13.4959 24.434 13.665 24.561C13.8321 24.6697 14.0283 24.7243 14.2271 24.7174C14.5116 24.7174 14.9027 24.605 15.1436 24.0673L18.6454 16.6365C18.7096 16.5145 18.7442 16.3791 18.7467 16.2411C18.7482 16.0674 18.6977 15.8972 18.6018 15.7527H18.6035Z" fill="#4C4C4C"/>
<path d="M22.1263 11.9837C21.9205 11.7799 21.6509 11.6542 21.3634 11.6278C21.0759 11.6015 20.7882 11.6761 20.5492 11.839C20.3101 12.0019 20.1345 12.2431 20.0521 12.5216C19.9697 12.8001 19.9856 13.0987 20.0971 13.3667C20.2086 13.6347 20.4088 13.8556 20.6638 13.9919C20.9188 14.1282 21.2128 14.1714 21.4958 14.1142C21.7789 14.0571 22.0335 13.9031 22.2166 13.6784C22.3996 13.4537 22.4997 13.1721 22.4999 12.8815C22.5016 12.7142 22.4693 12.5482 22.4051 12.3938C22.3409 12.2394 22.246 12.0999 22.1263 11.9837Z" fill="#4C4C4C"/>
<path d="M21.2343 15.2835C21.1009 15.2799 20.9682 15.3031 20.8438 15.3517C20.7194 15.4002 20.6059 15.4732 20.5098 15.5664C20.4127 15.6628 20.3366 15.7785 20.2864 15.9062C20.2362 16.0339 20.213 16.1707 20.2183 16.3079V23.7106C20.2221 23.9134 20.2848 24.1107 20.3984 24.2782C20.5121 24.4457 20.6719 24.5762 20.8582 24.6536C21.0444 24.7311 21.2491 24.7521 21.4471 24.7141C21.6451 24.6761 21.8278 24.5808 21.9727 24.4398C22.0647 24.3428 22.1367 24.2284 22.1847 24.1032C22.2326 23.9781 22.2555 23.8446 22.252 23.7106V16.3096C22.2587 16.1733 22.237 16.0371 22.1883 15.9097C22.1395 15.7824 22.0648 15.6667 21.9689 15.5702C21.873 15.4737 21.7581 15.3984 21.6316 15.3494C21.505 15.3003 21.3697 15.2784 21.2343 15.2852V15.2835Z" fill="#4C4C4C"/>
<path d="M28.8036 24.7332C29.0994 24.7442 29.3891 24.6468 29.6189 24.4591C29.7262 24.3705 29.8122 24.2585 29.8702 24.1316C29.9283 24.0047 29.9569 23.8661 29.954 23.7264C29.9623 23.4647 29.8726 23.2095 29.7027 23.0113C29.6247 22.9189 29.5275 22.8449 29.418 22.7945C29.3085 22.7441 29.1894 22.7185 29.069 22.7196H28.5069C28.3594 22.7198 28.214 22.6851 28.0824 22.6182C27.9508 22.5514 27.8366 22.4543 27.7492 22.3348C27.5256 22.05 27.4104 21.6942 27.4245 21.3315V17.3973H28.6465C28.8965 17.4068 29.1405 17.3187 29.3273 17.1513C29.4146 17.0725 29.4839 16.9756 29.5306 16.8674C29.5773 16.7591 29.6003 16.642 29.5979 16.524C29.6026 16.4008 29.5808 16.278 29.5341 16.164C29.4874 16.05 29.4169 15.9475 29.3273 15.8633C29.1406 15.6955 28.8967 15.6067 28.6465 15.6156H27.4245V13.3964C27.4245 13.1293 27.3191 12.8733 27.1316 12.6844C26.944 12.4956 26.6895 12.3895 26.4242 12.3895C26.159 12.3895 25.9045 12.4956 25.7169 12.6844C25.5294 12.8733 25.424 13.1293 25.424 13.3964V15.6156H24.8374C24.5876 15.607 24.3439 15.695 24.1566 15.8616C24.067 15.9461 23.9965 16.0489 23.9498 16.1632C23.9031 16.2775 23.8814 16.4005 23.886 16.524C23.8837 16.642 23.9066 16.7591 23.9533 16.8674C24 16.9756 24.0693 17.0725 24.1566 17.1513C24.3435 17.3187 24.5874 17.4068 24.8374 17.3973H25.424V21.3315C25.4157 21.9314 25.553 22.5242 25.8237 23.0587C26.0766 23.5621 26.4603 23.9872 26.934 24.2887C27.4044 24.5863 27.9495 24.7424 28.5051 24.7385L28.8036 24.7332Z" fill="#4C4C4C"/>
<path d="M38.6283 23.7264C38.6227 23.8644 38.6447 24.0021 38.6933 24.1313C38.7418 24.2604 38.8158 24.3784 38.9108 24.478C39.0058 24.5777 39.1198 24.657 39.246 24.7111C39.3722 24.7653 39.508 24.7932 39.6452 24.7932C39.7824 24.7932 39.9182 24.7653 40.0444 24.7111C40.1706 24.657 40.2846 24.5777 40.3796 24.478C40.4746 24.3784 40.5486 24.2604 40.5971 24.1313C40.6456 24.0021 40.6677 23.8644 40.6621 23.7264V20.0172C40.6724 19.162 40.4561 18.3196 40.0354 17.5765C39.6304 16.8596 39.0445 16.2631 38.3368 15.8475C37.6095 15.4253 36.783 15.2075 35.9435 15.2167C35.0991 15.2086 34.2678 15.4263 33.5344 15.8475C32.8196 16.2573 32.2289 16.855 31.8254 17.5765C31.4108 18.3217 31.1977 19.1632 31.2074 20.0172C31.1961 20.8665 31.3934 21.7054 31.7817 22.4595C32.1437 23.1686 32.6911 23.7646 33.3651 24.1833C33.9806 24.5533 34.6769 24.7659 35.393 24.8023C36.1091 24.8388 36.8232 24.698 37.4727 24.3924C37.9002 24.1864 38.2908 23.9103 38.6283 23.5753V23.7264ZM38.6929 20.0172C38.7032 20.54 38.5832 21.0571 38.3438 21.5212C38.1158 21.956 37.775 22.3204 37.3575 22.5755C36.9308 22.8255 36.4459 22.9572 35.9522 22.9572C35.4585 22.9572 34.9736 22.8255 34.5469 22.5755C34.1281 22.3193 33.7846 21.9554 33.5519 21.5212C33.3034 21.0599 33.1772 20.5419 33.1853 20.0172C33.1778 19.4897 33.304 18.969 33.5519 18.5043C33.7839 18.0696 34.1275 17.7055 34.5469 17.45C34.9736 17.2 35.4585 17.0683 35.9522 17.0683C36.4459 17.0683 36.9308 17.2 37.3575 17.45C37.7748 17.7053 38.1157 18.0696 38.3438 18.5043C38.5821 18.972 38.702 19.4916 38.6929 20.0172Z" fill="#4C4C4C"/>
<path d="M48.3449 23.7264C48.348 23.9296 48.4101 24.1274 48.5237 24.2954C48.6372 24.4635 48.7972 24.5943 48.9838 24.6719C49.1704 24.7495 49.3755 24.7703 49.5737 24.7319C49.772 24.6934 49.9547 24.5974 50.0993 24.4556C50.192 24.359 50.2647 24.2447 50.3129 24.1195C50.3612 23.9943 50.3841 23.8606 50.3804 23.7264V19.0349C50.3588 18.5176 50.5407 18.0125 50.8866 17.6292C51.0489 17.4504 51.2478 17.3092 51.4697 17.2155C51.6915 17.1217 51.931 17.0777 52.1714 17.0863C52.3964 17.074 52.6214 17.1095 52.8319 17.1903C53.0424 17.2711 53.2337 17.3955 53.3934 17.5554C53.6954 17.8699 53.849 18.3461 53.849 18.9734V23.7299C53.8521 23.9331 53.9143 24.1309 54.0278 24.2989C54.1414 24.467 54.3013 24.5979 54.4879 24.6754C54.6745 24.753 54.8796 24.7738 55.0779 24.7354C55.2761 24.6969 55.4588 24.6009 55.6035 24.4591C55.6956 24.3621 55.7677 24.2478 55.8156 24.1226C55.8635 23.9975 55.8864 23.864 55.8828 23.7299V18.9699C55.8828 17.7979 55.5703 16.8614 54.9523 16.2042C54.3309 15.5383 53.5069 15.2009 52.5084 15.2009C51.9132 15.1935 51.3237 15.3183 50.7819 15.5664C50.3456 15.7681 49.953 16.054 49.6262 16.408C49.348 16.0532 48.9958 15.7641 48.5945 15.5611C48.1001 15.3164 47.5551 15.193 47.0042 15.2009C46.5407 15.1971 46.0808 15.283 45.6495 15.4539C45.3425 15.5778 45.0558 15.7479 44.7994 15.9582C44.7495 15.8151 44.667 15.6857 44.5585 15.5804C44.4144 15.4369 44.231 15.3399 44.0318 15.302C43.8326 15.264 43.6267 15.2868 43.4405 15.3674C43.2542 15.448 43.0961 15.5828 42.9865 15.7544C42.8768 15.926 42.8206 16.1267 42.825 16.3307V23.7334C42.8281 23.9366 42.8903 24.1344 43.0038 24.3025C43.1173 24.4705 43.2773 24.6014 43.4639 24.6789C43.6505 24.7565 43.8556 24.7773 44.0538 24.7389C44.2521 24.7004 44.4348 24.6044 44.5794 24.4626C44.6722 24.366 44.7448 24.2518 44.793 24.1265C44.8413 24.0013 44.8642 23.8677 44.8605 23.7334V19.0419C44.8389 18.5246 45.0208 18.0195 45.3667 17.6362C45.5319 17.4564 45.7338 17.3147 45.9587 17.2209C46.1835 17.1272 46.4259 17.0836 46.669 17.0933C46.894 17.0812 47.1189 17.1167 47.3294 17.1975C47.5399 17.2783 47.7312 17.4026 47.891 17.5625C48.1913 17.877 48.3449 18.3531 48.3449 18.9804V23.7264Z" fill="#4C4C4C"/>
<path d="M59.5103 15.2835C59.3766 15.2798 59.2436 15.3029 59.1189 15.3514C58.9942 15.4 58.8804 15.4731 58.784 15.5664C58.6869 15.6628 58.6108 15.7785 58.5606 15.9062C58.5104 16.0339 58.4872 16.1707 58.4925 16.3079V23.7106C58.4961 23.9137 58.5586 24.1114 58.6723 24.2793C58.7861 24.4472 58.9461 24.5779 59.1328 24.6554C59.3194 24.7329 59.5245 24.7538 59.7228 24.7155C59.921 24.6772 60.1038 24.5813 60.2487 24.4398C60.3407 24.3427 60.4127 24.2284 60.4607 24.1032C60.5086 23.9781 60.5315 23.8446 60.528 23.7106V16.3096C60.5353 16.1733 60.514 16.037 60.4655 15.9095C60.4171 15.782 60.3425 15.6662 60.2467 15.5696C60.1509 15.473 60.036 15.3978 59.9094 15.3488C59.7828 15.2998 59.6474 15.2781 59.512 15.2852L59.5103 15.2835Z" fill="#4C4C4C"/>
<path d="M60.4006 11.9837C60.1947 11.7799 59.9251 11.6542 59.6376 11.6278C59.3502 11.6015 59.0625 11.6761 58.8234 11.839C58.5844 12.0019 58.4087 12.2431 58.3263 12.5216C58.2439 12.8001 58.2598 13.0987 58.3713 13.3667C58.4828 13.6347 58.6831 13.8556 58.9381 13.9919C59.193 14.1282 59.487 14.1714 59.7701 14.1142C60.0531 14.0571 60.3078 13.9031 60.4908 13.6784C60.6738 13.4537 60.774 13.1721 60.7741 12.8815C60.7758 12.7142 60.7436 12.5482 60.6794 12.3938C60.6151 12.2394 60.5202 12.0999 60.4006 11.9837Z" fill="#4C4C4C"/>
<path d="M71.6114 17.2479C71.2745 16.6025 70.7559 16.0714 70.1206 15.721C69.5458 15.4207 68.9145 15.2461 68.268 15.2086C67.6215 15.171 66.9744 15.2714 66.3691 15.5031C65.9967 15.6515 65.6489 15.8559 65.3374 16.1093C65.3091 15.9045 65.2153 15.7146 65.0703 15.5681C64.8705 15.3857 64.6104 15.2846 64.3406 15.2846C64.0708 15.2846 63.8107 15.3857 63.6109 15.5681C63.5132 15.6642 63.4366 15.7798 63.3861 15.9076C63.3356 16.0353 63.3122 16.1723 63.3176 16.3096V23.7281C63.3223 23.9296 63.385 24.1253 63.4981 24.2916C63.6112 24.4578 63.7698 24.5874 63.9547 24.6647C64.1396 24.7419 64.3428 24.7634 64.5396 24.7266C64.7364 24.6898 64.9183 24.5963 65.0633 24.4573C65.1561 24.3608 65.2287 24.2465 65.2769 24.1213C65.3252 23.9961 65.3481 23.8624 65.3444 23.7281V19.0367C65.3391 18.6869 65.4409 18.344 65.6359 18.0544C65.8448 17.751 66.1297 17.5086 66.4616 17.3516C66.8317 17.1724 67.2381 17.0822 67.6487 17.088C68.3906 17.088 68.9929 17.3024 69.4363 17.7294C69.8797 18.1564 70.1014 18.7959 70.1014 19.6394V23.7317C70.0957 23.8696 70.1178 24.0073 70.1663 24.1365C70.2149 24.2657 70.2889 24.3836 70.3839 24.4833C70.4788 24.5829 70.5929 24.6622 70.7191 24.7164C70.8453 24.7705 70.981 24.7985 71.1182 24.7985C71.2554 24.7985 71.3912 24.7705 71.5174 24.7164C71.6436 24.6622 71.7577 24.5829 71.8526 24.4833C71.9476 24.3836 72.0216 24.2657 72.0701 24.1365C72.1187 24.0073 72.1408 23.8696 72.1351 23.7317V19.6341C72.1601 18.8073 71.9802 17.9872 71.6114 17.2479Z" fill="#4C4C4C"/>
<path d="M34.5138 35.803C33.6944 35.2997 32.7315 35.0864 31.778 35.1968C30.8244 35.3073 29.9348 35.7352 29.2505 36.4127V32.3714C29.2559 32.234 29.2326 32.097 29.1821 31.9693C29.1315 31.8415 29.0549 31.7259 28.9572 31.6299C28.8155 31.4797 28.6316 31.3766 28.4302 31.3343C28.2287 31.292 28.0192 31.3124 27.8296 31.393C27.64 31.4735 27.4793 31.6103 27.3689 31.7851C27.2585 31.9599 27.2036 32.1644 27.2115 32.3714V39.9568C27.2012 40.8119 27.4175 41.6544 27.8382 42.3974C28.2426 43.1147 28.8287 43.7113 29.5368 44.1264C30.264 44.5489 31.0906 44.7667 31.9301 44.7572C32.7745 44.7654 33.6058 44.5477 34.3392 44.1264C35.054 43.7166 35.6447 43.119 36.0482 42.3974C36.4628 41.6523 36.6759 40.8107 36.6662 39.9568C36.6761 39.1099 36.4789 38.2735 36.0919 37.5214C35.7299 36.8155 35.1845 36.2216 34.5138 35.803ZM34.7023 39.9621C34.7095 40.4895 34.5834 41.0101 34.3357 41.4749C34.1037 41.9096 33.76 42.2737 33.3407 42.5292C33.0254 42.722 32.6743 42.8479 32.309 42.8991C31.9436 42.9503 31.5717 42.9258 31.2161 42.8271C30.8605 42.7283 30.5287 42.5574 30.2411 42.3249C29.9536 42.0924 29.7162 41.8031 29.5438 41.4749C29.3015 41.0077 29.178 40.4873 29.1842 39.9603C29.1772 39.436 29.3008 38.9183 29.5438 38.4545C29.7732 38.0179 30.1179 37.6535 30.5398 37.4014C30.9618 37.1493 31.4447 37.0194 31.9354 37.0259C32.4298 37.0198 32.9163 37.1518 33.3407 37.4072C33.7591 37.6639 34.1024 38.0277 34.3357 38.4615C34.5835 38.9218 34.7098 39.4385 34.7023 39.9621Z" fill="#4C4C4C"/>
<path d="M46.4909 36.5252C46.206 36.2382 45.8836 35.9917 45.5326 35.7924C44.7918 35.3772 43.9556 35.1651 43.1078 35.1775C42.2542 35.1656 41.4121 35.3769 40.6638 35.7907C39.9544 36.1896 39.3702 36.7807 38.9775 37.4968C38.5829 38.2607 38.3769 39.109 38.3769 39.97C38.3769 40.8309 38.5829 41.6792 38.9775 42.4431C39.3702 43.1592 39.9544 43.7503 40.6638 44.1492C41.4121 44.563 42.2542 44.7743 43.1078 44.7625C43.962 44.777 44.8049 44.5649 45.5518 44.1475C46.2579 43.7473 46.8394 43.1571 47.2311 42.4431C47.6262 41.679 47.8317 40.83 47.8298 39.9687C47.828 39.1073 47.619 38.2592 47.2206 37.4968C47.0221 37.1412 46.7767 36.8144 46.4909 36.5252ZM44.5375 42.538C44.1033 42.7845 43.6133 42.914 43.1148 42.914C42.6163 42.914 42.1262 42.7845 41.692 42.538C41.2747 42.2902 40.9339 41.9307 40.7075 41.4995C40.4623 41.0308 40.3386 40.5075 40.3479 39.9779C40.3365 39.4471 40.4565 38.9217 40.697 38.4492C40.9224 38.0154 41.2633 37.6534 41.6816 37.4037C42.1158 37.1572 42.6058 37.0277 43.1043 37.0277C43.6028 37.0277 44.0928 37.1572 44.527 37.4037C44.9433 37.6524 45.2815 38.0142 45.5029 38.4474C45.7414 38.9219 45.8613 39.4479 45.852 39.9796C45.8621 40.5086 45.7422 41.032 45.5029 41.503C45.2834 41.9319 44.949 42.2904 44.5375 42.538Z" fill="#4C4C4C"/>
<path d="M53.7896 40.0727L56.1987 36.9099C56.3734 36.6907 56.4683 36.4179 56.4675 36.1368C56.4715 35.9053 56.3864 35.6812 56.2301 35.5113C56.1473 35.4229 56.0467 35.3535 55.9349 35.3077C55.8232 35.2619 55.703 35.2409 55.5824 35.246C55.4382 35.2394 55.2945 35.2679 55.1636 35.3291C55.0326 35.3903 54.9182 35.4823 54.83 35.5974L52.5327 38.6811L49.9648 35.5921C49.8732 35.4782 49.7567 35.3872 49.6244 35.3263C49.492 35.2653 49.3474 35.236 49.2019 35.2407C49.0798 35.234 48.9576 35.2532 48.8434 35.2971C48.7291 35.341 48.6252 35.4086 48.5386 35.4955C48.4615 35.5753 48.4009 35.6696 48.3602 35.773C48.3194 35.8764 48.2994 35.9869 48.3012 36.0982C48.3052 36.3738 48.4074 36.6388 48.5892 36.8449L51.2235 39.9778L48.7533 43.0897C48.5801 43.2921 48.4842 43.55 48.4827 43.8171C48.4785 43.9347 48.4985 44.0519 48.5417 44.1612C48.5848 44.2706 48.65 44.3697 48.7333 44.4523C48.8165 44.5349 48.9159 44.5992 49.0251 44.6411C49.1343 44.683 49.251 44.7016 49.3678 44.6957C49.5064 44.6962 49.6435 44.6667 49.7697 44.6091C49.8959 44.5515 50.0083 44.4671 50.0992 44.3618L52.4612 41.3747L54.947 44.3618C55.0327 44.4739 55.1442 44.5633 55.272 44.622C55.3998 44.6808 55.5399 44.7073 55.6802 44.6992C55.8008 44.7034 55.9211 44.6835 56.034 44.6406C56.147 44.5978 56.2504 44.5329 56.3383 44.4497C56.4227 44.3695 56.4894 44.2724 56.5342 44.1646C56.579 44.0569 56.6009 43.9409 56.5984 43.8242C56.6017 43.5658 56.5039 43.3165 56.3261 43.1301L53.7896 40.0727Z" fill="#4C4C4C"/>
<path d="M70.1712 97.5372C70.1448 97.4049 70.0763 97.2849 69.9762 97.1952C69.8761 97.1055 69.7497 97.051 69.6161 97.0399C69.3909 97.0083 69.1639 96.9802 68.937 96.9591C68.4255 96.9116 67.914 96.8695 67.4025 96.8255H65.4177C64.9498 96.8695 64.482 96.9064 64.0211 96.9591C60.3901 97.379 57.192 98.7425 54.652 101.445C53.0163 103.185 52.3407 105.298 52.5781 107.681C52.8051 109.965 53.8647 111.796 55.6523 113.212C55.6918 113.251 55.7234 113.296 55.7452 113.347C55.7671 113.398 55.7788 113.452 55.7797 113.507C55.7885 115.24 55.7937 116.971 55.7797 118.703C55.7797 119.114 55.9054 119.406 56.2895 119.562H56.5985C56.986 119.408 57.1222 119.116 57.1134 118.707C57.1012 117.264 57.1134 115.822 57.1134 114.377V114.122C57.1372 114.119 57.1613 114.119 57.185 114.122C57.2269 114.137 57.2671 114.156 57.3072 114.172C59.7424 115.161 62.1201 115.05 64.4052 113.736C65.9047 112.875 67.0115 111.657 67.5247 109.956C67.9245 108.626 67.9035 107.272 67.7866 105.915C67.6836 104.715 67.5352 103.517 67.5928 102.308C67.6504 101.13 67.9612 100.039 68.8008 99.1748C69.1484 98.8465 69.5163 98.5408 69.9024 98.2593C70.0167 98.1825 70.1041 98.0714 70.1523 97.9418C70.2006 97.8123 70.2072 97.6707 70.1712 97.5372ZM55.8216 111.594C55.4055 111.194 55.0476 110.737 54.7585 110.236C53.9904 108.924 53.6926 107.386 53.915 105.88C54.1374 104.374 54.8665 102.99 55.9805 101.96C58.187 99.8671 60.823 98.7197 63.8064 98.3314C64.0892 98.2945 64.372 98.2611 64.6985 98.2224C59.4649 101.192 56.5601 105.651 55.8216 111.594ZM66.2783 103.814C66.3551 105.121 66.4843 106.426 66.5035 107.734C66.5262 109.167 66.1404 110.484 65.0947 111.534C64.1618 112.492 62.9565 113.134 61.6453 113.372C60.1735 113.655 58.6498 113.424 57.3264 112.717C57.2576 112.69 57.1997 112.641 57.1622 112.577C57.1248 112.514 57.1101 112.439 57.1204 112.365C57.2806 108.944 58.5707 105.675 60.7864 103.076C62.3488 101.222 64.2289 99.7968 66.5087 98.9464C66.8107 98.8339 67.1215 98.7461 67.427 98.6459C66.9915 99.2947 66.6697 100.014 66.4756 100.772C66.256 101.77 66.1895 102.796 66.2783 103.814Z" fill="#4C4C4C"/>
<path d="M1 76.9702V78.8187M1 76.9702C1.00175 77.587 1.00175 78.202 1 78.8187M1 76.9702V1H81.8394V116.289C81.3646 116.64 80.9299 117.08 80.4062 117.343C67.8326 123.669 55.2659 130.006 42.7063 136.353C41.8177 136.803 41.088 136.824 40.182 136.366C27.5374 129.975 14.8841 123.604 2.22198 117.255C1.34914 116.818 1 116.242 1 115.27C1.01862 103.119 1.01862 90.9685 1 78.8187M1 76.9702C1 77.587 1 78.2002 1 78.8187M3.83849 78.8099V78.8187H3.86293L3.83849 78.8099ZM79.0079 78.8187H79.0533V78.7976L79.0079 78.8187ZM40.0319 132.69C40.0319 132.776 40.0127 132.866 39.9917 133.041C39.7386 132.939 39.5047 132.866 39.2934 132.757C27.6788 126.914 16.0659 121.073 4.45472 115.235C3.98164 114.998 3.78787 114.736 3.78787 114.18C3.80532 102.613 3.81056 91.0447 3.80358 79.4759C3.80358 79.2843 3.82278 79.0928 3.83849 78.817V78.8082L3.85769 78.817C4.20683 78.9786 4.48265 79.0981 4.75498 79.2351C7.84136 80.7849 10.9138 82.3628 14.0211 83.8669C14.7665 84.2183 14.976 84.6664 14.969 85.4641C14.9289 89.7866 14.9481 94.1108 14.9498 98.4333C14.9498 99.8741 15.3967 100.327 16.809 100.331C18.1147 100.331 19.4275 100.301 20.7263 100.352C21.1145 100.377 21.4831 100.533 21.7737 100.793C23.2785 102.251 24.7414 103.75 26.2165 105.244C26.714 105.748 27.2395 106.135 27.9831 105.838C28.7582 105.528 28.8996 104.882 28.8961 104.123C28.8839 100.238 28.8961 96.3529 28.8961 92.4679V91.4365C29.1911 91.5595 29.4024 91.635 29.5944 91.7334C32.8623 93.3734 36.1303 95.0134 39.3982 96.6533C39.8276 96.8677 40.0528 97.0891 40.0511 97.632C40.0301 109.318 40.0237 121.004 40.0319 132.69ZM19.4327 83.4821C19.7819 83.2818 20.0001 83.1306 20.2358 83.0094L28.0739 78.8187C28.8967 78.3806 29.7178 77.9419 30.5371 77.5026L33.002 76.1848C39.83 72.5359 46.6556 68.8834 53.4789 65.2275C53.9887 64.9534 54.3779 64.9042 54.9139 65.1836C57.302 66.4276 59.718 67.6207 62.2458 68.8911C61.8966 69.0914 61.6679 69.2425 61.4218 69.3743L46.2361 77.5026C45.4156 77.9407 44.5963 78.3794 43.7781 78.8187C38.5818 81.6008 33.386 84.3858 28.1909 87.1738C27.9773 87.3101 27.7302 87.3838 27.4774 87.3866C27.2245 87.3894 26.9759 87.3212 26.7594 87.1896C24.3695 85.9491 21.957 84.7525 19.4362 83.4821H19.4327ZM26.0925 101.215C25.0765 100.161 24.2089 99.3312 23.4129 98.4315C23.144 98.1075 22.8005 97.8545 22.4123 97.6946C22.024 97.5348 21.6028 97.4729 21.1854 97.5143C20.0664 97.5758 18.9405 97.5284 17.7761 97.5284V85.7997C18.6838 86.2513 19.5218 86.6782 20.3772 87.0964C22.0879 87.9557 23.8039 88.8043 25.5025 89.6899C25.7451 89.8147 26.0664 90.1116 26.0681 90.333C26.1065 93.8578 26.096 97.3843 26.096 101.215H26.0925ZM50.3175 63.7515C42.5724 67.896 34.8268 72.0404 27.0806 76.1848L17.09 81.5405C16.5489 81.8304 16.1316 81.8532 15.5783 81.5686C13.7889 80.6479 11.9944 79.7394 10.1666 78.8187L5.53879 76.4905L6.13407 76.1848L7.40842 75.5382C18.4959 69.9576 29.5804 64.3741 40.6621 58.7877C41.2032 58.5136 41.6222 58.4872 42.1791 58.7754C45.0891 60.2795 48.0254 61.7361 51.1013 63.2824C50.7783 63.4774 50.5531 63.6233 50.3175 63.7515ZM42.2279 94.1811C41.9865 94.3261 41.7105 94.4027 41.4293 94.4027C41.1481 94.4027 40.8721 94.3261 40.6306 94.1811C37.5879 92.6155 34.5207 91.0903 31.4675 89.5476C31.2126 89.4193 30.963 89.2788 30.6086 89.0872C30.9229 88.9115 31.1498 88.7569 31.3855 88.6304C37.4965 85.3645 43.6065 82.0969 49.7152 78.8275L54.6398 76.1936C57.9694 74.4142 61.2979 72.6319 64.6251 70.8467C65.1349 70.5726 65.5242 70.5269 66.0618 70.8028C69.5201 72.581 73.001 74.317 76.4749 76.0741C76.5534 76.1145 76.6302 76.1549 76.7123 76.2006C76.8694 76.2867 77.0475 76.3904 77.2936 76.5274L65.4666 82.4788C57.7192 86.3713 49.973 90.2721 42.2279 94.1811ZM78.4318 115.235C66.7555 121.092 55.085 126.958 43.4203 132.832C43.2684 132.908 43.1113 132.971 42.8669 133.08C42.8494 132.728 42.8232 132.461 42.8232 132.186C42.8232 120.733 42.8197 109.279 42.8128 97.8253C42.8128 97.2877 42.8931 96.9362 43.443 96.6604C55.0914 90.8256 66.7293 84.9756 78.3567 79.1104C78.5313 79.026 78.7059 78.9523 78.9991 78.8187L79.0445 78.7976V79.7043C79.0445 91.1595 79.0445 102.613 79.0445 114.065C79.062 114.604 78.9817 114.959 78.4318 115.235ZM79.2226 74.317C67.054 68.1765 54.8825 62.0401 42.708 55.9078C41.8177 55.458 41.0915 55.4351 40.1872 55.892C28.0093 62.0524 15.8197 68.19 3.61853 74.3047V3.6339H79.2226V74.317ZM18.6035 15.7527C18.5044 15.6062 18.3665 15.4906 18.2055 15.4188C18.0565 15.3481 17.8929 15.3138 17.7282 15.3187C17.5635 15.3236 17.4023 15.3675 17.2576 15.4469C17.1008 15.5365 16.9748 15.6719 16.8963 15.8352L14.2114 21.7268L11.4916 15.83C11.4151 15.671 11.2936 15.5384 11.1425 15.4487C11.0079 15.3687 10.8555 15.324 10.6994 15.3188C10.5432 15.3136 10.3882 15.348 10.2487 15.4188C10.0832 15.4868 9.94155 15.6028 9.84176 15.752C9.74198 15.9013 9.68855 16.077 9.6883 16.2569C9.68709 16.3871 9.71577 16.5158 9.77209 16.633L13.2774 24.0708C13.3624 24.2651 13.4959 24.434 13.665 24.561C13.8321 24.6697 14.0283 24.7243 14.2271 24.7174C14.5116 24.7174 14.9027 24.605 15.1436 24.0673L18.6454 16.6365C18.7096 16.5145 18.7442 16.3791 18.7467 16.2411C18.7482 16.0674 18.6977 15.8972 18.6018 15.7527H18.6035ZM22.1263 11.9837C21.9205 11.7799 21.6509 11.6542 21.3634 11.6278C21.0759 11.6015 20.7882 11.6761 20.5492 11.839C20.3101 12.0019 20.1345 12.2431 20.0521 12.5216C19.9697 12.8001 19.9856 13.0987 20.0971 13.3667C20.2086 13.6347 20.4088 13.8556 20.6638 13.9919C20.9188 14.1282 21.2128 14.1714 21.4958 14.1142C21.7789 14.0571 22.0335 13.9031 22.2166 13.6784C22.3996 13.4537 22.4997 13.1721 22.4999 12.8815C22.5016 12.7142 22.4693 12.5482 22.4051 12.3938C22.3409 12.2394 22.246 12.0999 22.1263 11.9837ZM21.2343 15.2835C21.1009 15.2799 20.9682 15.3031 20.8438 15.3517C20.7194 15.4002 20.6059 15.4732 20.5098 15.5664C20.4127 15.6628 20.3366 15.7785 20.2864 15.9062C20.2362 16.0339 20.213 16.1707 20.2183 16.3079V23.7106C20.2221 23.9134 20.2848 24.1107 20.3984 24.2782C20.5121 24.4457 20.6719 24.5762 20.8582 24.6536C21.0444 24.7311 21.2491 24.7521 21.4471 24.7141C21.6451 24.6761 21.8278 24.5808 21.9727 24.4398C22.0647 24.3428 22.1367 24.2284 22.1847 24.1032C22.2326 23.9781 22.2555 23.8446 22.252 23.7106V16.3096C22.2587 16.1733 22.237 16.0371 22.1883 15.9097C22.1395 15.7824 22.0648 15.6667 21.9689 15.5702C21.873 15.4737 21.7581 15.3984 21.6316 15.3494C21.505 15.3003 21.3697 15.2784 21.2343 15.2852V15.2835ZM28.8036 24.7332C29.0994 24.7442 29.3891 24.6468 29.6189 24.4591C29.7262 24.3705 29.8122 24.2585 29.8702 24.1316C29.9283 24.0047 29.9569 23.8661 29.954 23.7264C29.9623 23.4647 29.8726 23.2095 29.7027 23.0113C29.6247 22.9189 29.5275 22.8449 29.418 22.7945C29.3085 22.7441 29.1894 22.7185 29.069 22.7196H28.5069C28.3594 22.7198 28.214 22.6851 28.0824 22.6182C27.9508 22.5514 27.8366 22.4543 27.7492 22.3348C27.5256 22.05 27.4104 21.6942 27.4245 21.3315V17.3973H28.6465C28.8965 17.4068 29.1405 17.3187 29.3273 17.1513C29.4146 17.0725 29.4839 16.9756 29.5306 16.8674C29.5773 16.7591 29.6003 16.642 29.5979 16.524C29.6026 16.4008 29.5808 16.278 29.5341 16.164C29.4874 16.05 29.4169 15.9475 29.3273 15.8633C29.1406 15.6955 28.8967 15.6067 28.6465 15.6156H27.4245V13.3964C27.4245 13.1293 27.3191 12.8733 27.1316 12.6844C26.944 12.4956 26.6895 12.3895 26.4242 12.3895C26.159 12.3895 25.9045 12.4956 25.7169 12.6844C25.5294 12.8733 25.424 13.1293 25.424 13.3964V15.6156H24.8374C24.5876 15.607 24.3439 15.695 24.1566 15.8616C24.067 15.9461 23.9965 16.0489 23.9498 16.1632C23.9031 16.2775 23.8814 16.4005 23.886 16.524C23.8837 16.642 23.9066 16.7591 23.9533 16.8674C24 16.9756 24.0693 17.0725 24.1566 17.1513C24.3435 17.3187 24.5874 17.4068 24.8374 17.3973H25.424V21.3315C25.4157 21.9314 25.553 22.5242 25.8237 23.0587C26.0766 23.5621 26.4603 23.9872 26.934 24.2887C27.4044 24.5863 27.9495 24.7424 28.5051 24.7385L28.8036 24.7332ZM38.6283 23.7264C38.6226 23.8644 38.6447 24.0021 38.6933 24.1313C38.7418 24.2604 38.8158 24.3784 38.9108 24.478C39.0058 24.5777 39.1198 24.657 39.246 24.7111C39.3722 24.7653 39.508 24.7932 39.6452 24.7932C39.7824 24.7932 39.9182 24.7653 40.0444 24.7111C40.1706 24.657 40.2846 24.5777 40.3796 24.478C40.4746 24.3784 40.5486 24.2604 40.5971 24.1313C40.6456 24.0021 40.6677 23.8644 40.6621 23.7264V20.0172C40.6724 19.162 40.4561 18.3196 40.0354 17.5765C39.6304 16.8596 39.0445 16.2631 38.3368 15.8475C37.6095 15.4253 36.783 15.2075 35.9435 15.2167C35.0991 15.2086 34.2678 15.4263 33.5344 15.8475C32.8196 16.2573 32.2289 16.855 31.8254 17.5765C31.4108 18.3217 31.1977 19.1632 31.2074 20.0172C31.1961 20.8665 31.3934 21.7054 31.7817 22.4595C32.1437 23.1686 32.6911 23.7646 33.3651 24.1833C33.9806 24.5533 34.6769 24.7659 35.393 24.8023C36.1091 24.8388 36.8232 24.698 37.4727 24.3924C37.9002 24.1864 38.2908 23.9103 38.6283 23.5753V23.7264ZM38.6929 20.0172C38.7032 20.54 38.5832 21.0571 38.3438 21.5212C38.1158 21.956 37.775 22.3204 37.3575 22.5755C36.9308 22.8255 36.4459 22.9572 35.9522 22.9572C35.4585 22.9572 34.9736 22.8255 34.5469 22.5755C34.1281 22.3193 33.7846 21.9554 33.5519 21.5212C33.3034 21.0599 33.1772 20.5419 33.1853 20.0172C33.1778 19.4897 33.304 18.969 33.5519 18.5043C33.7839 18.0696 34.1275 17.7055 34.5469 17.45C34.9736 17.2 35.4585 17.0683 35.9522 17.0683C36.4459 17.0683 36.9308 17.2 37.3575 17.45C37.7748 17.7053 38.1157 18.0696 38.3438 18.5043C38.5821 18.972 38.702 19.4916 38.6929 20.0172ZM48.3449 23.7264C48.348 23.9296 48.4101 24.1274 48.5237 24.2954C48.6372 24.4635 48.7972 24.5943 48.9838 24.6719C49.1704 24.7495 49.3755 24.7703 49.5737 24.7319C49.772 24.6934 49.9547 24.5974 50.0993 24.4556C50.192 24.359 50.2647 24.2447 50.3129 24.1195C50.3612 23.9943 50.3841 23.8606 50.3804 23.7264V19.0349C50.3588 18.5176 50.5407 18.0125 50.8866 17.6292C51.0489 17.4504 51.2478 17.3092 51.4697 17.2155C51.6915 17.1217 51.931 17.0777 52.1714 17.0863C52.3964 17.074 52.6214 17.1095 52.8319 17.1903C53.0424 17.2711 53.2337 17.3955 53.3934 17.5554C53.6954 17.8699 53.849 18.3461 53.849 18.9734V23.7299C53.8521 23.9331 53.9143 24.1309 54.0278 24.2989C54.1414 24.467 54.3013 24.5979 54.4879 24.6754C54.6745 24.753 54.8796 24.7738 55.0779 24.7354C55.2761 24.6969 55.4588 24.6009 55.6035 24.4591C55.6956 24.3621 55.7676 24.2478 55.8156 24.1226C55.8635 23.9975 55.8864 23.864 55.8828 23.7299V18.9699C55.8828 17.7979 55.5703 16.8614 54.9523 16.2042C54.3309 15.5383 53.5069 15.2009 52.5084 15.2009C51.9132 15.1935 51.3237 15.3183 50.7819 15.5664C50.3456 15.7681 49.953 16.054 49.6262 16.408C49.348 16.0532 48.9958 15.7641 48.5945 15.5611C48.1001 15.3164 47.5551 15.193 47.0042 15.2009C46.5407 15.1971 46.0808 15.283 45.6495 15.4539C45.3425 15.5778 45.0558 15.7479 44.7994 15.9582C44.7495 15.8151 44.667 15.6857 44.5585 15.5804C44.4144 15.4369 44.231 15.3399 44.0318 15.302C43.8326 15.264 43.6267 15.2868 43.4405 15.3674C43.2542 15.448 43.0961 15.5828 42.9865 15.7544C42.8768 15.926 42.8206 16.1267 42.825 16.3307V23.7334C42.8281 23.9366 42.8903 24.1344 43.0038 24.3025C43.1173 24.4705 43.2773 24.6014 43.4639 24.6789C43.6505 24.7565 43.8556 24.7773 44.0538 24.7389C44.2521 24.7004 44.4348 24.6044 44.5794 24.4626C44.6722 24.366 44.7448 24.2518 44.793 24.1265C44.8413 24.0013 44.8642 23.8677 44.8605 23.7334V19.0419C44.8389 18.5246 45.0208 18.0195 45.3667 17.6362C45.5319 17.4564 45.7338 17.3147 45.9587 17.2209C46.1835 17.1272 46.4259 17.0836 46.669 17.0933C46.894 17.0812 47.1189 17.1167 47.3294 17.1975C47.5399 17.2783 47.7312 17.4026 47.891 17.5625C48.1913 17.877 48.3449 18.3531 48.3449 18.9804V23.7264ZM59.5103 15.2835C59.3766 15.2798 59.2436 15.3029 59.1189 15.3514C58.9942 15.4 58.8804 15.4731 58.784 15.5664C58.6869 15.6628 58.6108 15.7785 58.5606 15.9062C58.5104 16.0339 58.4872 16.1707 58.4925 16.3079V23.7106C58.4961 23.9137 58.5586 24.1114 58.6723 24.2793C58.7861 24.4472 58.9461 24.5779 59.1328 24.6554C59.3194 24.7329 59.5245 24.7538 59.7228 24.7155C59.921 24.6772 60.1038 24.5813 60.2487 24.4398C60.3407 24.3427 60.4127 24.2284 60.4607 24.1032C60.5086 23.9781 60.5315 23.8446 60.528 23.7106V16.3096C60.5353 16.1733 60.514 16.037 60.4655 15.9095C60.4171 15.782 60.3425 15.6662 60.2467 15.5696C60.1509 15.473 60.036 15.3978 59.9094 15.3488C59.7828 15.2998 59.6474 15.2781 59.512 15.2852L59.5103 15.2835ZM60.4006 11.9837C60.1947 11.7799 59.9251 11.6542 59.6376 11.6278C59.3502 11.6015 59.0625 11.6761 58.8234 11.839C58.5844 12.0019 58.4087 12.2431 58.3263 12.5216C58.2439 12.8001 58.2598 13.0987 58.3713 13.3667C58.4828 13.6347 58.6831 13.8556 58.9381 13.9919C59.193 14.1282 59.487 14.1714 59.7701 14.1142C60.0531 14.0571 60.3078 13.9031 60.4908 13.6784C60.6738 13.4537 60.774 13.1721 60.7741 12.8815C60.7758 12.7142 60.7436 12.5482 60.6794 12.3938C60.6151 12.2394 60.5202 12.0999 60.4006 11.9837ZM71.6114 17.2479C71.2744 16.6025 70.7559 16.0714 70.1206 15.721C69.5458 15.4207 68.9145 15.2461 68.268 15.2086C67.6215 15.171 66.9744 15.2714 66.3691 15.5031C65.9967 15.6515 65.6489 15.8559 65.3374 16.1093C65.3091 15.9045 65.2153 15.7146 65.0703 15.5681C64.8705 15.3857 64.6104 15.2846 64.3406 15.2846C64.0708 15.2846 63.8107 15.3857 63.6109 15.5681C63.5132 15.6642 63.4366 15.7798 63.3861 15.9076C63.3356 16.0353 63.3122 16.1723 63.3176 16.3096V23.7281C63.3223 23.9296 63.385 24.1253 63.4981 24.2916C63.6112 24.4578 63.7698 24.5874 63.9547 24.6647C64.1396 24.7419 64.3428 24.7634 64.5396 24.7266C64.7364 24.6898 64.9183 24.5963 65.0633 24.4573C65.156 24.3608 65.2287 24.2465 65.2769 24.1213C65.3252 23.9961 65.3481 23.8624 65.3444 23.7281V19.0367C65.3391 18.6869 65.4409 18.344 65.6359 18.0544C65.8448 17.751 66.1297 17.5086 66.4616 17.3516C66.8317 17.1724 67.2381 17.0822 67.6487 17.088C68.3906 17.088 68.9929 17.3024 69.4363 17.7294C69.8797 18.1564 70.1014 18.7959 70.1014 19.6394V23.7317C70.0957 23.8696 70.1178 24.0073 70.1663 24.1365C70.2149 24.2657 70.2889 24.3836 70.3839 24.4833C70.4788 24.5829 70.5929 24.6622 70.7191 24.7164C70.8453 24.7705 70.981 24.7985 71.1182 24.7985C71.2554 24.7985 71.3912 24.7705 71.5174 24.7164C71.6436 24.6622 71.7577 24.5829 71.8526 24.4833C71.9476 24.3836 72.0216 24.2657 72.0701 24.1365C72.1187 24.0073 72.1408 23.8696 72.1351 23.7317V19.6341C72.1602 18.8073 71.9802 17.9872 71.6114 17.2479ZM34.5138 35.803C33.6944 35.2997 32.7315 35.0864 31.778 35.1968C30.8244 35.3073 29.9348 35.7352 29.2505 36.4127V32.3714C29.2559 32.234 29.2326 32.097 29.1821 31.9693C29.1315 31.8415 29.0549 31.7259 28.9572 31.6299C28.8155 31.4797 28.6316 31.3766 28.4302 31.3343C28.2287 31.292 28.0192 31.3124 27.8296 31.393C27.64 31.4735 27.4793 31.6103 27.3689 31.7851C27.2585 31.9599 27.2036 32.1644 27.2115 32.3714V39.9568C27.2012 40.8119 27.4175 41.6544 27.8382 42.3974C28.2426 43.1147 28.8287 43.7113 29.5368 44.1264C30.264 44.5489 31.0906 44.7667 31.9301 44.7572C32.7745 44.7654 33.6058 44.5477 34.3392 44.1264C35.054 43.7166 35.6447 43.119 36.0482 42.3974C36.4628 41.6523 36.6759 40.8107 36.6662 39.9568C36.6761 39.1099 36.4789 38.2735 36.0919 37.5214C35.7299 36.8155 35.1845 36.2216 34.5138 35.803ZM34.7023 39.9621C34.7095 40.4895 34.5834 41.0101 34.3357 41.4749C34.1037 41.9096 33.76 42.2737 33.3407 42.5292C33.0254 42.722 32.6743 42.8479 32.309 42.8991C31.9436 42.9503 31.5717 42.9258 31.2161 42.8271C30.8605 42.7283 30.5287 42.5574 30.2411 42.3249C29.9536 42.0924 29.7162 41.8031 29.5438 41.4749C29.3015 41.0077 29.178 40.4873 29.1842 39.9603C29.1772 39.436 29.3008 38.9183 29.5438 38.4545C29.7732 38.0179 30.1179 37.6535 30.5398 37.4014C30.9618 37.1493 31.4447 37.0194 31.9354 37.0259C32.4298 37.0198 32.9163 37.1518 33.3407 37.4072C33.7591 37.6639 34.1024 38.0277 34.3357 38.4615C34.5835 38.9218 34.7098 39.4385 34.7023 39.9621ZM46.4909 36.5252C46.206 36.2382 45.8836 35.9917 45.5326 35.7924C44.7918 35.3772 43.9556 35.1651 43.1078 35.1775C42.2542 35.1657 41.4121 35.3769 40.6638 35.7907C39.9544 36.1896 39.3702 36.7807 38.9775 37.4968C38.5829 38.2607 38.3769 39.109 38.3769 39.97C38.3769 40.8309 38.5829 41.6792 38.9775 42.4431C39.3702 43.1592 39.9544 43.7503 40.6638 44.1492C41.4121 44.563 42.2542 44.7743 43.1078 44.7625C43.962 44.777 44.8049 44.5649 45.5518 44.1475C46.2579 43.7473 46.8394 43.1571 47.2311 42.4431C47.6262 41.679 47.8317 40.83 47.8298 39.9687C47.828 39.1073 47.619 38.2592 47.2206 37.4968C47.0221 37.1412 46.7767 36.8144 46.4909 36.5252ZM44.5375 42.538C44.1033 42.7845 43.6133 42.914 43.1148 42.914C42.6163 42.914 42.1262 42.7845 41.692 42.538C41.2747 42.2902 40.9339 41.9307 40.7075 41.4995C40.4623 41.0308 40.3386 40.5075 40.3479 39.9779C40.3365 39.4471 40.4565 38.9217 40.697 38.4492C40.9224 38.0154 41.2633 37.6534 41.6816 37.4037C42.1158 37.1572 42.6058 37.0277 43.1043 37.0277C43.6028 37.0277 44.0928 37.1572 44.527 37.4037C44.9433 37.6524 45.2815 38.0142 45.5029 38.4474C45.7414 38.9219 45.8613 39.4479 45.852 39.9796C45.8621 40.5086 45.7422 41.032 45.5029 41.503C45.2834 41.9319 44.949 42.2904 44.5375 42.538ZM53.7896 40.0727L56.1987 36.9099C56.3734 36.6907 56.4683 36.4179 56.4675 36.1368C56.4715 35.9053 56.3864 35.6812 56.2301 35.5113C56.1473 35.4229 56.0467 35.3535 55.9349 35.3077C55.8232 35.2619 55.703 35.2409 55.5824 35.246C55.4382 35.2394 55.2945 35.2679 55.1636 35.3291C55.0326 35.3903 54.9182 35.4823 54.83 35.5974L52.5327 38.6811L49.9648 35.5921C49.8732 35.4782 49.7567 35.3872 49.6244 35.3263C49.492 35.2653 49.3474 35.236 49.2019 35.2407C49.0798 35.234 48.9576 35.2532 48.8434 35.2971C48.7291 35.341 48.6252 35.4086 48.5386 35.4955C48.4615 35.5753 48.4009 35.6696 48.3602 35.773C48.3194 35.8764 48.2994 35.9869 48.3012 36.0982C48.3052 36.3738 48.4074 36.6388 48.5892 36.8449L51.2235 39.9778L48.7533 43.0897C48.5801 43.2921 48.4842 43.55 48.4827 43.8171C48.4785 43.9347 48.4985 44.0519 48.5417 44.1612C48.5848 44.2706 48.65 44.3697 48.7333 44.4523C48.8165 44.5349 48.9159 44.5992 49.0251 44.6411C49.1344 44.683 49.251 44.7016 49.3678 44.6957C49.5064 44.6962 49.6435 44.6667 49.7697 44.6091C49.8959 44.5515 50.0083 44.4671 50.0992 44.3618L52.4612 41.3747L54.947 44.3618C55.0327 44.4739 55.1442 44.5633 55.272 44.622C55.3998 44.6808 55.5399 44.7073 55.6802 44.6992C55.8008 44.7034 55.9211 44.6835 56.034 44.6406C56.147 44.5978 56.2504 44.5329 56.3383 44.4497C56.4227 44.3695 56.4894 44.2724 56.5342 44.1646C56.579 44.0569 56.6009 43.9409 56.5984 43.8242C56.6017 43.5658 56.5039 43.3165 56.3261 43.1301L53.7896 40.0727ZM70.1712 97.5372C70.1448 97.4049 70.0763 97.2849 69.9762 97.1952C69.8761 97.1055 69.7497 97.051 69.6161 97.0399C69.3909 97.0083 69.1639 96.9802 68.937 96.9591C68.4255 96.9116 67.914 96.8695 67.4025 96.8255H65.4177C64.9498 96.8695 64.482 96.9064 64.0211 96.9591C60.3901 97.379 57.192 98.7425 54.652 101.445C53.0163 103.185 52.3407 105.298 52.5781 107.681C52.8051 109.965 53.8647 111.796 55.6523 113.212C55.6918 113.251 55.7234 113.296 55.7452 113.347C55.7671 113.398 55.7788 113.452 55.7797 113.507C55.7885 115.24 55.7937 116.971 55.7797 118.703C55.7797 119.114 55.9054 119.406 56.2895 119.562H56.5985C56.986 119.408 57.1222 119.116 57.1134 118.707C57.1012 117.264 57.1134 115.822 57.1134 114.377V114.122C57.1372 114.119 57.1613 114.119 57.185 114.122C57.2269 114.137 57.2671 114.156 57.3072 114.172C59.7424 115.161 62.1201 115.05 64.4052 113.736C65.9047 112.875 67.0115 111.657 67.5247 109.956C67.9245 108.626 67.9036 107.272 67.7866 105.915C67.6836 104.715 67.5352 103.517 67.5928 102.308C67.6504 101.13 67.9612 100.039 68.8008 99.1748C69.1484 98.8465 69.5164 98.5408 69.9024 98.2593C70.0167 98.1825 70.1041 98.0714 70.1523 97.9418C70.2006 97.8123 70.2072 97.6707 70.1712 97.5372ZM55.8216 111.594C55.4055 111.194 55.0476 110.737 54.7585 110.236C53.9904 108.924 53.6926 107.386 53.915 105.88C54.1374 104.374 54.8665 102.99 55.9805 101.96C58.187 99.8671 60.823 98.7197 63.8064 98.3314C64.0892 98.2945 64.372 98.2611 64.6985 98.2224C59.4649 101.192 56.5601 105.651 55.8216 111.594ZM66.2783 103.814C66.3551 105.121 66.4843 106.426 66.5035 107.734C66.5262 109.167 66.1404 110.484 65.0947 111.534C64.1618 112.492 62.9565 113.134 61.6453 113.372C60.1735 113.655 58.6498 113.424 57.3264 112.717C57.2576 112.69 57.1997 112.641 57.1622 112.577C57.1248 112.514 57.1101 112.439 57.1204 112.365C57.2806 108.944 58.5707 105.675 60.7864 103.076C62.3488 101.222 64.2289 99.7968 66.5087 98.9464C66.8107 98.8339 67.1215 98.7461 67.427 98.6459C66.9915 99.2947 66.6697 100.014 66.4756 100.772C66.256 101.77 66.1895 102.796 66.2783 103.814Z" stroke="#4C4C4C" stroke-width="0.394596" stroke-miterlimit="10"/>
</svg>
