<svg width="321" height="41" viewBox="0 0 321 41" fill="none" xmlns="http://www.w3.org/2000/svg">
<path d="M68.515 21.2408C70.3961 22.149 71.4411 23.8049 71.4411 26.0485C71.4411 29.4673 68.9853 31.604 64.8574 31.604H55.5566V11.305H64.7006C68.6718 11.305 71.0754 13.3883 71.0754 16.7003C71.0754 18.7302 70.1348 20.3327 68.515 21.2408ZM64.0736 14.6704H59.4232V19.5849H64.0736C66.1115 19.5849 67.1565 18.7836 67.1565 17.1276C67.1565 15.4716 66.1115 14.6704 64.0736 14.6704ZM64.1259 28.2387C66.3727 28.2387 67.47 27.384 67.47 25.5677C67.47 23.7515 66.3727 22.8434 64.1259 22.8434H59.4232V28.2387H64.1259Z" fill="#4C4C4C"/>
<path d="M85.6014 15.5785H89.3635V31.604H86.0194L85.8104 29.2536C84.6609 30.8562 82.7275 31.8711 80.4807 31.8711C77.1366 31.8711 74.7853 29.4139 74.7853 25.728V15.5785H78.5474V24.8199C78.5474 27.2771 79.6969 28.666 81.6303 28.666C83.8248 28.666 85.6014 27.0635 85.6014 24.7665V15.5785Z" fill="#4C4C4C"/>
<path d="M99.1869 31.8711C96.3653 31.8711 93.8572 30.963 92.1851 29.4139L94.1707 26.6895C95.4248 27.8647 97.1491 28.6126 99.2914 28.6126C100.911 28.6126 102.165 28.1318 102.165 27.1169C102.165 26.3156 101.486 25.8348 98.7166 25.1938C94.641 24.1789 92.9167 22.6831 92.9167 20.1725C92.9167 17.2345 95.4248 15.3114 99.3436 15.3114C101.59 15.3114 103.681 16.0058 105.509 17.2879L103.524 20.1191C102.165 19.0507 100.754 18.5165 99.0301 18.5165C97.5148 18.5165 96.522 19.0507 96.522 19.9588C96.522 20.8135 97.2013 21.2943 99.6049 21.8819C104.099 23.0037 105.771 24.3391 105.771 26.9566C105.771 30.0549 103.315 31.8711 99.1869 31.8711Z" fill="#4C4C4C"/>
<path d="M109.01 13.4417V10.023H113.086V13.4417H109.01ZM109.167 31.604V15.5785H112.929V31.604H109.167Z" fill="#4C4C4C"/>
<path d="M126.619 15.3114C129.963 15.3114 132.315 17.7686 132.315 21.4545V31.604H128.552V22.3626C128.552 19.9054 127.403 18.5165 125.47 18.5165C123.275 18.5165 121.498 20.1191 121.498 22.4161V31.604H117.736V15.5785H121.08L121.289 17.9289C122.439 16.3263 124.372 15.3114 126.619 15.3114Z" fill="#4C4C4C"/>
<path d="M139.212 24.8199C139.578 27.2237 141.145 28.666 143.601 28.666C145.639 28.666 147.102 27.8647 148.042 26.743L150.394 29.04C148.983 30.6959 146.736 31.8711 143.601 31.8711C138.219 31.8711 135.45 28.3455 135.45 23.5913C135.45 18.6768 138.585 15.3114 143.34 15.3114C147.99 15.3114 151.021 18.5699 151.021 23.5913C151.021 23.9652 151.021 24.2857 150.864 24.8199H139.212ZM143.34 18.4097C141.145 18.4097 139.682 19.7451 139.264 21.9887H147.206C146.788 19.6917 145.378 18.4097 143.34 18.4097Z" fill="#4C4C4C"/>
<path d="M159.642 31.8711C156.821 31.8711 154.313 30.963 152.641 29.4139L154.626 26.6895C155.88 27.8647 157.604 28.6126 159.747 28.6126C161.367 28.6126 162.621 28.1318 162.621 27.1169C162.621 26.3156 161.941 25.8348 159.172 25.1938C155.096 24.1789 153.372 22.6831 153.372 20.1725C153.372 17.2345 155.88 15.3114 159.799 15.3114C162.046 15.3114 164.136 16.0058 165.965 17.2879L163.979 20.1191C162.621 19.0507 161.21 18.5165 159.486 18.5165C157.97 18.5165 156.977 19.0507 156.977 19.9588C156.977 20.8135 157.657 21.2943 160.06 21.8819C164.554 23.0037 166.226 24.3391 166.226 26.9566C166.226 30.0549 163.77 31.8711 159.642 31.8711Z" fill="#4C4C4C"/>
<path d="M174.273 31.8711C171.451 31.8711 168.943 30.963 167.271 29.4139L169.257 26.6895C170.511 27.8647 172.235 28.6126 174.377 28.6126C175.997 28.6126 177.251 28.1318 177.251 27.1169C177.251 26.3156 176.572 25.8348 173.803 25.1938C169.727 24.1789 168.003 22.6831 168.003 20.1725C168.003 17.2345 170.511 15.3114 174.43 15.3114C176.676 15.3114 178.766 16.0058 180.595 17.2879L178.61 20.1191C177.251 19.0507 175.84 18.5165 174.116 18.5165C172.601 18.5165 171.608 19.0507 171.608 19.9588C171.608 20.8135 172.287 21.2943 174.691 21.8819C179.185 23.0037 180.857 24.3391 180.857 26.9566C180.857 30.0549 178.401 31.8711 174.273 31.8711Z" fill="#4C4C4C"/>
<path d="M193.502 34.8092V10.2366H195.121V34.8092H193.502Z" fill="#4C4C4C"/>
<path d="M231.802 11.305H235.826L230.078 31.604H225.845L221.665 16.8071L217.537 31.604H213.357L207.662 11.305H211.737L215.656 26.1019L219.732 11.305H223.703L227.779 26.0485L231.802 11.305Z" fill="#4C4C4C"/>
<path d="M250.561 28.2921H251.188V31.604C250.926 31.6575 250.508 31.7109 249.829 31.7109C247.896 31.7109 246.903 30.963 246.642 29.2536C245.492 30.8562 243.454 31.8711 241.155 31.8711C238.125 31.8711 236.035 30.0015 236.035 27.1703C236.035 23.1105 239.797 22.3092 242.775 21.9353C244.813 21.6682 246.119 21.4011 246.119 20.3327C246.119 19.2109 244.97 18.4631 243.089 18.4631C241.417 18.4631 239.901 19.1575 238.647 20.4396L236.4 18.0357C238.229 16.2729 240.528 15.3114 243.298 15.3114C247.269 15.3114 249.62 17.3413 249.62 20.6532V27.3306C249.62 27.9716 249.934 28.2921 250.561 28.2921ZM241.939 28.8263C244.186 28.8263 246.015 27.2771 246.015 25.4075V23.7515C245.388 24.1254 244.499 24.2857 243.193 24.4994C241.417 24.8199 239.692 25.087 239.692 26.8498C239.692 28.0784 240.528 28.8263 241.939 28.8263Z" fill="#4C4C4C"/>
<path d="M263.31 15.3648C263.728 15.3648 264.198 15.4182 264.616 15.4716L264.564 19.1041C263.78 18.9973 262.997 18.9438 262.265 18.9438C259.861 18.9438 258.189 20.2793 258.189 22.79V31.604H254.427V15.5785H257.771L257.98 18.0892C259.13 16.3798 261.011 15.3648 263.31 15.3648Z" fill="#4C4C4C"/>
<path d="M272.663 31.8711C269.842 31.8711 267.333 30.963 265.661 29.4139L267.647 26.6895C268.901 27.8647 270.625 28.6126 272.768 28.6126C274.387 28.6126 275.641 28.1318 275.641 27.1169C275.641 26.3156 274.962 25.8348 272.193 25.1938C268.117 24.1789 266.393 22.6831 266.393 20.1725C266.393 17.2345 268.901 15.3114 272.82 15.3114C275.067 15.3114 277.157 16.0058 278.986 17.2879L277 20.1191C275.642 19.0507 274.231 18.5165 272.506 18.5165C270.991 18.5165 269.998 19.0507 269.998 19.9588C269.998 20.8135 270.678 21.2943 273.081 21.8819C277.575 23.0037 279.247 24.3391 279.247 26.9566C279.247 30.0549 276.791 31.8711 272.663 31.8711Z" fill="#4C4C4C"/>
<path d="M295.236 28.2921H295.863V31.604C295.602 31.6575 295.184 31.7109 294.504 31.7109C292.571 31.7109 291.578 30.963 291.317 29.2536C290.168 30.8562 288.13 31.8711 285.831 31.8711C282.8 31.8711 280.71 30.0015 280.71 27.1703C280.71 23.1105 284.472 22.3092 287.45 21.9353C289.488 21.6682 290.795 21.4011 290.795 20.3327C290.795 19.2109 289.645 18.4631 287.764 18.4631C286.092 18.4631 284.577 19.1575 283.323 20.4396L281.076 18.0357C282.905 16.2729 285.204 15.3114 287.973 15.3114C291.944 15.3114 294.295 17.3413 294.295 20.6532V27.3306C294.295 27.9716 294.609 28.2921 295.236 28.2921ZM286.614 28.8263C288.861 28.8263 290.69 27.2771 290.69 25.4075V23.7515C290.063 24.1254 289.175 24.2857 287.868 24.4994C286.092 24.8199 284.368 25.087 284.368 26.8498C284.368 28.0784 285.204 28.8263 286.614 28.8263Z" fill="#4C4C4C"/>
<path d="M317.077 15.5785H320.839L316.189 31.604H312.009L308.874 20.7067L305.895 31.604H301.715L297.013 15.5785H300.879L303.962 27.4908L307.202 15.5785H310.703L313.942 27.5442L317.077 15.5785Z" fill="#4C4C4C"/>
<path fill-rule="evenodd" clip-rule="evenodd" d="M20.7273 40.8501C9.59173 40.8501 6.59424 40.282 3.99925 37.6724C1.39013 35.0486 0.839355 32.0484 0.839355 20.8501C0.839355 9.6518 1.40425 6.65518 3.99925 4.0278C6.59424 1.41818 9.59173 0.850098 20.7273 0.850098C31.8628 0.850098 34.8603 1.41818 37.4553 4.0278C40.0644 6.65162 40.6152 9.6518 40.6152 20.8501C40.6152 32.0484 40.0679 35.045 37.4553 37.6724C34.8603 40.2856 31.8628 40.8501 20.7273 40.8501ZM16.3458 14.9882H9.76826V19.153C9.76826 21.2762 9.39754 22.9271 8.89973 23.6727H8.10887V27.4469H9.73648V25.2101H15.8939V27.4469H17.5215V23.6727H16.3458V14.9882ZM11.4135 16.593V19.089C11.4135 21.1448 11.0252 22.9129 10.5909 23.6763H14.637V16.593H11.4135ZM21.1615 23.6905L21.3063 23.7864L23.806 22.0786L24.6109 23.2786L21.9665 25.0788C21.6134 25.306 21.2886 25.3876 20.9673 25.3876C19.9364 25.3876 19.308 24.5142 19.5657 23.5733L21.0309 18.4038L18.7748 18.4216L19.195 16.9161H23.0786L21.1615 23.6905ZM32.17 16.9161H28.3322C26.7046 16.9161 25.5924 17.9848 25.5924 19.5258C25.5924 20.74 26.2844 21.6632 27.3825 21.9898L25.2888 25.1995H27.1424L29.0277 22.281H30.5106V25.1995H32.17V16.9161ZM27.2695 19.5932C27.2695 20.3388 27.7673 20.8394 28.5264 20.8394H30.507V18.3612H28.5264C27.7673 18.3612 27.2695 18.8654 27.2695 19.5932ZM23.5976 14.3243C23.5976 15.0521 23.2587 15.361 22.4361 15.361C21.6134 15.361 21.2745 15.0521 21.2745 14.3243C21.2745 13.5645 21.6311 13.2556 22.4361 13.2556C23.2446 13.2556 23.5976 13.5609 23.5976 14.3243Z" fill="#4C4C4C"/>
</svg>
