<svg width="105" height="37" viewBox="0 0 105 37" fill="none" xmlns="http://www.w3.org/2000/svg">
<path d="M0.839355 28.8737V8.82568H6.36746V28.8737H0.839355Z" fill="#4C4C4C"/>
<path d="M26.1468 16.6493C29.8417 16.6493 32.5784 18.6831 32.5784 22.7496C32.5784 26.1009 30.1151 28.8791 26.1468 28.8791H10.606V8.82568H30.1753V13.7517H16.1341V16.6493H26.1468ZM25.4632 24.2396C26.4749 24.2396 27.0503 23.8055 27.0503 22.7496C27.0503 21.6936 26.4749 21.2899 25.4632 21.2899H16.1067V24.2396H25.4632Z" fill="#4C4C4C"/>
<path d="M35.4038 28.8737V8.82568H40.9275V28.8737H35.4038Z" fill="#4C4C4C"/>
<path d="M62.6658 21.1694C62.2283 23.2043 59.5233 24.4057 56.1139 24.4057C51.9257 24.4057 49.551 22.2004 49.551 18.8491C49.551 15.4978 51.9312 13.2937 56.1139 13.2937C59.5047 13.2937 62.2184 14.4875 62.656 16.5299H68.1556C67.6197 11.5594 63.1635 8.36768 56.1139 8.36768C48.5874 8.36768 44.0164 12.5199 44.0164 18.8491C44.0164 25.1784 48.5874 29.3317 56.1139 29.3317C63.1635 29.3317 67.6197 26.1399 68.1556 21.1694H62.6658Z" fill="#4C4C4C"/>
<path d="M104.53 19.4898L90.8129 15.0142L68.1558 36.8952H86.9868L104.53 19.4898Z" fill="#4C4C4C"/>
<path d="M104.53 18.2101L89.998 12.1999L87.2351 13.7074C86.1037 14.3243 84.8011 14.5602 83.5229 14.3798C82.2448 14.1993 81.0603 13.6123 80.1472 12.7067L68.1558 0.804688H86.9868L104.53 18.2101Z" fill="#4C4C4C"/>
</svg>
