<svg width="122" height="37" viewBox="0 0 122 37" fill="none" xmlns="http://www.w3.org/2000/svg">
<path d="M43.0293 3.58824H46.2678C46.5327 3.58504 46.7932 3.65635 47.0196 3.79404C47.246 3.93174 47.4291 4.13026 47.5481 4.36699C47.8565 4.90763 48.0132 5.52147 48.0017 6.14377C48.0141 6.72687 47.8489 7.29995 47.5279 7.78696C47.3967 8.00317 47.2116 8.18162 46.9907 8.30487C46.7698 8.42812 46.5207 8.49195 46.2678 8.49011H43.0293V3.58824ZM40.005 16.2726H43.0293V11.0482H46.9836C47.5539 11.0527 48.1166 10.9172 48.6224 10.6535C49.1281 10.3899 49.5615 10.0062 49.8844 9.53601C50.6246 8.51844 51.0234 7.29247 51.0234 6.03414C51.0234 4.7758 50.6246 3.54982 49.8844 2.53225C49.5595 2.0623 49.1247 1.67886 48.6178 1.41531C48.1109 1.15177 47.5473 1.01609 46.976 1.02011H40.0075L40.005 16.2726Z" fill="#4C4C4C"/>
<path d="M52.6281 1.02783H55.6523V16.2728H52.6281V1.02783Z" fill="#4C4C4C"/>
<path d="M66.1364 7.28526C65.6311 7.66021 65.0166 7.85857 64.3874 7.84979H61.2547V3.58806H64.3874C65.0296 3.5701 65.6585 3.77292 66.1692 4.16268C66.4115 4.35503 66.6044 4.60239 66.7319 4.88422C66.8595 5.16604 66.918 5.47423 66.9026 5.78319C66.9104 6.07761 66.8444 6.36932 66.7106 6.63169C66.5768 6.89406 66.3794 7.11875 66.1364 7.28526ZM66.4616 12.4492C66.5187 13.2154 66.5472 14.0462 66.5472 14.9418C66.5413 15.1644 66.5817 15.3858 66.6657 15.592C66.7438 15.7709 66.8547 15.9952 66.9958 16.2649H70.3226L69.9319 15.7734C69.7826 15.5902 69.662 15.3854 69.574 15.1661C69.5012 14.9812 69.4504 14.7883 69.4228 14.5914C69.4027 14.4125 69.3901 14.0546 69.3901 13.5128V12.235C69.3901 11.9225 69.3775 11.5823 69.3472 11.2118C69.3252 10.8766 69.272 10.5442 69.1885 10.2188C69.0769 9.88252 68.8548 9.59385 68.5584 9.39974C68.2896 9.24348 68.0275 9.08723 67.7721 8.93098C68.465 8.59778 69.0541 8.08195 69.4758 7.43899C69.872 6.73799 70.0641 5.94004 70.0302 5.13549C70.0444 4.55618 69.9179 3.98206 69.6616 3.46235C69.4052 2.94264 69.0267 2.49285 68.5584 2.15152C67.5753 1.39657 66.3651 0.997618 65.1258 1.01993H58.2355V16.2649H61.2598V10.4078H64.904C65.6173 10.4078 66.0256 10.5162 66.1314 10.7279C66.2168 10.8714 66.2717 11.031 66.2927 11.1967C66.3406 11.2698 66.4061 11.6932 66.4616 12.4492Z" fill="#4C4C4C"/>
<path d="M77.7029 4.51081L79.3361 10.5594H76.0597L77.7029 4.51081ZM80.2811 13.1804L81.2414 16.2728H84.5454L79.3361 1.02783H76.0219L70.8605 16.2728H74.1847L75.1222 13.1804H80.2811Z" fill="#4C4C4C"/>
<path d="M85.4679 1.02783H95.7429V3.83539H88.4871V6.96301H94.9339V9.69747H88.4871V13.5358H95.7429V16.2728H85.4679V1.02783Z" fill="#4C4C4C"/>
<path d="M103.118 16.5198C102.366 16.5255 101.619 16.3797 100.924 16.0909C100.229 15.8021 99.5987 15.3762 99.0713 14.8388C98.5117 14.3088 98.0686 13.668 97.7705 12.9572C97.4724 12.2464 97.3257 11.4813 97.3399 10.7106V1.02783H100.364L100.329 10.8895C100.336 11.2263 100.42 11.5569 100.575 11.8558C100.73 12.1547 100.952 12.4139 101.223 12.6134C101.771 13.0968 102.476 13.3654 103.207 13.3695C103.915 13.3706 104.599 13.1083 105.125 12.6336C105.386 12.4301 105.598 12.1704 105.746 11.8738C105.893 11.5771 105.972 11.2511 105.976 10.9198V1.02783H109.001V10.7333C109.019 11.5022 108.877 12.2665 108.583 12.9773C108.289 13.6881 107.85 14.3299 107.294 14.8614C106.745 15.4037 106.092 15.83 105.375 16.1149C104.658 16.3998 103.89 16.5375 103.118 16.5198Z" fill="#4C4C4C"/>
<path d="M116.657 3.6585C116.5 3.57004 116.33 3.50549 116.153 3.46696C115.841 3.37923 115.517 3.33597 115.193 3.33843C114.749 3.33002 114.311 3.44895 113.933 3.68118C113.595 3.8753 113.343 4.19064 113.23 4.56327C113.152 4.78798 113.098 5.02029 113.068 5.25633C113.068 5.68309 113.306 6.02837 113.782 6.29216C114.545 6.65408 115.35 6.92232 116.178 7.09107C117.098 7.29469 117.996 7.58324 118.862 7.953C119.541 8.26945 120.12 8.76749 120.533 9.39205C120.982 10.0473 121.205 10.9286 121.204 12.0358C121.204 13.3799 120.736 14.4527 119.8 15.2541C118.864 16.0556 117.45 16.4538 115.558 16.4487C113.769 16.4487 112.488 15.9926 111.715 15.0802C110.942 14.1679 110.47 12.8885 110.299 11.2419H112.892C112.892 11.9652 113.018 12.4768 113.275 12.7767C113.528 13.0709 113.815 13.3347 114.129 13.5631C114.359 13.621 114.616 13.679 114.9 13.7344C115.233 13.7963 115.571 13.825 115.909 13.8201C116.379 13.8285 116.847 13.7428 117.285 13.5681C117.65 13.4328 117.948 13.162 118.119 12.812C118.26 12.552 118.346 12.2653 118.371 11.9703C118.371 11.3175 118.028 10.8437 117.348 10.5539C116.331 10.1549 115.287 9.82646 114.225 9.57099C112.849 9.20975 111.845 8.69899 111.213 8.03868C110.581 7.37838 110.268 6.48622 110.268 5.36471C110.268 3.97354 110.766 2.87387 111.763 2.06571C112.759 1.25755 114.103 0.852628 115.795 0.850947C116.403 0.839226 117.007 0.948867 117.573 1.17346C118.138 1.39805 118.652 1.73308 119.087 2.15896C120.018 3.08649 120.596 4.31059 120.72 5.61925H118.129C118.043 5.02953 117.756 4.48747 117.317 4.08442C117.091 3.94329 116.869 3.79963 116.657 3.6585Z" fill="#4C4C4C"/>
<path d="M42.8393 24.1637H46.1786C46.6533 24.155 47.1129 24.3302 47.4614 24.6526C47.6314 24.8003 47.7672 24.9831 47.8595 25.1886C47.9518 25.394 47.9982 25.617 47.9957 25.8421C48.0063 26.0752 47.9647 26.3077 47.874 26.5226C47.7833 26.7376 47.6458 26.9296 47.4715 27.0846C47.1118 27.3914 46.6512 27.5539 46.1786 27.5408H42.8393V24.1637ZM46.5768 36.848C47.8271 36.8643 49.0389 36.4151 49.9766 35.5879C50.4435 35.2012 50.8171 34.7141 51.0698 34.163C51.3224 33.612 51.4475 33.011 51.4358 32.4049C51.4586 31.6603 51.2633 30.9253 50.8738 30.2904C50.4633 29.6712 49.9045 29.1644 49.2483 28.816C49.8116 28.4569 50.2651 27.9493 50.5588 27.3492C50.8464 26.7167 50.9885 26.0278 50.9746 25.3331C50.9856 24.8091 50.8691 24.2904 50.635 23.8215C50.401 23.3526 50.0566 22.9477 49.6313 22.6414C48.761 21.9619 47.686 21.5976 46.5818 21.6081H39.8175V36.8506L46.5768 36.848ZM42.8393 30.0913H46.3223C46.8773 30.0926 47.4092 30.3137 47.8017 30.7062C48.1942 31.0986 48.4152 31.6306 48.4166 32.1856C48.4195 32.462 48.365 32.736 48.2566 32.9902C48.1481 33.2444 47.9881 33.4733 47.7865 33.6625C47.5972 33.8597 47.3698 34.0163 47.1181 34.1229C46.8664 34.2295 46.5956 34.2838 46.3223 34.2824H42.8393V30.0913Z" fill="#4C4C4C"/>
<path d="M58.2484 25.088L59.8815 31.1365H56.6052L58.2484 25.088ZM60.8266 33.7576L61.7868 36.8474H65.0808L59.8715 21.605H56.5674L51.4034 36.8474H54.7302L55.6677 33.7576H60.8266Z" fill="#4C4C4C"/>
<path d="M65.9327 21.605H69.2746L74.9577 31.7313V21.605H77.982V36.8474H74.6578L68.9621 26.2952V36.8474H65.9378L65.9327 21.605Z" fill="#4C4C4C"/>
<path d="M83.4063 21.605V28.0014L88.3585 21.605H91.7961L86.7229 28.0442L92.2447 36.8474H88.8248L84.8302 30.3679L83.4063 32.1572V36.8474H80.382V21.605H83.4063Z" fill="#4C4C4C"/>
<path fill-rule="evenodd" clip-rule="evenodd" d="M15.4878 1.12549H36.2372V31.1246L29.5428 24.0903H27.257L36.2372 31.8442V36.8323H0.530396V27.6967C2.52643 26.6912 5.98925 24.5036 6.92426 20.7862C7.7383 17.5754 5.56837 14.1353 2.54408 11.5269L1.42004 13.0062C1.46793 13.034 6.45297 16.0608 5.80275 20.5594C5.24768 24.4199 0.679245 27.3004 0.533048 27.3926L0.530396 27.3943V1.12549H14.2277C14.2573 3.54066 14.4824 5.94947 14.9006 8.32834C15.7297 13.0336 17.5846 16.0781 17.7232 16.2999C17.7232 16.2999 18.1542 15.7706 19.6311 15.1884C21.4557 14.4651 24.5027 13.7015 29.082 13.3839C32.0332 13.1773 35.5489 13.205 36.2269 13.2151L36.2294 12.1818C36.1569 12.1765 36.0513 12.1683 35.9164 12.1577C34.7053 12.0631 31.1257 11.7836 27.7992 11.7836C24.7295 11.7836 22.7587 11.9121 20.6896 12.3229C20.0297 12.4924 19.3835 12.7114 18.7565 12.9782C18.7565 12.9782 18.2273 12.7438 17.446 10.6596C16.7231 8.64307 16.2162 6.55554 15.9339 4.43205C15.6818 2.9199 15.5332 1.63962 15.4878 1.12549ZM36.2372 31.8442L36.2441 31.8502V31.1319L36.2372 31.1246V31.8442ZM36.2289 21.3104C33.5971 22.0148 30.8978 22.4372 28.1767 22.5705C23.6755 22.8049 19.8246 22.3765 16.0392 20.9425C12.0048 19.4449 8.55359 16.699 6.18757 13.1045C4.75992 10.8942 3.65659 8.49066 2.91126 5.96717L5.02574 4.8003C5.54956 8.04012 6.86545 11.1004 8.85651 13.7094C10.5066 15.8602 12.5994 17.6315 14.9933 18.9036C18.9602 21.0181 22.5691 21.5221 25.7648 21.6809C28.1238 21.822 30.0039 21.7338 32.887 21.3986C34.5076 21.2033 35.729 20.971 36.1691 20.8873L36.2238 20.8769L36.2289 21.3104ZM22.3204 24.0923H24.5886L31.7461 31.6278C33.8548 31.9035 35.2895 32.0139 35.9695 32.0663C36.0729 32.0742 36.1589 32.0808 36.2271 32.0865V32.5653L36.1649 32.5647C35.6256 32.5594 34.3023 32.5463 32.5324 32.4519L35.0904 35.1309L31.9653 32.4217C30.6069 32.3562 29.062 32.2503 27.4289 32.1218L30.302 35.1309L26.7283 32.0361C20.0748 31.4282 17.2105 30.8164 15.7192 30.4978C15.5227 30.4558 15.35 30.4189 15.1956 30.3878C14.566 30.2664 13.942 30.1039 13.3109 29.9396C11.4917 29.4658 9.61309 28.9765 7.36775 29.4125C4.92516 29.8648 2.74682 31.2311 1.27632 33.2332L0.704224 31.3985C1.89233 30.047 3.4027 29.0176 5.09506 28.4061C6.78742 27.7945 8.60689 27.6206 10.3845 27.9004C11.9743 28.1273 13.6857 28.4649 15.6741 28.8572C16.8881 29.0968 18.2055 29.3567 19.6615 29.6242C20.3793 29.756 20.9728 29.8662 21.4938 29.9629C22.8659 30.2177 23.7343 30.3789 25.0422 30.5945L17.5168 24.0923H19.785L26.1511 30.7861C26.8417 30.8969 27.6481 31.0179 28.6562 31.1641C29.1976 31.2602 29.7153 31.3383 30.2033 31.4119C30.4445 31.4483 30.6784 31.4836 30.9043 31.5194L22.3204 24.0923Z" fill="#4C4C4C"/>
</svg>
