<svg width="214" height="38" viewBox="0 0 214 38" fill="none" xmlns="http://www.w3.org/2000/svg">
<path d="M38.8731 10.4807C36.6369 10.4807 32.7646 10.6989 29.4377 12.0079C29.5467 12.7714 29.6558 13.4804 29.6558 14.244C29.6558 19.6435 25.6744 25.0429 23.2201 27.879C26.4925 27.7154 31.3466 27.0063 34.5099 24.443C39.6366 20.2434 40.8365 10.5898 40.8365 10.5898C40.8365 10.5898 40.0184 10.4807 38.8731 10.4807Z" fill="#4C4C4C"/>
<path d="M15.0392 13.9168C11.3305 10.8625 5.22202 10.4807 2.11324 10.4807C0.913365 10.4807 0.204346 10.5353 0.204346 10.5353C0.204346 10.5353 1.34968 20.1889 6.53098 24.3884C10.2397 27.4427 16.3482 27.8244 19.4569 27.8244C20.6568 27.8244 21.3658 27.7699 21.3658 27.7699C21.3658 27.7699 20.2205 18.1163 15.0392 13.9168Z" fill="#4C4C4C"/>
<path d="M16.2936 12.4444C20.3841 15.7713 22.1839 21.8798 22.8929 25.2067C25.0745 22.4252 27.747 18.2802 27.747 14.1897C27.747 7.26309 20.0569 0.00927734 20.0569 0.00927734C20.0569 0.00927734 14.8756 4.91787 13.0212 10.4809C14.1666 10.9718 15.3119 11.6263 16.2936 12.4444Z" fill="#4C4C4C"/>
<path d="M33.8556 30.2243C33.8556 31.3696 32.8739 32.2968 31.6195 32.2968C30.365 32.2968 29.3833 31.3696 29.3833 30.2243H26.4382C26.4382 31.3696 25.4564 32.2968 24.202 32.2968C22.9476 32.2968 21.9659 31.3696 21.9659 30.2243H19.0207C19.0207 31.3696 18.039 32.2968 16.7846 32.2968C15.5302 32.2968 14.5485 31.3696 14.5485 30.2243H11.6033C11.6033 31.3696 10.6216 32.2968 9.36716 32.2968C8.11275 32.2968 7.13103 31.3696 7.13103 30.2243H4.18587V34.9692H36.8553V30.2243H33.8556Z" fill="#4C4C4C"/>
<path d="M55.0169 0.445754H66.7975V4.31809H59.162V8.13589H65.9794V12.0082H59.162V19.1529H55.0169V0.445754Z" fill="#4C4C4C"/>
<path d="M69.4699 0.445754H73.5604V15.2806H80.7051V19.1529H69.4699V0.445754Z" fill="#4C4C4C"/>
<path d="M81.5779 9.55376C81.5779 3.66345 85.723 0.00927734 90.9588 0.00927734H91.1224C96.3037 0.00927734 100.503 3.71799 100.503 9.55376V10.0446C100.503 15.9349 96.3583 19.5891 91.1224 19.5891H90.9588C85.7775 19.5891 81.5779 15.8804 81.5779 10.0446V9.55376ZM96.3037 9.55376C96.3037 6.00867 94.2312 3.82707 91.1224 3.82707H90.9588C87.8501 3.82707 85.7775 6.00867 85.7775 9.55376V10.0446C85.7775 13.5897 87.8501 15.7713 90.9588 15.7713H91.1224C94.2312 15.7713 96.3037 13.5897 96.3037 10.0446V9.55376Z" fill="#4C4C4C"/>
<path d="M108.848 12.1173H107.157V19.153H103.067V0.445754H111.193C114.629 0.445754 117.356 2.90005 117.356 6.22699V6.49969C117.356 9.00852 115.884 10.8629 113.647 11.681L115.12 13.699C115.938 14.8443 116.538 15.3897 117.52 15.3897C117.902 15.3897 118.447 15.2806 119.047 15.0625V19.0984C118.283 19.3166 117.356 19.5347 116.756 19.5347C114.411 19.5347 113.102 18.1167 111.411 15.7169L108.848 12.1173ZM113.157 6.22699C113.157 5.13619 112.338 4.31809 111.193 4.31809H107.157V8.40859H111.193C112.338 8.40859 113.157 7.59049 113.157 6.49969V6.22699Z" fill="#4C4C4C"/>
<path d="M125.537 0.445754H121.447V19.1529H125.537V0.445754Z" fill="#4C4C4C"/>
<path d="M60.7069 35.2951H56.3193V26.611H60.5898C61.3623 26.611 61.9655 26.8236 62.3995 27.2489C62.8422 27.6656 63.0635 28.1907 63.0635 28.8243C63.0635 29.3451 62.916 29.7878 62.6208 30.1523C62.3344 30.5082 61.9785 30.7295 61.5532 30.8163C62.0219 30.8858 62.4169 31.1288 62.738 31.5454C63.0678 31.9534 63.2328 32.4221 63.2328 32.9516C63.2328 33.646 63.0071 34.2101 62.5557 34.6441C62.1131 35.0781 61.4968 35.2951 60.7069 35.2951ZM60.2773 30.2044C60.6592 30.2044 60.9586 30.1002 61.1756 29.8919C61.3926 29.6836 61.5011 29.4145 61.5011 29.0847C61.5011 28.7462 61.3926 28.4728 61.1756 28.2645C60.9586 28.0561 60.6592 27.952 60.2773 27.952H57.8426V30.2044H60.2773ZM60.3424 33.9541C60.759 33.9541 61.0845 33.8499 61.3189 33.6416C61.5532 33.4246 61.6704 33.1252 61.6704 32.7433C61.6704 32.4047 61.5532 32.1226 61.3189 31.897C61.0845 31.6626 60.759 31.5454 60.3424 31.5454H57.8426V33.9541H60.3424Z" fill="#4C4C4C"/>
<path d="M64.7227 29.0066H66.0898V31.285H68.3162C68.9845 31.285 69.4966 31.476 69.8525 31.8579C70.217 32.2398 70.3993 32.7172 70.3993 33.2901C70.3993 33.8543 70.2127 34.3317 69.8395 34.7223C69.4749 35.1042 68.9671 35.2951 68.3162 35.2951H64.7227V29.0066ZM68.1469 32.4829H66.0898V34.0973H68.1469C68.416 34.0973 68.6243 34.0235 68.7719 33.876C68.9281 33.7284 69.0062 33.5331 69.0062 33.2901C69.0062 33.0471 68.9281 32.8518 68.7719 32.7042C68.6243 32.5566 68.416 32.4829 68.1469 32.4829ZM72.7168 35.2951H71.3498V29.0066H72.7168V35.2951Z" fill="#4C4C4C"/>
<path d="M77.8727 35.4514C77.0394 35.4514 76.3667 35.1085 75.8546 34.4228V37.6908H74.4875V29.0066H75.8546V29.8659C76.358 29.1889 77.0307 28.8504 77.8727 28.8504C78.6972 28.8504 79.3656 29.1455 79.8777 29.7357C80.3985 30.3259 80.6589 31.1288 80.6589 32.1443C80.6589 33.1599 80.3985 33.9671 79.8777 34.566C79.3656 35.1562 78.6972 35.4514 77.8727 35.4514ZM77.469 34.2405C78.0072 34.2405 78.4368 34.0452 78.758 33.6546C79.0791 33.264 79.2397 32.7606 79.2397 32.1443C79.2397 31.5281 79.0791 31.029 78.758 30.6471C78.4368 30.2565 78.0072 30.0612 77.469 30.0612C77.1566 30.0612 76.8484 30.1436 76.5446 30.3086C76.2408 30.4735 76.0108 30.6731 75.8546 30.9075V33.3942C76.0108 33.6286 76.2408 33.8282 76.5446 33.9932C76.8484 34.1581 77.1566 34.2405 77.469 34.2405Z" fill="#4C4C4C"/>
<path d="M87.2225 35.2951H85.8554V34.6181C85.3693 35.1736 84.6923 35.4514 83.8243 35.4514C83.2514 35.4514 82.7437 35.2691 82.301 34.9045C81.8583 34.5313 81.637 34.0192 81.637 33.3682C81.637 32.6999 81.854 32.1921 82.288 31.8449C82.7306 31.4977 83.2428 31.3241 83.8243 31.3241C84.7183 31.3241 85.3954 31.5932 85.8554 32.1313V31.1939C85.8554 30.8294 85.7208 30.5429 85.4518 30.3346C85.1827 30.1263 84.8268 30.0221 84.3842 30.0221C83.6811 30.0221 83.0605 30.2869 82.5223 30.8163L81.9625 29.8659C82.6742 29.1889 83.5552 28.8504 84.6055 28.8504C85.378 28.8504 86.0073 29.0326 86.4934 29.3972C86.9794 29.7617 87.2225 30.3389 87.2225 31.1288V35.2951ZM84.3581 34.5139C85.0438 34.5139 85.5429 34.2969 85.8554 33.863V32.9125C85.5429 32.4785 85.0438 32.2615 84.3581 32.2615C83.9675 32.2615 83.6464 32.3657 83.3947 32.574C83.1429 32.7823 83.0171 33.0557 83.0171 33.3942C83.0171 33.7328 83.1429 34.0062 83.3947 34.2145C83.6464 34.4141 83.9675 34.5139 84.3581 34.5139Z" fill="#4C4C4C"/>
<path d="M96.1557 29.0066H97.5228V34.0973H98.343V36.8966H96.976V35.2951H88.9949V29.0066H90.3619V34.0973H92.5753V29.0066H93.9424V34.0973H96.1557V29.0066Z" fill="#4C4C4C"/>
<path d="M100.774 35.2951H99.459V29.0066H100.826V33.238L103.716 29.0066H105.084V35.2951H103.716V30.9465L100.774 35.2951Z" fill="#4C4C4C"/>
<path d="M110.713 35.2951H106.859V29.0066H110.622C111.203 29.0066 111.659 29.1585 111.989 29.4623C112.318 29.7661 112.483 30.1523 112.483 30.621C112.483 30.9856 112.384 31.2937 112.184 31.5454C111.984 31.7972 111.733 31.9664 111.429 32.0532C111.767 32.1313 112.049 32.3179 112.275 32.6131C112.501 32.8995 112.614 33.225 112.614 33.5895C112.614 34.093 112.444 34.5053 112.106 34.8264C111.776 35.1389 111.312 35.2951 110.713 35.2951ZM110.426 34.0973C110.669 34.0973 110.86 34.0366 110.999 33.915C111.138 33.7848 111.207 33.6112 111.207 33.3942C111.207 33.1946 111.138 33.0254 110.999 32.8865C110.86 32.7476 110.669 32.6782 110.426 32.6782H108.226V34.0973H110.426ZM110.387 31.4803C110.604 31.4803 110.773 31.4239 110.895 31.3111C111.025 31.1896 111.09 31.0377 111.09 30.8554C111.09 30.6558 111.025 30.4995 110.895 30.3867C110.773 30.2652 110.604 30.2044 110.387 30.2044H108.226V31.4803H110.387Z" fill="#4C4C4C"/>
<path d="M119.518 35.2951H118.15V34.6181C117.664 35.1736 116.987 35.4514 116.119 35.4514C115.547 35.4514 115.039 35.2691 114.596 34.9045C114.153 34.5313 113.932 34.0192 113.932 33.3682C113.932 32.6999 114.149 32.1921 114.583 31.8449C115.026 31.4977 115.538 31.3241 116.119 31.3241C117.013 31.3241 117.69 31.5932 118.15 32.1313V31.1939C118.15 30.8294 118.016 30.5429 117.747 30.3346C117.478 30.1263 117.122 30.0221 116.679 30.0221C115.976 30.0221 115.356 30.2869 114.817 30.8163L114.258 29.8659C114.969 29.1889 115.85 28.8504 116.901 28.8504C117.673 28.8504 118.302 29.0326 118.788 29.3972C119.274 29.7617 119.518 30.3389 119.518 31.1288V35.2951ZM116.653 34.5139C117.339 34.5139 117.838 34.2969 118.15 33.863V32.9125C117.838 32.4785 117.339 32.2615 116.653 32.2615C116.263 32.2615 115.941 32.3657 115.69 32.574C115.438 32.7823 115.312 33.0557 115.312 33.3942C115.312 33.7328 115.438 34.0062 115.69 34.2145C115.941 34.4141 116.263 34.5139 116.653 34.5139Z" fill="#4C4C4C"/>
<path d="M122.605 35.2951H121.29V29.0066H122.657V33.238L125.547 29.0066H126.914V35.2951H125.547V30.9465L122.605 35.2951ZM126.381 27.1968C125.816 27.9607 125.057 28.3426 124.102 28.3426C123.156 28.3426 122.392 27.9607 121.811 27.1968L122.436 26.6761C122.852 27.2489 123.408 27.5354 124.102 27.5354C124.797 27.5354 125.348 27.2489 125.756 26.6761L126.381 27.1968Z" fill="#4C4C4C"/>
<path d="M131.203 35.2951H129.836V30.2044H128.039V29.0066H133.012V30.2044H131.203V35.2951Z" fill="#4C4C4C"/>
<path d="M137.035 35.4514C136.08 35.4514 135.29 35.1476 134.665 34.54C134.049 33.9237 133.741 33.1252 133.741 32.1443C133.741 31.2243 134.041 30.4474 134.639 29.8138C135.247 29.1715 136.011 28.8504 136.931 28.8504C137.86 28.8504 138.606 29.1715 139.17 29.8138C139.743 30.4561 140.03 31.2764 140.03 32.2745V32.6H135.173C135.225 33.0948 135.429 33.5071 135.785 33.8369C136.141 34.1667 136.605 34.3317 137.178 34.3317C137.499 34.3317 137.821 34.2709 138.142 34.1494C138.472 34.0279 138.745 33.8586 138.962 33.6416L139.587 34.54C138.953 35.1476 138.103 35.4514 137.035 35.4514ZM138.702 31.6366C138.684 31.2026 138.524 30.8163 138.22 30.4778C137.925 30.1393 137.495 29.9701 136.931 29.9701C136.393 29.9701 135.972 30.1393 135.668 30.4778C135.364 30.8077 135.195 31.1939 135.16 31.6366H138.702Z" fill="#4C4C4C"/>
<path d="M147.587 35.4514C146.632 35.4514 145.851 35.1432 145.244 34.527C144.636 33.902 144.332 33.1078 144.332 32.1443C144.332 31.1896 144.636 30.404 145.244 29.7878C145.851 29.1628 146.632 28.8504 147.587 28.8504C148.638 28.8504 149.44 29.2236 149.996 29.9701L149.098 30.8033C148.75 30.3086 148.269 30.0612 147.652 30.0612C147.08 30.0612 146.619 30.2565 146.272 30.6471C145.925 31.029 145.752 31.5281 145.752 32.1443C145.752 32.7606 145.925 33.264 146.272 33.6546C146.619 34.0452 147.08 34.2405 147.652 34.2405C148.251 34.2405 148.733 33.9932 149.098 33.4984L149.996 34.3317C149.44 35.0781 148.638 35.4514 147.587 35.4514Z" fill="#4C4C4C"/>
<path d="M155.049 35.2951H151.195V29.0066H154.957C155.539 29.0066 155.995 29.1585 156.324 29.4623C156.654 29.7661 156.819 30.1523 156.819 30.621C156.819 30.9856 156.719 31.2937 156.52 31.5454C156.32 31.7972 156.068 31.9664 155.765 32.0532C156.103 32.1313 156.385 32.3179 156.611 32.6131C156.837 32.8995 156.949 33.225 156.949 33.5895C156.949 34.093 156.78 34.5053 156.442 34.8264C156.112 35.1389 155.647 35.2951 155.049 35.2951ZM154.762 34.0973C155.005 34.0973 155.196 34.0366 155.335 33.915C155.474 33.7848 155.543 33.6112 155.543 33.3942C155.543 33.1946 155.474 33.0254 155.335 32.8865C155.196 32.7476 155.005 32.6782 154.762 32.6782H152.562V34.0973H154.762ZM154.723 31.4803C154.94 31.4803 155.109 31.4239 155.231 31.3111C155.361 31.1896 155.426 31.0377 155.426 30.8554C155.426 30.6558 155.361 30.4995 155.231 30.3867C155.109 30.2652 154.94 30.2044 154.723 30.2044H152.562V31.4803H154.723Z" fill="#4C4C4C"/>
<path d="M161.484 35.4514C160.512 35.4514 159.73 35.1346 159.14 34.5009C158.55 33.8586 158.255 33.0731 158.255 32.1443C158.255 31.2156 158.55 30.4344 159.14 29.8008C159.73 29.1672 160.512 28.8504 161.484 28.8504C162.465 28.8504 163.25 29.1672 163.84 29.8008C164.431 30.4344 164.726 31.2156 164.726 32.1443C164.726 33.0818 164.431 33.8673 163.84 34.5009C163.25 35.1346 162.465 35.4514 161.484 35.4514ZM161.484 34.2405C162.048 34.2405 162.491 34.0409 162.812 33.6416C163.142 33.2337 163.307 32.7346 163.307 32.1443C163.307 31.5628 163.142 31.0724 162.812 30.6731C162.491 30.2652 162.048 30.0612 161.484 30.0612C160.928 30.0612 160.486 30.2652 160.156 30.6731C159.835 31.0724 159.674 31.5628 159.674 32.1443C159.674 32.7346 159.835 33.2337 160.156 33.6416C160.486 34.0409 160.928 34.2405 161.484 34.2405Z" fill="#4C4C4C"/>
<path d="M167.424 35.2951H166.109V29.0066H167.476V33.238L170.366 29.0066H171.733V35.2951H170.366V30.9465L167.424 35.2951Z" fill="#4C4C4C"/>
<path d="M183.896 35.2951H182.529V30.9205L180.654 35.2951H180.108L178.22 30.9205V35.2951H176.853V29.0066H178.636L180.381 33.0687L182.1 29.0066H183.896V35.2951Z" fill="#4C4C4C"/>
<path d="M188.567 35.4514C187.613 35.4514 186.823 35.1476 186.198 34.54C185.581 33.9237 185.273 33.1252 185.273 32.1443C185.273 31.2243 185.573 30.4474 186.172 29.8138C186.779 29.1715 187.543 28.8504 188.463 28.8504C189.392 28.8504 190.138 29.1715 190.703 29.8138C191.275 30.4561 191.562 31.2764 191.562 32.2745V32.6H186.706C186.758 33.0948 186.962 33.5071 187.317 33.8369C187.673 34.1667 188.138 34.3317 188.711 34.3317C189.032 34.3317 189.353 34.2709 189.674 34.1494C190.004 34.0279 190.277 33.8586 190.494 33.6416L191.119 34.54C190.486 35.1476 189.635 35.4514 188.567 35.4514ZM190.234 31.6366C190.217 31.2026 190.056 30.8163 189.752 30.4778C189.457 30.1393 189.027 29.9701 188.463 29.9701C187.925 29.9701 187.504 30.1393 187.2 30.4778C186.896 30.8077 186.727 31.1939 186.693 31.6366H190.234Z" fill="#4C4C4C"/>
<path d="M192.69 29.0066H194.057V30.6992C194.057 31.1679 194.174 31.4977 194.409 31.6887C194.652 31.8796 195.033 31.9751 195.554 31.9751C196.118 31.9751 196.578 31.897 196.934 31.7407V29.0066H198.301V35.2951H196.934V32.8474C196.483 33.0731 195.88 33.1859 195.125 33.1859C194.265 33.1859 193.645 33.021 193.263 32.6912C192.881 32.3613 192.69 31.8623 192.69 31.1939V29.0066Z" fill="#4C4C4C"/>
<path d="M202.582 35.2951H201.215V30.2044H199.419V29.0066H204.392V30.2044H202.582V35.2951Z" fill="#4C4C4C"/>
<path d="M205.511 29.0066H206.878V31.285H209.105C209.773 31.285 210.285 31.476 210.641 31.8579C211.006 32.2398 211.188 32.7172 211.188 33.2901C211.188 33.8543 211.001 34.3317 210.628 34.7223C210.264 35.1042 209.756 35.2951 209.105 35.2951H205.511V29.0066ZM208.936 32.4829H206.878V34.0973H208.936C209.205 34.0973 209.413 34.0235 209.561 33.876C209.717 33.7284 209.795 33.5331 209.795 33.2901C209.795 33.0471 209.717 32.8518 209.561 32.7042C209.413 32.5566 209.205 32.4829 208.936 32.4829ZM213.506 35.2951H212.138V29.0066H213.506V35.2951Z" fill="#4C4C4C"/>
<path d="M145.608 11.6264C145.608 16.6441 142.008 19.5893 137.427 19.5893H137.263C132.627 19.5893 129.3 16.6441 129.082 11.6264V0.445754H133.173V10.9174C133.173 13.9171 134.1 15.6624 137.263 15.7715H137.372C140.481 15.7169 141.463 13.9171 141.463 10.9174V0.445754H145.553V11.6264H145.608Z" fill="#4C4C4C"/>
<path d="M194.475 11.6264C194.475 16.6441 190.876 19.5893 186.295 19.5893H186.185C181.55 19.5893 178.223 16.6441 178.004 11.6264V0.445754H182.095V10.9174C182.095 13.9171 183.022 15.6624 186.185 15.7715H186.295C189.403 15.7169 190.385 13.9171 190.385 10.9174V0.445754H194.475V11.6264Z" fill="#4C4C4C"/>
<path d="M153.571 8.79036V19.1529H149.48V0.445754H153.298L159.352 10.4266L165.46 0.445754H169.169V19.1529H165.079V8.51766L160.77 15.7169H157.825L153.571 8.79036Z" fill="#4C4C4C"/>
<path d="M176.096 15.2259H172.169V19.0982H176.096V15.2259Z" fill="#4C4C4C"/>
<path d="M213.728 19.1529H209.256L207.783 15.3352H200.475L199.002 19.1529H194.803L202.166 0.445754H206.256L213.728 19.1529ZM201.838 11.6264H206.256L204.02 5.89975L201.838 11.6264Z" fill="#4C4C4C"/>
</svg>
