<svg width="22" height="22" viewBox="0 0 22 22" fill="none" xmlns="http://www.w3.org/2000/svg">
<path d="M1.34876 10.417C1.34876 10.417 11.0788 6.19122 14.4534 4.70327C15.747 4.10809 20.134 2.20351 20.134 2.20351C20.134 2.20351 22.1587 1.37026 21.99 3.39388C21.9338 4.22713 21.4838 7.14351 21.0339 10.298C20.359 14.7618 19.6278 19.6423 19.6278 19.6423C19.6278 19.6423 19.5153 21.0112 18.5592 21.2493C17.603 21.4874 16.0282 20.416 15.747 20.178C15.522 19.9994 11.5288 17.3211 10.0665 16.0117C9.67276 15.6546 9.22281 14.9404 10.1227 14.1071C12.1475 12.143 14.5659 9.70279 16.0282 8.15532C16.7032 7.4411 17.3781 5.7746 14.5659 7.79821C10.5726 10.7146 6.63562 13.4524 6.63562 13.4524C6.63562 13.4524 5.73573 14.0476 4.04844 13.5119C2.36114 12.9763 0.39263 12.2621 0.39263 12.2621C0.39263 12.2621 -0.957206 11.3693 1.34876 10.417Z" fill="#35AEE2"/>
</svg>
