<svg width="22" height="22" viewBox="0 0 22 22" fill="none" xmlns="http://www.w3.org/2000/svg">
<path d="M18.9841 2.14428C18.4438 1.64134 16.2596 0.037597 11.3949 0.0158219C11.3949 0.0158219 5.65876 -0.334417 2.86229 2.2608C1.30581 3.83562 0.758114 6.13923 0.70015 8.99714C0.642849 11.855 0.567557 17.2087 5.67008 18.6611L5.67476 18.6624L5.67209 20.8778C5.67209 20.8778 5.6401 21.7751 6.22312 21.9574C6.92942 22.1793 7.34384 21.4973 8.01813 20.7625C8.38859 20.3596 8.89896 19.7671 9.28411 19.3141C12.7742 19.6098 15.458 18.9317 15.7626 18.8316C16.4675 18.5999 20.4547 18.0837 21.103 12.73C21.7719 7.20966 20.7785 3.7191 18.9841 2.14428ZM19.5871 12.331C19.0388 16.8019 15.8058 17.0843 15.2102 17.2778C14.9563 17.3601 12.5983 17.9533 9.63457 17.7571L6.4217 21.2754L6.41837 17.2212L6.39305 17.2147C2.07673 16.002 2.22197 11.4553 2.27062 9.06883C2.31927 6.68231 2.76237 4.72699 4.07964 3.4123C6.44436 1.24498 11.317 1.56892 11.317 1.56892C15.4321 1.58735 17.4043 2.84018 17.8614 3.26021C19.3792 4.57563 20.1528 7.72186 19.5871 12.331Z" fill="#AA5ABE"/>
<path d="M15.8719 12.9979C15.8699 12.9959 15.2176 12.4462 14.8991 12.2092C14.5986 11.986 14.1195 11.6858 13.8517 11.5331C13.3713 11.2625 12.8802 11.4323 12.6776 11.6983L12.2565 12.2336C12.0407 12.5048 11.7082 12.4594 11.6209 12.4416C10.9986 12.2875 10.3369 11.9031 9.65994 11.2552C8.97502 10.6015 8.56054 9.91882 8.41266 9.20913L8.40198 9.16234C8.36198 8.87067 8.41131 8.73573 8.53189 8.53696L8.55455 8.51848C8.83906 8.25713 9.36616 7.93916 9.43674 7.63627C9.64395 7.11027 8.74447 6.01349 8.61586 5.81991C8.61586 5.81991 7.96157 4.96405 7.72904 4.80074C7.47782 4.59405 7.08871 4.47619 6.69627 4.71454L6.67627 4.729C5.5489 5.4828 5.14044 5.916 5.25171 6.56255L5.30967 6.82256C5.88136 8.6034 6.98542 10.5021 8.63185 12.1928C10.2603 13.8624 12.022 14.8624 13.7584 15.555C14.2095 15.7031 14.6772 15.5754 15.1569 15.1705L15.1649 15.1645C15.5328 14.8249 15.8239 14.4614 16.0411 14.0723L16.0431 14.0645C16.2543 13.653 16.1831 13.2632 15.8719 12.9979Z" fill="#AA5ABE"/>
<path d="M13.1688 9.0982C13.1002 9.0982 13.0429 9.04359 13.0396 8.9738C13.0169 8.51229 12.891 8.15875 12.6651 7.92241C12.4406 7.68803 12.1041 7.55704 11.6657 7.53331C11.5943 7.52935 11.5391 7.46749 11.5431 7.39507C11.547 7.32266 11.6077 7.26738 11.6797 7.27068C12.186 7.29831 12.5798 7.45632 12.8517 7.74006C13.1222 8.02314 13.2728 8.43328 13.2988 8.96062C13.3021 9.03304 13.2468 9.09429 13.1755 9.0982H13.1688Z" fill="#AA5ABE"/>
<path d="M14.4535 9.53386H14.4501C14.3788 9.53185 14.3222 9.47194 14.3236 9.39953C14.3435 8.5134 14.0817 7.76418 13.5446 7.17168C13.2774 6.87605 12.9529 6.64239 12.5791 6.47712C12.2047 6.31186 11.7683 6.20985 11.2832 6.17362C11.2119 6.16831 11.1579 6.10517 11.1632 6.03342C11.1686 5.96101 11.2305 5.90634 11.3019 5.91159C12.3373 5.98864 13.1562 6.35267 13.7365 6.99458C14.3195 7.63783 14.6047 8.44953 14.5834 9.4055C14.5814 9.47719 14.5234 9.53386 14.4535 9.53386Z" fill="#AA5ABE"/>
<path d="M15.7689 10.0542C15.6976 10.0542 15.6397 9.99633 15.639 9.92385C15.633 9.14046 15.5137 8.432 15.2832 7.81717C15.0539 7.20686 14.7081 6.67031 14.2551 6.22264C13.8013 5.77559 13.2856 5.43456 12.7219 5.20872C12.1569 4.98226 11.5272 4.86512 10.8503 4.86049C10.7789 4.85982 10.721 4.80058 10.7216 4.72816C10.7223 4.65575 10.7803 4.59779 10.8516 4.59779H10.8522C12.2735 4.60835 13.4788 5.09158 14.4363 6.03499C14.9167 6.50901 15.2832 7.07716 15.5257 7.72432C15.7669 8.36751 15.8922 9.10752 15.8988 9.9219C15.8995 9.99432 15.8415 10.0536 15.7702 10.0542H15.7689Z" fill="#AA5ABE"/>
</svg>
