<svg width="22" height="22" viewBox="0 0 22 22" fill="none" xmlns="http://www.w3.org/2000/svg">
<path fill-rule="evenodd" clip-rule="evenodd" d="M5.96456 8.53885C5.92665 8.0352 6.0255 7.53067 6.25079 7.07822C6.31942 6.89796 6.41483 6.72899 6.53381 6.57695C6.7462 6.29073 7.02998 6.06477 7.35702 5.92148C7.35702 5.92148 8.32902 5.82642 8.41312 5.95661C8.86355 6.73565 9.24038 7.55469 9.53874 8.40318C9.68753 8.95811 8.90639 9.5915 8.90639 9.5915C8.90639 9.5915 8.41151 9.84286 8.90639 10.4653C9.27514 10.9298 9.90264 11.7393 10.2795 12.0382C10.6775 12.3628 11.101 12.6551 11.5458 12.9124C12.466 13.4207 12.6375 13.3666 12.6375 13.3666C12.6375 13.3666 12.8073 13.4357 13.2698 12.8075C13.5173 12.4739 13.7874 12.0824 14.0445 12.0034C14.3421 11.9127 16.7454 13.2878 16.6499 13.1918C16.8181 13.3608 16.6855 13.9027 16.6855 13.9027C16.6855 13.9027 16.7373 14.5088 15.8219 15.2078C15.2187 15.6688 14.2208 15.7785 14.2208 15.7785C13.5925 15.7337 12.975 15.5924 12.39 15.3596C11.4148 14.9933 10.3846 14.6851 9.04708 13.4723C8.11794 12.6317 7.31075 11.6664 6.64867 10.6042C5.94515 9.39557 5.96456 8.53885 5.96456 8.53885ZM11.211 21.5107C9.34626 21.5133 7.51276 21.0334 5.89014 20.1179L0 22L1.93588 16.2693C0.714209 14.2309 0.203823 11.8471 0.484277 9.48952C0.764731 7.13191 1.82025 4.933 3.48632 3.23561C5.15239 1.53821 7.33537 0.437722 9.6949 0.105708C12.0544 -0.226306 14.4579 0.228814 16.5307 1.40011C18.6034 2.57142 20.2289 4.39307 21.1538 6.58108C22.0786 8.76908 22.2508 11.2005 21.6436 13.4962C21.0363 15.7919 19.6837 17.823 17.7966 19.2727C15.9095 20.7224 13.594 21.5092 11.211 21.5107ZM11.1932 1.83172C9.53594 1.82558 7.90909 2.27486 6.49148 3.13015C5.07388 3.98545 3.92043 5.21363 3.15801 6.67967C2.39558 8.1457 2.05368 9.79281 2.16991 11.4399C2.28613 13.0869 2.856 14.6702 3.81681 16.0155L2.95802 18.6097L2.96126 18.6121L2.71057 19.3438L4.16774 18.9128C4.16542 18.91 4.16269 18.9076 4.15965 18.9057L6.15863 18.2789C7.32902 19.0666 8.66859 19.5697 10.0696 19.7478C11.4707 19.9258 12.8941 19.7739 14.2255 19.3042C15.5569 18.8345 16.7591 18.0601 17.7355 17.0432C18.7118 16.0264 19.4351 14.7955 19.8471 13.4496C20.2591 12.1036 20.3484 10.6801 20.1077 9.29349C19.8671 7.9069 19.3033 6.5959 18.4616 5.4659C17.6198 4.3359 16.5237 3.41843 15.2614 2.78725C13.999 2.15607 12.6056 1.82879 11.1932 1.83172Z" fill="#00C232"/>
</svg>
